%FSAX24Y24*%
%MOIN*%
G70*
G01*
G75*
G04 Layer_Color=32896*
G04:AMPARAMS|DCode=10|XSize=31.5mil|YSize=31.5mil|CornerRadius=3.9mil|HoleSize=0mil|Usage=FLASHONLY|Rotation=0.000|XOffset=0mil|YOffset=0mil|HoleType=Round|Shape=RoundedRectangle|*
%AMROUNDEDRECTD10*
21,1,0.0315,0.0236,0,0,0.0*
21,1,0.0236,0.0315,0,0,0.0*
1,1,0.0079,0.0118,-0.0118*
1,1,0.0079,-0.0118,-0.0118*
1,1,0.0079,-0.0118,0.0118*
1,1,0.0079,0.0118,0.0118*
%
%ADD10ROUNDEDRECTD10*%
%ADD11O,0.0591X0.0157*%
%ADD12O,0.0591X0.0157*%
G04:AMPARAMS|DCode=13|XSize=120mil|YSize=40mil|CornerRadius=5mil|HoleSize=0mil|Usage=FLASHONLY|Rotation=270.000|XOffset=0mil|YOffset=0mil|HoleType=Round|Shape=RoundedRectangle|*
%AMROUNDEDRECTD13*
21,1,0.1200,0.0300,0,0,270.0*
21,1,0.1100,0.0400,0,0,270.0*
1,1,0.0100,-0.0150,-0.0550*
1,1,0.0100,-0.0150,0.0550*
1,1,0.0100,0.0150,0.0550*
1,1,0.0100,0.0150,-0.0550*
%
%ADD13ROUNDEDRECTD13*%
G04:AMPARAMS|DCode=14|XSize=330mil|YSize=420mil|CornerRadius=41.3mil|HoleSize=0mil|Usage=FLASHONLY|Rotation=270.000|XOffset=0mil|YOffset=0mil|HoleType=Round|Shape=RoundedRectangle|*
%AMROUNDEDRECTD14*
21,1,0.3300,0.3375,0,0,270.0*
21,1,0.2475,0.4200,0,0,270.0*
1,1,0.0825,-0.1688,-0.1238*
1,1,0.0825,-0.1688,0.1238*
1,1,0.0825,0.1688,0.1238*
1,1,0.0825,0.1688,-0.1238*
%
%ADD14ROUNDEDRECTD14*%
%ADD15R,0.0161X0.0540*%
%ADD16R,0.0790X0.0740*%
%ADD17O,0.0787X0.0157*%
%ADD18R,0.0787X0.0157*%
%ADD19O,0.0157X0.0591*%
%ADD20R,0.0591X0.0100*%
%ADD21R,0.0100X0.0591*%
%ADD22R,0.0965X0.0965*%
%ADD23R,0.0748X0.0787*%
%ADD24R,0.0748X0.0512*%
G04:AMPARAMS|DCode=25|XSize=39.4mil|YSize=35.4mil|CornerRadius=4.4mil|HoleSize=0mil|Usage=FLASHONLY|Rotation=270.000|XOffset=0mil|YOffset=0mil|HoleType=Round|Shape=RoundedRectangle|*
%AMROUNDEDRECTD25*
21,1,0.0394,0.0266,0,0,270.0*
21,1,0.0305,0.0354,0,0,270.0*
1,1,0.0089,-0.0133,-0.0153*
1,1,0.0089,-0.0133,0.0153*
1,1,0.0089,0.0133,0.0153*
1,1,0.0089,0.0133,-0.0153*
%
%ADD25ROUNDEDRECTD25*%
G04:AMPARAMS|DCode=26|XSize=50mil|YSize=50mil|CornerRadius=6.3mil|HoleSize=0mil|Usage=FLASHONLY|Rotation=90.000|XOffset=0mil|YOffset=0mil|HoleType=Round|Shape=RoundedRectangle|*
%AMROUNDEDRECTD26*
21,1,0.0500,0.0375,0,0,90.0*
21,1,0.0375,0.0500,0,0,90.0*
1,1,0.0125,0.0188,0.0188*
1,1,0.0125,0.0188,-0.0188*
1,1,0.0125,-0.0188,-0.0188*
1,1,0.0125,-0.0188,0.0188*
%
%ADD26ROUNDEDRECTD26*%
%ADD27R,0.0551X0.0827*%
G04:AMPARAMS|DCode=28|XSize=39.4mil|YSize=35.4mil|CornerRadius=4.4mil|HoleSize=0mil|Usage=FLASHONLY|Rotation=180.000|XOffset=0mil|YOffset=0mil|HoleType=Round|Shape=RoundedRectangle|*
%AMROUNDEDRECTD28*
21,1,0.0394,0.0266,0,0,180.0*
21,1,0.0305,0.0354,0,0,180.0*
1,1,0.0089,-0.0153,0.0133*
1,1,0.0089,0.0153,0.0133*
1,1,0.0089,0.0153,-0.0133*
1,1,0.0089,-0.0153,-0.0133*
%
%ADD28ROUNDEDRECTD28*%
%ADD29R,0.0710X0.0440*%
%ADD30R,0.1250X0.0800*%
%ADD31R,0.0300X0.0300*%
G04:AMPARAMS|DCode=32|XSize=23.6mil|YSize=39.4mil|CornerRadius=3mil|HoleSize=0mil|Usage=FLASHONLY|Rotation=90.000|XOffset=0mil|YOffset=0mil|HoleType=Round|Shape=RoundedRectangle|*
%AMROUNDEDRECTD32*
21,1,0.0236,0.0335,0,0,90.0*
21,1,0.0177,0.0394,0,0,90.0*
1,1,0.0059,0.0167,0.0089*
1,1,0.0059,0.0167,-0.0089*
1,1,0.0059,-0.0167,-0.0089*
1,1,0.0059,-0.0167,0.0089*
%
%ADD32ROUNDEDRECTD32*%
%ADD33R,0.0157X0.0500*%
%ADD34R,0.1043X0.0772*%
%ADD35R,0.0680X0.0880*%
%ADD36R,0.0500X0.0160*%
%ADD37R,0.1380X0.1610*%
%ADD38R,0.0360X0.0500*%
%ADD39R,0.0360X0.0360*%
%ADD40R,0.0860X0.0640*%
G04:AMPARAMS|DCode=41|XSize=55.1mil|YSize=39.4mil|CornerRadius=4.9mil|HoleSize=0mil|Usage=FLASHONLY|Rotation=0.000|XOffset=0mil|YOffset=0mil|HoleType=Round|Shape=RoundedRectangle|*
%AMROUNDEDRECTD41*
21,1,0.0551,0.0295,0,0,0.0*
21,1,0.0453,0.0394,0,0,0.0*
1,1,0.0098,0.0226,-0.0148*
1,1,0.0098,-0.0226,-0.0148*
1,1,0.0098,-0.0226,0.0148*
1,1,0.0098,0.0226,0.0148*
%
%ADD41ROUNDEDRECTD41*%
%ADD42R,0.0354X0.1457*%
%ADD43R,0.1457X0.0354*%
G04:AMPARAMS|DCode=44|XSize=70.9mil|YSize=45.3mil|CornerRadius=5.7mil|HoleSize=0mil|Usage=FLASHONLY|Rotation=90.000|XOffset=0mil|YOffset=0mil|HoleType=Round|Shape=RoundedRectangle|*
%AMROUNDEDRECTD44*
21,1,0.0709,0.0340,0,0,90.0*
21,1,0.0595,0.0453,0,0,90.0*
1,1,0.0113,0.0170,0.0298*
1,1,0.0113,0.0170,-0.0298*
1,1,0.0113,-0.0170,-0.0298*
1,1,0.0113,-0.0170,0.0298*
%
%ADD44ROUNDEDRECTD44*%
G04:AMPARAMS|DCode=45|XSize=55.1mil|YSize=39.4mil|CornerRadius=4.9mil|HoleSize=0mil|Usage=FLASHONLY|Rotation=90.000|XOffset=0mil|YOffset=0mil|HoleType=Round|Shape=RoundedRectangle|*
%AMROUNDEDRECTD45*
21,1,0.0551,0.0295,0,0,90.0*
21,1,0.0453,0.0394,0,0,90.0*
1,1,0.0098,0.0148,0.0226*
1,1,0.0098,0.0148,-0.0226*
1,1,0.0098,-0.0148,-0.0226*
1,1,0.0098,-0.0148,0.0226*
%
%ADD45ROUNDEDRECTD45*%
%ADD46C,0.0750*%
%ADD47C,0.0200*%
%ADD48C,0.0100*%
%ADD49C,0.0600*%
%ADD50C,0.0500*%
%ADD51C,0.0150*%
%ADD52C,0.0080*%
%ADD53C,0.0400*%
%ADD54C,0.0300*%
%ADD55C,0.0350*%
%ADD56C,0.0120*%
%ADD57C,0.1000*%
%ADD58C,0.0250*%
%ADD59C,0.0450*%
%ADD60O,0.0550X0.0800*%
%ADD61O,0.0600X0.0800*%
%ADD62O,0.0591X0.0413*%
%ADD63O,0.0413X0.0591*%
%ADD64C,0.0394*%
%ADD65C,0.0591*%
G04:AMPARAMS|DCode=66|XSize=59.1mil|YSize=59.1mil|CornerRadius=7.4mil|HoleSize=0mil|Usage=FLASHONLY|Rotation=0.000|XOffset=0mil|YOffset=0mil|HoleType=Round|Shape=RoundedRectangle|*
%AMROUNDEDRECTD66*
21,1,0.0591,0.0443,0,0,0.0*
21,1,0.0443,0.0591,0,0,0.0*
1,1,0.0148,0.0221,-0.0221*
1,1,0.0148,-0.0221,-0.0221*
1,1,0.0148,-0.0221,0.0221*
1,1,0.0148,0.0221,0.0221*
%
%ADD66ROUNDEDRECTD66*%
G04:AMPARAMS|DCode=67|XSize=78.7mil|YSize=78.7mil|CornerRadius=19.7mil|HoleSize=0mil|Usage=FLASHONLY|Rotation=0.000|XOffset=0mil|YOffset=0mil|HoleType=Round|Shape=RoundedRectangle|*
%AMROUNDEDRECTD67*
21,1,0.0787,0.0394,0,0,0.0*
21,1,0.0394,0.0787,0,0,0.0*
1,1,0.0394,0.0197,-0.0197*
1,1,0.0394,-0.0197,-0.0197*
1,1,0.0394,-0.0197,0.0197*
1,1,0.0394,0.0197,0.0197*
%
%ADD67ROUNDEDRECTD67*%
G04:AMPARAMS|DCode=68|XSize=78.7mil|YSize=59.1mil|CornerRadius=7.4mil|HoleSize=0mil|Usage=FLASHONLY|Rotation=90.000|XOffset=0mil|YOffset=0mil|HoleType=Round|Shape=RoundedRectangle|*
%AMROUNDEDRECTD68*
21,1,0.0787,0.0443,0,0,90.0*
21,1,0.0640,0.0591,0,0,90.0*
1,1,0.0148,0.0221,0.0320*
1,1,0.0148,0.0221,-0.0320*
1,1,0.0148,-0.0221,-0.0320*
1,1,0.0148,-0.0221,0.0320*
%
%ADD68ROUNDEDRECTD68*%
%ADD69O,0.0591X0.0787*%
%ADD70C,0.0900*%
%ADD71C,0.0800*%
%ADD72O,0.0650X0.0900*%
%ADD73C,0.2087*%
%ADD74C,0.0600*%
%ADD75C,0.0290*%
%ADD76C,0.0300*%
%ADD77C,0.0320*%
%ADD78C,0.0250*%
%ADD79C,0.0310*%
%ADD80C,0.0350*%
%ADD81C,0.0360*%
%ADD82C,0.0098*%
%ADD83C,0.0236*%
%ADD84C,0.0050*%
%ADD85C,0.0197*%
%ADD86C,0.0060*%
%ADD87C,0.0079*%
%ADD88C,0.0070*%
%ADD89C,0.0090*%
%ADD90C,0.0075*%
%ADD91R,0.1022X0.0582*%
%ADD92R,0.0669X0.0738*%
%ADD93R,0.0650X0.0768*%
%ADD94R,0.0738X0.0669*%
%ADD95R,0.0768X0.0650*%
%ADD96R,0.0472X0.0118*%
%ADD97O,0.0551X0.0117*%
%ADD98O,0.0117X0.0551*%
%ADD99R,0.0571X0.0571*%
%ADD100R,0.0523X0.0723*%
G04:AMPARAMS|DCode=101|XSize=118mil|YSize=65mil|CornerRadius=8.1mil|HoleSize=0mil|Usage=FLASHONLY|Rotation=90.000|XOffset=0mil|YOffset=0mil|HoleType=Round|Shape=RoundedRectangle|*
%AMROUNDEDRECTD101*
21,1,0.1180,0.0488,0,0,90.0*
21,1,0.1017,0.0650,0,0,90.0*
1,1,0.0163,0.0244,0.0509*
1,1,0.0163,0.0244,-0.0509*
1,1,0.0163,-0.0244,-0.0509*
1,1,0.0163,-0.0244,0.0509*
%
%ADD101ROUNDEDRECTD101*%
%ADD102R,0.0472X0.1890*%
%ADD103R,0.1890X0.0472*%
G04:AMPARAMS|DCode=104|XSize=39.5mil|YSize=39.5mil|CornerRadius=7.9mil|HoleSize=0mil|Usage=FLASHONLY|Rotation=0.000|XOffset=0mil|YOffset=0mil|HoleType=Round|Shape=RoundedRectangle|*
%AMROUNDEDRECTD104*
21,1,0.0395,0.0236,0,0,0.0*
21,1,0.0236,0.0395,0,0,0.0*
1,1,0.0159,0.0118,-0.0118*
1,1,0.0159,-0.0118,-0.0118*
1,1,0.0159,-0.0118,0.0118*
1,1,0.0159,0.0118,0.0118*
%
%ADD104ROUNDEDRECTD104*%
%ADD105O,0.0671X0.0237*%
%ADD106O,0.0691X0.0257*%
G04:AMPARAMS|DCode=107|XSize=128mil|YSize=48mil|CornerRadius=9mil|HoleSize=0mil|Usage=FLASHONLY|Rotation=270.000|XOffset=0mil|YOffset=0mil|HoleType=Round|Shape=RoundedRectangle|*
%AMROUNDEDRECTD107*
21,1,0.1280,0.0300,0,0,270.0*
21,1,0.1100,0.0480,0,0,270.0*
1,1,0.0180,-0.0150,-0.0550*
1,1,0.0180,-0.0150,0.0550*
1,1,0.0180,0.0150,0.0550*
1,1,0.0180,0.0150,-0.0550*
%
%ADD107ROUNDEDRECTD107*%
G04:AMPARAMS|DCode=108|XSize=338mil|YSize=428mil|CornerRadius=45.3mil|HoleSize=0mil|Usage=FLASHONLY|Rotation=270.000|XOffset=0mil|YOffset=0mil|HoleType=Round|Shape=RoundedRectangle|*
%AMROUNDEDRECTD108*
21,1,0.3380,0.3375,0,0,270.0*
21,1,0.2475,0.4280,0,0,270.0*
1,1,0.0905,-0.1688,-0.1238*
1,1,0.0905,-0.1688,0.1238*
1,1,0.0905,0.1688,0.1238*
1,1,0.0905,0.1688,-0.1238*
%
%ADD108ROUNDEDRECTD108*%
%ADD109R,0.0241X0.0620*%
%ADD110R,0.0870X0.0820*%
%ADD111O,0.0867X0.0237*%
%ADD112R,0.0867X0.0237*%
%ADD113O,0.0237X0.0671*%
%ADD114R,0.0671X0.0180*%
%ADD115R,0.0180X0.0671*%
%ADD116R,0.1045X0.1045*%
%ADD117R,0.0828X0.0867*%
%ADD118R,0.0828X0.0592*%
G04:AMPARAMS|DCode=119|XSize=47.4mil|YSize=43.4mil|CornerRadius=8.4mil|HoleSize=0mil|Usage=FLASHONLY|Rotation=270.000|XOffset=0mil|YOffset=0mil|HoleType=Round|Shape=RoundedRectangle|*
%AMROUNDEDRECTD119*
21,1,0.0474,0.0266,0,0,270.0*
21,1,0.0305,0.0434,0,0,270.0*
1,1,0.0169,-0.0133,-0.0153*
1,1,0.0169,-0.0133,0.0153*
1,1,0.0169,0.0133,0.0153*
1,1,0.0169,0.0133,-0.0153*
%
%ADD119ROUNDEDRECTD119*%
G04:AMPARAMS|DCode=120|XSize=58mil|YSize=58mil|CornerRadius=10.3mil|HoleSize=0mil|Usage=FLASHONLY|Rotation=90.000|XOffset=0mil|YOffset=0mil|HoleType=Round|Shape=RoundedRectangle|*
%AMROUNDEDRECTD120*
21,1,0.0580,0.0375,0,0,90.0*
21,1,0.0375,0.0580,0,0,90.0*
1,1,0.0205,0.0188,0.0188*
1,1,0.0205,0.0188,-0.0188*
1,1,0.0205,-0.0188,-0.0188*
1,1,0.0205,-0.0188,0.0188*
%
%ADD120ROUNDEDRECTD120*%
%ADD121R,0.0631X0.0907*%
G04:AMPARAMS|DCode=122|XSize=47.4mil|YSize=43.4mil|CornerRadius=8.4mil|HoleSize=0mil|Usage=FLASHONLY|Rotation=180.000|XOffset=0mil|YOffset=0mil|HoleType=Round|Shape=RoundedRectangle|*
%AMROUNDEDRECTD122*
21,1,0.0474,0.0266,0,0,180.0*
21,1,0.0305,0.0434,0,0,180.0*
1,1,0.0169,-0.0153,0.0133*
1,1,0.0169,0.0153,0.0133*
1,1,0.0169,0.0153,-0.0133*
1,1,0.0169,-0.0153,-0.0133*
%
%ADD122ROUNDEDRECTD122*%
%ADD123R,0.0790X0.0520*%
%ADD124R,0.1330X0.0880*%
%ADD125R,0.0380X0.0380*%
G04:AMPARAMS|DCode=126|XSize=31.6mil|YSize=47.4mil|CornerRadius=7mil|HoleSize=0mil|Usage=FLASHONLY|Rotation=90.000|XOffset=0mil|YOffset=0mil|HoleType=Round|Shape=RoundedRectangle|*
%AMROUNDEDRECTD126*
21,1,0.0316,0.0335,0,0,90.0*
21,1,0.0177,0.0474,0,0,90.0*
1,1,0.0139,0.0167,0.0089*
1,1,0.0139,0.0167,-0.0089*
1,1,0.0139,-0.0167,-0.0089*
1,1,0.0139,-0.0167,0.0089*
%
%ADD126ROUNDEDRECTD126*%
%ADD127R,0.0217X0.0560*%
%ADD128R,0.1103X0.0832*%
%ADD129R,0.0760X0.0960*%
%ADD130R,0.0580X0.0240*%
%ADD131R,0.1460X0.1690*%
%ADD132R,0.0440X0.0580*%
%ADD133R,0.0440X0.0440*%
%ADD134R,0.0940X0.0720*%
G04:AMPARAMS|DCode=135|XSize=63.1mil|YSize=47.4mil|CornerRadius=8.9mil|HoleSize=0mil|Usage=FLASHONLY|Rotation=0.000|XOffset=0mil|YOffset=0mil|HoleType=Round|Shape=RoundedRectangle|*
%AMROUNDEDRECTD135*
21,1,0.0631,0.0295,0,0,0.0*
21,1,0.0453,0.0474,0,0,0.0*
1,1,0.0178,0.0226,-0.0148*
1,1,0.0178,-0.0226,-0.0148*
1,1,0.0178,-0.0226,0.0148*
1,1,0.0178,0.0226,0.0148*
%
%ADD135ROUNDEDRECTD135*%
%ADD136R,0.0434X0.1537*%
%ADD137R,0.1537X0.0434*%
G04:AMPARAMS|DCode=138|XSize=78.9mil|YSize=53.3mil|CornerRadius=9.7mil|HoleSize=0mil|Usage=FLASHONLY|Rotation=90.000|XOffset=0mil|YOffset=0mil|HoleType=Round|Shape=RoundedRectangle|*
%AMROUNDEDRECTD138*
21,1,0.0789,0.0340,0,0,90.0*
21,1,0.0595,0.0533,0,0,90.0*
1,1,0.0193,0.0170,0.0298*
1,1,0.0193,0.0170,-0.0298*
1,1,0.0193,-0.0170,-0.0298*
1,1,0.0193,-0.0170,0.0298*
%
%ADD138ROUNDEDRECTD138*%
G04:AMPARAMS|DCode=139|XSize=63.1mil|YSize=47.4mil|CornerRadius=8.9mil|HoleSize=0mil|Usage=FLASHONLY|Rotation=90.000|XOffset=0mil|YOffset=0mil|HoleType=Round|Shape=RoundedRectangle|*
%AMROUNDEDRECTD139*
21,1,0.0631,0.0295,0,0,90.0*
21,1,0.0453,0.0474,0,0,90.0*
1,1,0.0178,0.0148,0.0226*
1,1,0.0178,0.0148,-0.0226*
1,1,0.0178,-0.0148,-0.0226*
1,1,0.0178,-0.0148,0.0226*
%
%ADD139ROUNDEDRECTD139*%
%ADD140C,0.0830*%
%ADD141O,0.0630X0.0880*%
%ADD142O,0.0680X0.0880*%
%ADD143O,0.0671X0.0493*%
%ADD144O,0.0493X0.0671*%
%ADD145C,0.0474*%
%ADD146C,0.0671*%
G04:AMPARAMS|DCode=147|XSize=67.1mil|YSize=67.1mil|CornerRadius=11.4mil|HoleSize=0mil|Usage=FLASHONLY|Rotation=0.000|XOffset=0mil|YOffset=0mil|HoleType=Round|Shape=RoundedRectangle|*
%AMROUNDEDRECTD147*
21,1,0.0671,0.0443,0,0,0.0*
21,1,0.0443,0.0671,0,0,0.0*
1,1,0.0228,0.0221,-0.0221*
1,1,0.0228,-0.0221,-0.0221*
1,1,0.0228,-0.0221,0.0221*
1,1,0.0228,0.0221,0.0221*
%
%ADD147ROUNDEDRECTD147*%
G04:AMPARAMS|DCode=148|XSize=86.7mil|YSize=86.7mil|CornerRadius=23.7mil|HoleSize=0mil|Usage=FLASHONLY|Rotation=0.000|XOffset=0mil|YOffset=0mil|HoleType=Round|Shape=RoundedRectangle|*
%AMROUNDEDRECTD148*
21,1,0.0867,0.0394,0,0,0.0*
21,1,0.0394,0.0867,0,0,0.0*
1,1,0.0474,0.0197,-0.0197*
1,1,0.0474,-0.0197,-0.0197*
1,1,0.0474,-0.0197,0.0197*
1,1,0.0474,0.0197,0.0197*
%
%ADD148ROUNDEDRECTD148*%
G04:AMPARAMS|DCode=149|XSize=86.7mil|YSize=67.1mil|CornerRadius=11.4mil|HoleSize=0mil|Usage=FLASHONLY|Rotation=90.000|XOffset=0mil|YOffset=0mil|HoleType=Round|Shape=RoundedRectangle|*
%AMROUNDEDRECTD149*
21,1,0.0867,0.0443,0,0,90.0*
21,1,0.0640,0.0671,0,0,90.0*
1,1,0.0228,0.0221,0.0320*
1,1,0.0228,0.0221,-0.0320*
1,1,0.0228,-0.0221,-0.0320*
1,1,0.0228,-0.0221,0.0320*
%
%ADD149ROUNDEDRECTD149*%
%ADD150O,0.0671X0.0867*%
%ADD151C,0.0980*%
%ADD152C,0.0880*%
%ADD153O,0.0730X0.0980*%
%ADD154C,0.2167*%
%ADD155C,0.0680*%
D48*
X018807Y065669D02*
X018907Y065769D01*
Y065969D01*
X018807Y066069D01*
X018707D01*
X018607Y065969D01*
Y065869D01*
Y065969D01*
X018507Y066069D01*
X018407D01*
X018307Y065969D01*
Y065769D01*
X018407Y065669D01*
X018307Y066269D02*
X018707Y066669D01*
X018907Y066869D02*
Y067269D01*
X018807D01*
X018407Y066869D01*
X018307D01*
Y067469D02*
X018707Y067869D01*
X018307Y068468D02*
Y068069D01*
X018707Y068468D01*
X018807D01*
X018907Y068368D01*
Y068168D01*
X018807Y068069D01*
Y068668D02*
X018907Y068768D01*
Y068968D01*
X018807Y069068D01*
X018407D01*
X018307Y068968D01*
Y068768D01*
X018407Y068668D01*
X018807D01*
X018307Y069268D02*
Y069468D01*
Y069368D01*
X018907D01*
X018807Y069268D01*
X018907Y070168D02*
Y069768D01*
X018607D01*
X018707Y069968D01*
Y070068D01*
X018607Y070168D01*
X018407D01*
X018307Y070068D01*
Y069868D01*
X018407Y069768D01*
X019134Y065630D02*
X019734D01*
Y065930D01*
X019634Y066030D01*
X019434D01*
X019334Y065930D01*
Y065630D01*
Y065830D02*
X019134Y066030D01*
Y066530D02*
Y066330D01*
X019234Y066230D01*
X019434D01*
X019534Y066330D01*
Y066530D01*
X019434Y066630D01*
X019334D01*
Y066230D01*
X019534Y066830D02*
X019134Y067029D01*
X019534Y067229D01*
X019134Y068029D02*
X019534D01*
X019734Y068229D01*
X019534Y068429D01*
X019134D01*
X019434D01*
Y068029D01*
X019921Y065630D02*
X020521D01*
Y065930D01*
X020421Y066030D01*
X020221D01*
X020121Y065930D01*
Y065630D01*
Y065830D02*
X019921Y066030D01*
Y066330D02*
Y066530D01*
X020021Y066630D01*
X020221D01*
X020321Y066530D01*
Y066330D01*
X020221Y066230D01*
X020021D01*
X019921Y066330D01*
X020521Y066830D02*
X019921D01*
Y067129D01*
X020021Y067229D01*
X020121D01*
X020221D01*
X020321Y067129D01*
Y066830D01*
X019921Y067529D02*
Y067729D01*
X020021Y067829D01*
X020221D01*
X020321Y067729D01*
Y067529D01*
X020221Y067429D01*
X020021D01*
X019921Y067529D01*
X020421Y068129D02*
X020321D01*
Y068029D01*
Y068229D01*
Y068129D01*
X020021D01*
X019921Y068229D01*
Y069129D02*
X020521D01*
X020321Y069329D01*
X020521Y069529D01*
X019921D01*
Y069829D02*
Y070029D01*
X020021Y070128D01*
X020221D01*
X020321Y070029D01*
Y069829D01*
X020221Y069729D01*
X020021D01*
X019921Y069829D01*
X020421Y070428D02*
X020321D01*
Y070328D01*
Y070528D01*
Y070428D01*
X020021D01*
X019921Y070528D01*
X020521Y070828D02*
X019921D01*
X020221D01*
X020321Y070928D01*
Y071128D01*
X020221Y071228D01*
X019921D01*
Y071728D02*
Y071528D01*
X020021Y071428D01*
X020221D01*
X020321Y071528D01*
Y071728D01*
X020221Y071828D01*
X020121D01*
Y071428D01*
X020321Y072028D02*
X019921D01*
X020121D01*
X020221Y072128D01*
X020321Y072228D01*
Y072328D01*
X020521Y072628D02*
X019921D01*
Y072928D01*
X020021Y073028D01*
X020121D01*
X020221D01*
X020321Y072928D01*
Y072628D01*
X019921Y073327D02*
Y073527D01*
X020021Y073627D01*
X020221D01*
X020321Y073527D01*
Y073327D01*
X020221Y073227D01*
X020021D01*
X019921Y073327D01*
X020321Y073927D02*
Y074127D01*
X020221Y074227D01*
X019921D01*
Y073927D01*
X020021Y073827D01*
X020121Y073927D01*
Y074227D01*
X020321Y074427D02*
X019921D01*
X020121D01*
X020221Y074527D01*
X020321Y074627D01*
Y074727D01*
X020521Y075427D02*
X019921D01*
Y075127D01*
X020021Y075027D01*
X020221D01*
X020321Y075127D01*
Y075427D01*
D52*
X057165Y045965D02*
Y046284D01*
X057005D01*
X056952Y046231D01*
Y046125D01*
X057005Y046071D01*
X057165D01*
X057059D02*
X056952Y045965D01*
X056845D02*
X056739D01*
X056792D01*
Y046284D01*
X056845Y046231D01*
X056579Y045965D02*
X056472D01*
X056526D01*
Y046284D01*
X056579Y046231D01*
X056312D02*
X056259Y046284D01*
X056152D01*
X056099Y046231D01*
Y046178D01*
X056152Y046125D01*
X056099Y046071D01*
Y046018D01*
X056152Y045965D01*
X056259D01*
X056312Y046018D01*
Y046071D01*
X056259Y046125D01*
X056312Y046178D01*
Y046231D01*
X056259Y046125D02*
X056152D01*
X057126Y050423D02*
Y050743D01*
X056966D01*
X056913Y050690D01*
Y050583D01*
X056966Y050530D01*
X057126D01*
X057019D02*
X056913Y050423D01*
X056806D02*
X056699D01*
X056753D01*
Y050743D01*
X056806Y050690D01*
X056540Y050423D02*
X056433D01*
X056486D01*
Y050743D01*
X056540Y050690D01*
X056060Y050743D02*
X056166Y050690D01*
X056273Y050583D01*
Y050477D01*
X056220Y050423D01*
X056113D01*
X056060Y050477D01*
Y050530D01*
X056113Y050583D01*
X056273D01*
X057116Y048238D02*
Y048558D01*
X056956D01*
X056903Y048505D01*
Y048398D01*
X056956Y048345D01*
X057116D01*
X057010D02*
X056903Y048238D01*
X056796D02*
X056690D01*
X056743D01*
Y048558D01*
X056796Y048505D01*
X056316Y048238D02*
X056530D01*
X056316Y048451D01*
Y048505D01*
X056370Y048558D01*
X056476D01*
X056530Y048505D01*
X056210D02*
X056156Y048558D01*
X056050D01*
X055996Y048505D01*
Y048292D01*
X056050Y048238D01*
X056156D01*
X056210Y048292D01*
Y048505D01*
X057087Y052520D02*
Y052840D01*
X056927D01*
X056873Y052786D01*
Y052680D01*
X056927Y052626D01*
X057087D01*
X056980D02*
X056873Y052520D01*
X056767D02*
X056660D01*
X056713D01*
Y052840D01*
X056767Y052786D01*
X056500Y052520D02*
X056393D01*
X056447D01*
Y052840D01*
X056500Y052786D01*
X056074Y052520D02*
Y052840D01*
X056234Y052680D01*
X056020D01*
X057106Y054774D02*
Y055094D01*
X056946D01*
X056893Y055040D01*
Y054934D01*
X056946Y054880D01*
X057106D01*
X057000D02*
X056893Y054774D01*
X056786D02*
X056680D01*
X056733D01*
Y055094D01*
X056786Y055040D01*
X056520Y054774D02*
X056413D01*
X056467D01*
Y055094D01*
X056520Y055040D01*
X056040Y054774D02*
X056253D01*
X056040Y054987D01*
Y055040D01*
X056093Y055094D01*
X056200D01*
X056253Y055040D01*
X065581Y074370D02*
Y074690D01*
X065421D01*
X065367Y074637D01*
Y074530D01*
X065421Y074477D01*
X065581D01*
X065474D02*
X065367Y074370D01*
X065261D02*
X065154D01*
X065208D01*
Y074690D01*
X065261Y074637D01*
X064994D02*
X064941Y074690D01*
X064834D01*
X064781Y074637D01*
Y074423D01*
X064834Y074370D01*
X064941D01*
X064994Y074423D01*
Y074637D01*
X064674D02*
X064621Y074690D01*
X064514D01*
X064461Y074637D01*
Y074583D01*
X064514Y074530D01*
X064568D01*
X064514D01*
X064461Y074477D01*
Y074423D01*
X064514Y074370D01*
X064621D01*
X064674Y074423D01*
X065512Y073465D02*
Y073784D01*
X065352D01*
X065299Y073731D01*
Y073625D01*
X065352Y073571D01*
X065512D01*
X065405D02*
X065299Y073465D01*
X065192D02*
X065085D01*
X065139D01*
Y073784D01*
X065192Y073731D01*
X064925D02*
X064872Y073784D01*
X064765D01*
X064712Y073731D01*
Y073518D01*
X064765Y073465D01*
X064872D01*
X064925Y073518D01*
Y073731D01*
X064605Y073784D02*
X064392D01*
Y073731D01*
X064605Y073518D01*
Y073465D01*
X029360Y070276D02*
Y070595D01*
X029200D01*
X029147Y070542D01*
Y070436D01*
X029200Y070382D01*
X029360D01*
X029254D02*
X029147Y070276D01*
X029040D02*
X028934D01*
X028987D01*
Y070595D01*
X029040Y070542D01*
X028774D02*
X028720Y070595D01*
X028614D01*
X028561Y070542D01*
Y070329D01*
X028614Y070276D01*
X028720D01*
X028774Y070329D01*
Y070542D01*
X028241Y070595D02*
X028454D01*
Y070436D01*
X028347Y070489D01*
X028294D01*
X028241Y070436D01*
Y070329D01*
X028294Y070276D01*
X028401D01*
X028454Y070329D01*
X025266Y070256D02*
Y070576D01*
X025106D01*
X025052Y070522D01*
Y070416D01*
X025106Y070363D01*
X025266D01*
X025159D02*
X025052Y070256D01*
X024946D02*
X024839D01*
X024893D01*
Y070576D01*
X024946Y070522D01*
X024679D02*
X024626Y070576D01*
X024519D01*
X024466Y070522D01*
Y070309D01*
X024519Y070256D01*
X024626D01*
X024679Y070309D01*
Y070522D01*
X024359Y070309D02*
X024306Y070256D01*
X024199D01*
X024146Y070309D01*
Y070522D01*
X024199Y070576D01*
X024306D01*
X024359Y070522D01*
Y070469D01*
X024306Y070416D01*
X024146D01*
X029094Y070866D02*
Y071186D01*
X028935D01*
X028881Y071133D01*
Y071026D01*
X028935Y070973D01*
X029094D01*
X028988D02*
X028881Y070866D01*
X028775Y070919D02*
X028721Y070866D01*
X028615D01*
X028561Y070919D01*
Y071133D01*
X028615Y071186D01*
X028721D01*
X028775Y071133D01*
Y071079D01*
X028721Y071026D01*
X028561D01*
X028455Y071133D02*
X028401Y071186D01*
X028295D01*
X028241Y071133D01*
Y071079D01*
X028295Y071026D01*
X028241Y070973D01*
Y070919D01*
X028295Y070866D01*
X028401D01*
X028455Y070919D01*
Y070973D01*
X028401Y071026D01*
X028455Y071079D01*
Y071133D01*
X028401Y071026D02*
X028295D01*
X025266Y070856D02*
Y071176D01*
X025106D01*
X025052Y071123D01*
Y071016D01*
X025106Y070963D01*
X025266D01*
X025159D02*
X025052Y070856D01*
X024946D02*
X024839D01*
X024893D01*
Y071176D01*
X024946Y071123D01*
X024679D02*
X024626Y071176D01*
X024519D01*
X024466Y071123D01*
Y070910D01*
X024519Y070856D01*
X024626D01*
X024679Y070910D01*
Y071123D01*
X024359Y070856D02*
X024253D01*
X024306D01*
Y071176D01*
X024359Y071123D01*
X025157Y076988D02*
Y077308D01*
X024998D01*
X024944Y077255D01*
Y077148D01*
X024998Y077095D01*
X025157D01*
X025051D02*
X024944Y076988D01*
X024838D02*
X024731D01*
X024784D01*
Y077308D01*
X024838Y077255D01*
X024571D02*
X024518Y077308D01*
X024411D01*
X024358Y077255D01*
Y077042D01*
X024411Y076988D01*
X024518D01*
X024571Y077042D01*
Y077255D01*
X024038Y076988D02*
X024251D01*
X024038Y077201D01*
Y077255D01*
X024091Y077308D01*
X024198D01*
X024251Y077255D01*
X025167Y074793D02*
Y075113D01*
X025007D01*
X024954Y075060D01*
Y074953D01*
X025007Y074900D01*
X025167D01*
X025061D02*
X024954Y074793D01*
X024847D02*
X024741D01*
X024794D01*
Y075113D01*
X024847Y075060D01*
X024581Y074793D02*
X024474D01*
X024528D01*
Y075113D01*
X024581Y075060D01*
X024314D02*
X024261Y075113D01*
X024154D01*
X024101Y075060D01*
Y074847D01*
X024154Y074793D01*
X024261D01*
X024314Y074847D01*
Y075060D01*
X027915Y076953D02*
Y077272D01*
X027755D01*
X027702Y077219D01*
Y077113D01*
X027755Y077059D01*
X027915D01*
X027809D02*
X027702Y076953D01*
X027595Y077006D02*
X027542Y076953D01*
X027435D01*
X027382Y077006D01*
Y077219D01*
X027435Y077272D01*
X027542D01*
X027595Y077219D01*
Y077166D01*
X027542Y077113D01*
X027382D01*
X027275Y077272D02*
X027062D01*
Y077219D01*
X027275Y077006D01*
Y076953D01*
X029331Y074803D02*
Y075123D01*
X029171D01*
X029117Y075070D01*
Y074963D01*
X029171Y074910D01*
X029331D01*
X029224D02*
X029117Y074803D01*
X029011D02*
X028904D01*
X028957D01*
Y075123D01*
X029011Y075070D01*
X028744D02*
X028691Y075123D01*
X028584D01*
X028531Y075070D01*
Y074856D01*
X028584Y074803D01*
X028691D01*
X028744Y074856D01*
Y075070D01*
X028211Y075123D02*
X028318Y075070D01*
X028424Y074963D01*
Y074856D01*
X028371Y074803D01*
X028264D01*
X028211Y074856D01*
Y074910D01*
X028264Y074963D01*
X028424D01*
X027982Y061073D02*
Y061393D01*
X027822D01*
X027769Y061339D01*
Y061233D01*
X027822Y061179D01*
X027982D01*
X027876D02*
X027769Y061073D01*
X027662Y061126D02*
X027609Y061073D01*
X027502D01*
X027449Y061126D01*
Y061339D01*
X027502Y061393D01*
X027609D01*
X027662Y061339D01*
Y061286D01*
X027609Y061233D01*
X027449D01*
X027129Y061073D02*
X027342D01*
X027129Y061286D01*
Y061339D01*
X027183Y061393D01*
X027289D01*
X027342Y061339D01*
X026654Y061388D02*
X026973D01*
Y061548D01*
X026920Y061601D01*
X026813D01*
X026760Y061548D01*
Y061388D01*
Y061494D02*
X026654Y061601D01*
X026707Y061708D02*
X026654Y061761D01*
Y061868D01*
X026707Y061921D01*
X026920D01*
X026973Y061868D01*
Y061761D01*
X026920Y061708D01*
X026867D01*
X026813Y061761D01*
Y061921D01*
X026654Y062028D02*
Y062134D01*
Y062081D01*
X026973D01*
X026920Y062028D01*
X026073Y061329D02*
X026393D01*
Y061489D01*
X026339Y061542D01*
X026233D01*
X026179Y061489D01*
Y061329D01*
Y061435D02*
X026073Y061542D01*
X026339Y061649D02*
X026393Y061702D01*
Y061809D01*
X026339Y061862D01*
X026286D01*
X026233Y061809D01*
X026179Y061862D01*
X026126D01*
X026073Y061809D01*
Y061702D01*
X026126Y061649D01*
X026179D01*
X026233Y061702D01*
X026286Y061649D01*
X026339D01*
X026233Y061702D02*
Y061809D01*
X026339Y061969D02*
X026393Y062022D01*
Y062128D01*
X026339Y062182D01*
X026286D01*
X026233Y062128D01*
X026179Y062182D01*
X026126D01*
X026073Y062128D01*
Y062022D01*
X026126Y061969D01*
X026179D01*
X026233Y062022D01*
X026286Y061969D01*
X026339D01*
X026233Y062022D02*
Y062128D01*
X027965Y060490D02*
Y060810D01*
X027805D01*
X027751Y060757D01*
Y060650D01*
X027805Y060597D01*
X027965D01*
X027858D02*
X027751Y060490D01*
X027645Y060757D02*
X027591Y060810D01*
X027485D01*
X027431Y060757D01*
Y060703D01*
X027485Y060650D01*
X027431Y060597D01*
Y060543D01*
X027485Y060490D01*
X027591D01*
X027645Y060543D01*
Y060597D01*
X027591Y060650D01*
X027645Y060703D01*
Y060757D01*
X027591Y060650D02*
X027485D01*
X027325Y060810D02*
X027111D01*
Y060757D01*
X027325Y060543D01*
Y060490D01*
X027963Y059931D02*
Y060251D01*
X027803D01*
X027749Y060198D01*
Y060091D01*
X027803Y060038D01*
X027963D01*
X027856D02*
X027749Y059931D01*
X027643Y060198D02*
X027589Y060251D01*
X027483D01*
X027429Y060198D01*
Y060144D01*
X027483Y060091D01*
X027429Y060038D01*
Y059984D01*
X027483Y059931D01*
X027589D01*
X027643Y059984D01*
Y060038D01*
X027589Y060091D01*
X027643Y060144D01*
Y060198D01*
X027589Y060091D02*
X027483D01*
X027323Y060198D02*
X027269Y060251D01*
X027163D01*
X027110Y060198D01*
Y060144D01*
X027163Y060091D01*
X027216D01*
X027163D01*
X027110Y060038D01*
Y059984D01*
X027163Y059931D01*
X027269D01*
X027323Y059984D01*
X025480Y061260D02*
X025800D01*
Y061420D01*
X025746Y061474D01*
X025640D01*
X025586Y061420D01*
Y061260D01*
Y061367D02*
X025480Y061474D01*
X025746Y061580D02*
X025800Y061634D01*
Y061740D01*
X025746Y061793D01*
X025693D01*
X025640Y061740D01*
X025586Y061793D01*
X025533D01*
X025480Y061740D01*
Y061634D01*
X025533Y061580D01*
X025586D01*
X025640Y061634D01*
X025693Y061580D01*
X025746D01*
X025640Y061634D02*
Y061740D01*
X025480Y062060D02*
X025800D01*
X025640Y061900D01*
Y062113D01*
X024902Y061358D02*
X025221D01*
Y061518D01*
X025168Y061572D01*
X025062D01*
X025008Y061518D01*
Y061358D01*
Y061465D02*
X024902Y061572D01*
X025168Y061678D02*
X025221Y061731D01*
Y061838D01*
X025168Y061891D01*
X025115D01*
X025062Y061838D01*
X025008Y061891D01*
X024955D01*
X024902Y061838D01*
Y061731D01*
X024955Y061678D01*
X025008D01*
X025062Y061731D01*
X025115Y061678D01*
X025168D01*
X025062Y061731D02*
Y061838D01*
X025168Y061998D02*
X025221Y062051D01*
Y062158D01*
X025168Y062211D01*
X024955D01*
X024902Y062158D01*
Y062051D01*
X024955Y061998D01*
X025168D01*
X027913Y059429D02*
Y059749D01*
X027753D01*
X027700Y059696D01*
Y059589D01*
X027753Y059536D01*
X027913D01*
X027807D02*
X027700Y059429D01*
X027593Y059749D02*
X027380D01*
Y059696D01*
X027593Y059482D01*
Y059429D01*
X027274Y059482D02*
X027220Y059429D01*
X027114D01*
X027060Y059482D01*
Y059696D01*
X027114Y059749D01*
X027220D01*
X027274Y059696D01*
Y059642D01*
X027220Y059589D01*
X027060D01*
D84*
X057745Y048556D02*
X057865D01*
X057745Y048236D02*
X057865D01*
X057745Y046302D02*
X057865D01*
X057745Y045982D02*
X057865D01*
X057755Y050741D02*
X057875D01*
X057755Y050421D02*
X057875D01*
X057745Y052867D02*
X057865D01*
X057745Y052547D02*
X057865D01*
X057725Y055081D02*
X057845D01*
X057725Y054761D02*
X057845D01*
X025777Y074801D02*
X025897D01*
X025777Y075121D02*
X025897D01*
X025875Y070204D02*
X025995D01*
X025875Y070524D02*
X025995D01*
X064881Y074215D02*
X065001D01*
X064881Y073895D02*
X065001D01*
X027430Y075130D02*
X027550D01*
X027430Y074810D02*
X027550D01*
X027499Y070554D02*
X027619D01*
X027499Y070234D02*
X027619D01*
X064910Y075180D02*
X065030D01*
X064910Y074860D02*
X065030D01*
X025806Y076996D02*
X025926D01*
X025806Y077316D02*
X025926D01*
X025895Y070864D02*
X026015D01*
X025895Y071184D02*
X026015D01*
X027509D02*
X027629D01*
X027509Y070864D02*
X027629D01*
X028562Y077325D02*
X028682D01*
X028562Y077005D02*
X028682D01*
X028542Y061390D02*
X028662D01*
X028542Y061070D02*
X028662D01*
X026981Y060639D02*
Y060759D01*
X026661Y060639D02*
Y060759D01*
X026402Y060631D02*
Y060751D01*
X026082Y060631D02*
Y060751D01*
X028542Y060819D02*
X028662D01*
X028542Y060499D02*
X028662D01*
X025810Y060639D02*
Y060759D01*
X025490Y060639D02*
Y060759D01*
X028542Y060258D02*
X028662D01*
X028542Y059938D02*
X028662D01*
X025219Y060609D02*
Y060729D01*
X024899Y060609D02*
Y060729D01*
X028542Y059717D02*
X028662D01*
X028542Y059397D02*
X028662D01*
X073022Y075560D02*
Y077590D01*
X052962Y075560D02*
X073022D01*
X052962D02*
Y077590D01*
X073022D01*
X053542Y075123D02*
X053514Y075137D01*
X053471Y075180D01*
Y074880D01*
X072694Y075180D02*
X072537D01*
X072622Y075066D01*
X072579D01*
X072551Y075051D01*
X072537Y075037D01*
X072522Y074994D01*
Y074966D01*
X072537Y074923D01*
X072565Y074894D01*
X072608Y074880D01*
X072651D01*
X072694Y074894D01*
X072708Y074909D01*
X072722Y074937D01*
X072270Y075080D02*
X072284Y075037D01*
X072312Y075009D01*
X072355Y074994D01*
X072370D01*
X072412Y075009D01*
X072441Y075037D01*
X072455Y075080D01*
Y075094D01*
X072441Y075137D01*
X072412Y075166D01*
X072370Y075180D01*
X072355D01*
X072312Y075166D01*
X072284Y075137D01*
X072270Y075080D01*
Y075009D01*
X072284Y074937D01*
X072312Y074894D01*
X072355Y074880D01*
X072384D01*
X072427Y074894D01*
X072441Y074923D01*
M02*
