M48
;Layer_Color=9474304
;FILE_FORMAT=2:4
INCH
;TYPE=PLATED
T1F00S00C0.0130
T2F00S00C0.0150
T3F00S00C0.0197
T4F00S00C0.0200
T5F00S00C0.0276
T6F00S00C0.0350
T7F00S00C0.0394
T8F00S00C0.0400
T9F00S00C0.0420
T10F00S00C0.0500
T11F00S00C0.1083
%
T01
X020906Y039370
X021181Y039094
X021398Y042815
X021555Y044594
Y044889
Y045185
X021457Y046031
X021811
X022165
X022829Y046038
X024114Y046063
Y045768
Y045472
Y046358
Y046654
X023819
Y046358
X024508
Y046654
X024902
Y046358
Y046063
X024508
X026279Y046058
X026699Y046018
X027264Y045578
Y045283
Y044988
Y044693
Y044397
Y044102
X027470Y042843
X028484Y044594
Y044889
Y045185
X028386Y046031
X028740
X029094
X029758Y046038
X031031Y046094
Y045798
Y046389
X030736
Y046684
X031031
X027380Y046428
X031437Y046358
Y046654
X031831
Y046358
Y046063
X031437
X033208Y046058
X033628Y046018
X034193Y045578
Y045283
Y044988
Y044693
Y044397
Y044102
X034324Y042874
X035413Y044594
Y044889
Y045185
X035315Y046031
X035669
X036024
X036687Y046038
X037921Y046094
Y045798
Y046389
X037626
Y046684
X037921
X038386Y046654
Y046358
Y046063
X038760
Y046358
Y046654
X040137Y046058
X040557Y046018
X041122Y045578
Y045283
Y044988
Y044693
Y044397
Y044102
X041220Y042884
X042343Y044594
Y044889
Y045185
X042382Y046033
X042667
X042953Y046031
X043616Y046038
X044909Y046094
Y045798
Y046389
X044614
Y046684
X044909
X045295Y046654
Y046358
Y046063
X045689
Y046358
Y046654
X041238Y046428
X034309Y046428
X047066Y046058
X047486Y046018
X048095Y046356
X048051Y045578
Y045283
Y044988
Y044693
Y044397
Y044102
X053976Y044213
Y043898
Y043583
X054843
Y043898
Y044213
Y044532
Y044828
Y045118
X054409
X053976
Y044828
Y044532
X056850
Y044828
Y045118
X057283
X057717
Y044828
Y044532
Y044213
Y043898
Y043583
X056850
Y043898
Y044213
X059803
Y043898
Y043583
X060669
Y043898
Y044213
Y044532
Y044828
Y045118
X060236
X059803
Y044828
Y044532
X062024Y046732
X062339
X062654
X062972
X063269
X063559
X063622Y045118
Y044828
Y044532
Y044213
Y043898
Y043583
X062756
Y043898
Y044213
Y044532
Y044828
Y045118
X063189
X065709Y045118
Y044828
Y044532
Y044213
Y043898
Y043583
X066575
Y043898
Y044213
Y044532
Y044828
Y045118
X066142
X066674Y046334
Y046654
X067007Y046339
X067520Y046024
X068386
X071063Y045945
X071339
X071614
X071890
X072165
X072441
X072717
X072985
Y045630
X072717
X072441
X072165
X071890
X071614
X071339
X071063
Y045315
X071339
X071614
X071890
X072165
X072441
X072717
X072985
Y045000
X072717
X072441
X072165
X071890
X071614
X071339
X071063
Y044685
X071339
X071614
X071890
X072165
X072441Y044693
X072717Y044685
X072985
X073504Y044685
X073819
X074116
Y044293
Y043898
Y043504
Y043110
Y042717
Y042323
Y041929
Y041535
X073819
X073504
X071614Y043386
X071339
X071056
X070748
Y043701
X071056
X071339
X071614
Y044370
X071339
X071063
Y046457
X071457
X071850
Y046850
X071457
X071063
Y047244
X071457
X071850
X071457Y047638
X071063
Y048032
X071457
Y048425
X071063
Y048819
Y049213
X071457
Y048819
X071850Y048622
X070669Y048425
X070276
Y048819
Y049213
X070669
Y048819
Y048032
X070276
Y047638
X070669
Y047244
X070276
X067333Y047303
X067007Y047323
X066674Y047323
Y046982
X067007Y046954
X067354Y046972
X067333Y047673
Y047992
X067007
Y047677
X066674Y047673
Y048022
Y048346
X067007
X067333Y048341
X066674Y048692
X066010Y049086
X065591Y049094
X065000Y049291
X064331Y049055
X063583Y049606
X063293
X062996
X062677
Y050472
X062996
X063293
X063583
Y050039
X063780Y050984
Y051274
Y051571
Y051890
Y052205
Y052520
X062913
Y052205
Y051890
Y051571
Y051274
Y050984
X063346
X065945
Y051274
Y051571
Y051890
Y052205
Y052520
X066811
Y052205
Y051890
Y051571
Y051274
Y050984
X066378
X070669Y050394
Y050000
X071063
X071457
Y050394
X071063
X071033Y052343
X070640
Y052736
X071033
X071427
Y052343
Y053130
Y053524
Y053917
Y054311
X071033
X070640
Y053917
X071033
Y053524
X070640
Y053130
X071033
X073455Y053140
X073848
Y052746
X073455
Y052352
X073848
X074242
Y052746
Y053140
Y053533
X073848
X073455
Y053927
X073848
Y054321
X073455
X074242
Y053927
X074213Y050394
X073819
X073425
Y050000
X073819
X074213
Y049213
X073819
X073425
X073228Y048819
X073937Y048543
X074213
X074488
X074764
Y048268
Y047992
Y047717
Y047441
X074488
X074213
X073937
X063559Y047598
X063269
X062972
X062654
X063559Y047165
X063573Y055738
X063110Y055423
X064518Y055571
X065404Y055207
X063386Y060364
X070350Y060353
Y060038
Y059723
Y059404
Y059108
Y058818
X070783
X071216
Y059108
Y059404
Y059723
Y060038
Y060353
X061051Y060827
X060039
X060315Y062205
X059567Y058976
X059409Y058346
X058228Y057165
Y056486
X057795Y056014
X058780Y056075
X060276Y055679
X061654Y055659
X057638Y056929
X057283Y056772
X057008Y057402
X054754Y057527
X054547Y057904
X050532Y058967
X050610Y059409
X050709Y060364
X050691Y060810
X050699Y061191
X050701Y061597
X050689Y061978
X048819Y060394
X048701Y059468
X048524Y058531
X047283Y058000
Y057606
Y057291
Y057015
Y056700
Y056386
X047244Y055598
X047520
X047795
X047992Y055401
X048032Y055086
Y054771
Y054456
X047795Y054260
X047480
X047461Y048630
X047756
X048051Y048531
Y048236
Y047941
Y047645
Y047350
X047165Y048630
X062047Y049606
X062362
Y050472
X062047
X062024Y047598
X062339
X056220Y062372
X046496Y058949
X046378Y058000
Y057606
Y057291
Y057015
Y056700
Y056386
X046260Y055598
X046024Y055401
X045827Y055204
X045669Y054929
Y054614
X045906Y054417
X046181Y054260
X045532Y052402
Y051801
X044911Y051791
Y052402
X044459Y050879
X043777Y050800
X043583Y049614
Y049299
X043465Y049023
X043189
X042913
X042638
X042343
X042343Y049282
X042346Y049537
X041122Y048531
Y048236
Y047941
Y047645
Y047350
X040827Y048630
X040532
X040236
X039941
X039646
X039350
X038543Y049252
X038305Y049698
X037950Y050052
X037911Y048950
X037360Y048989
X036535Y049023
X036260
X035984
X035709
X035413
X035315Y049319
Y049614
X036654
Y049299
X036848Y050800
X037530Y050879
X037982Y051791
Y052402
X038602
Y051801
X038740Y054614
Y054929
X038898Y055204
X039094Y055401
X039331Y055598
X039449Y056386
Y056700
Y057015
Y057291
Y057606
Y058000
X039921
X040354
Y057606
Y057291
Y057015
Y056700
Y056386
X040315Y055598
X040591
X040866
X041063Y055401
X041102Y055086
Y054771
Y054456
X040866Y054260
X040551
X039252
X038976Y054417
X036693Y053748
Y053452
X036476Y053927
X036181
X035866
X035551
X035315Y053730
Y053452
X034173Y054456
Y054771
Y055086
X034134Y055401
X033937Y055598
X033661
X033386
X033425Y056386
Y056700
Y057015
Y057291
Y057606
Y058000
X032992
X032520
Y057606
Y057291
Y057015
Y056700
Y056386
X032402Y055598
X032165Y055401
X031969Y055204
X031811Y054929
Y054614
X032047Y054417
X032323Y054260
X033622
X033937
X031673Y052402
Y051801
X031376Y049698
X031599Y049304
X032421Y048630
X032717
X033012
X033307
X033602
X033898
X034193Y048531
Y048236
Y047941
Y047645
Y047350
X031562Y047106
X037605Y047303
X037990Y047139
X038491Y047106
X044534Y047303
X044919Y047139
X045420Y047106
X045472Y049252
X045234Y049698
X044880Y050052
X044840Y048950
X044289Y048989
X046280Y048630
X046575
X046870
X043622Y053452
Y053748
X043425Y053945
X043130
X042795Y053937
X042520
X042244Y053740
Y053452
X042402Y057449
X042520Y058590
X041811Y058976
X040925Y059090
X039803Y059124
X039675Y060768
X039333Y062296
X039030Y062035
X038191Y062493
X038179Y059590
X035866
X035925Y060640
X036222Y060908
X035591Y058590
X034882Y058984
X033307Y058661
X033072Y059383
X031407Y060591
X035472Y057449
X042717Y059693
X044291Y060233
X044488Y058661
X046850Y058000
X031191Y058829
X028673Y058576
X027916Y058991
X028543Y057449
X026496Y057291
Y057015
Y056700
Y056386
X026457Y055598
X026732
X027008
X027205Y055401
X027244Y055086
Y054771
Y054456
X026949Y054419
X026614Y054429
X025472Y054409
X025118Y054417
X024882Y054614
Y054929
X025039Y055204
X025236Y055401
X025472Y055598
X025591Y056386
Y056700
Y057015
Y057291
Y057606
Y058000
X026063
X026496
Y057606
X025907Y058536
X024173Y059331
X023298Y059757
X022905Y059727
X021929Y059693
X021732Y058590
X021024Y058622
X021614Y057449
X019260Y057228
X018583Y057283
X018386Y056693
X018307Y058032
X018583Y058622
X019260Y058567
X019252Y059961
X018661Y060039
X018425Y059331
X017362Y060748
Y061181
X017677Y061535
X018032Y061673
X019391Y061981
X019567Y062323
X020866Y062441
X020620Y061772
X021313Y061703
X022963Y061348
X023898Y061654
X024557Y061634
X024537Y060876
X024045Y056929
X022835Y053748
Y053452
X022598Y053927
X022323
X022008
X021732
X021457Y053730
Y053452
X024124Y052402
Y051791
X024744Y051801
Y052402
X023671Y050879
X022990Y050800
X022795Y049614
Y049299
X022677Y049023
X022402
X022126
X021850
X021555
X021457Y049319
Y049614
X023502Y048989
X024053Y048950
X024685Y049252
X024446Y049698
X024092Y050052
X025492Y048630
X025787
X026083
X026378
X026673
X026969
X027264Y048531
Y048236
Y047941
Y047645
Y047350
X024633Y047106
X024131Y047139
X023747Y047303
X028484Y049023
X028780
X029055
X029331
X029606
X029724Y049299
Y049614
X030431Y048989
X030982Y048950
X031021Y050052
X030600Y050879
X029919Y050800
X031053Y051791
Y052402
X029764Y053452
Y053730
X029528Y053927
X029252
X028976
X028701
X028386Y053730
Y053452
Y049614
Y049319
X030676Y047303
X031061Y047139
X017323Y047244
Y047638
X019409Y061024
X027835Y062205
X028228Y061929
X028504Y061653
X029303Y061607
X030248Y061696
X030719Y061713
X031181Y062254
X029882Y060354
X029213Y063346
X029252Y064055
X029764Y064055
X030177Y064075
X030276Y063661
X031053Y063626
X030748Y064016
X030472Y065571
X030000Y065157
X029193Y065532
X029094Y066142
X028474Y065256
X027756Y065128
X027037Y065108
X027096Y064449
X027736Y064370
X028425Y064331
X027795Y062598
X026417
X026142Y062874
X025961Y063230
X025581Y063337
X025474Y063717
X025108Y063888
X024785Y064107
X024537Y064449
X024419Y065246
Y065866
X024774Y066063
X024667Y066726
X023189Y066732
X023297Y067146
X022480Y067283
Y066929
X022362Y068504
Y068819
X024567Y068701
X024685Y068307
X027165Y067323
X027205Y066757
X028387Y069826
X030650Y068396
X030896Y074213
X030837Y074833
X030020Y074459
X030069Y076329
X024459Y073159
X020866Y066850
X020433
X019291Y065315
X019537Y064075
X020463Y063976
X021185Y063500
X021220Y063110
X020906Y062835
X019843Y063110
X019685Y062716
X018642Y063317
X018622Y063740
X016968Y064016
X022254Y064075
X022224Y063583
X031673Y063635
X031811Y065551
X033996Y063262
X034167Y062890
X034546
X034958
X035039Y063323
X035817Y062687
X038209Y063396
X038122Y063852
X039409Y063081
X039291Y062677
X040236Y063189
X040590Y062992
X041378Y063189
X041732Y063032
X042657Y063150
X043002Y062844
X043858Y063150
X044252Y063110
X045079Y063149
X045455Y062970
X046378Y063189
X046693Y062953
X044446Y070866
X041882Y070633
X039439Y070856
X038760Y073927
X037648Y074528
X037835Y076220
X040295Y076309
X040195Y074488
X041161Y073925
X042313Y074488
X042844Y075433
X042894Y076309
X045404Y076112
X045010Y075335
X046506Y074409
X036378Y073543
X035079Y074537
X035177Y076260
X032589Y076398
X032570Y075112
X033514Y073419
X034232Y070630
X035108Y071014
X031769Y070561
X047057Y070866
X049658Y070840
X050699Y070896
Y071329
X051024Y071309
X051043Y071732
X050689
Y072106
X051762Y071673
X052500Y071388
X052825Y071368
X052835Y070935
X052500Y070955
X052736Y070561
X052707Y070246
X052599Y069862
X053779Y067913
X054882Y068071
X055905Y067953
X056654Y069016
X057205
Y071260
X056654Y071014
X055374Y071073
X055827Y073386
X056459Y073419
X058189Y073307
X058917Y073366
X060551Y073307
X061309Y073356
X061919Y074675
X060591Y074764
X061551Y070559
X061535Y068701
X062008Y068701
X062401Y068701
X061024
X059248Y070514
X058097Y070669
X057953Y065394
X057559
X057047Y065394
X056654Y065394
X058346Y065386
X058740Y065374
X059134Y065394
X059606Y065415
Y066299
X060423Y063740
X060512Y063110
X058150Y063228
X058022Y063740
X055652Y063783
X053543Y063118
X052640Y063458
X052089Y063596
X051705Y063714
X051919Y062726
X053102Y064606
X053031Y065000
X053507Y064525
X051929Y065896
X050010Y065677
X049646Y065669
X049291
X048937
X048396Y067618
X047766Y067835
X047955Y063320
X048221Y063044
X047982Y062736
X048297Y062500
X048051Y074596
X048435Y075404
X047992Y076080
X050718Y075532
X050945Y075236
X051112Y074882
X050758Y074892
X051417Y075118
X051791
X052195Y075128
X052333Y075472
X050069Y074380
X062992Y075039
X063780Y074972
X063905Y073559
X063537Y073389
X062880Y073307
X065275Y073346
X065968Y073399
X067618Y073307
X068261Y073389
X070000Y073346
X070643Y073360
X072362Y073307
X073071Y073327
X073032Y075167
X073524Y075098
X069173Y074961
X068543Y074921
X066811
X066280
X066102Y071142
X066772Y071339
X067224Y071053
X068543Y071378
X069094
X069587Y071142
X070945Y070669
X071378Y071535
X071949Y071171
X073317Y070561
X073917Y070482
X073504Y067992
X073214
X072917
X072598
X072283
X071968
Y067126
X072283
X072598
X072917
X073214
X073504
Y067559
X069006Y068238
X068976Y068701
X067297Y068225
X067293Y067589
X066667Y068950
X065482Y068809
X064294Y069049
X063281Y068852
X063780Y070827
X064331Y071260
X065200Y070611
X068150Y065906
X068504
X068858
X062848Y063704
X062856Y063032
T02
X054764Y058307
Y058740
X055236Y058307
X055669
X056299
X057008
X057021Y058740
X059055Y059449
X060461Y060501
X029360Y061112
X023865Y060871
X018022Y060217
X046752Y067510
X055394Y068071
X068236Y068945
X070925Y071358
X071216Y075079
X070630Y075079
X065732Y074984
X066027Y074010
T03
X048622Y054016
Y054486
Y054951
Y055423
Y055896
X049318
Y055423
Y054951
Y054486
Y054016
X050014
Y054486
Y054951
Y055423
Y055896
X050709
Y055423
Y054951
Y054486
Y054016
X051405
Y054486
Y054951
Y055423
Y055896
X052101
Y055423
Y054951
Y054486
Y054016
X052797
Y054486
Y054951
Y055423
Y055896
X053492
Y055423
Y054951
Y054486
Y054016
X067717Y065906
T04
X068386Y051811
Y052283
X068780Y051614
X069213
X069646
X070039Y051850
Y052283
X025512Y072677
Y073228
X054449Y070000
T05
X018189Y042087
Y042874
Y045493
Y046281
X023144Y042357
X023932
X024719
X025506Y042337
Y040389
X024719
X023932
X023144
X030073Y040409
X030861
Y042377
X030073
X031648
X032436Y042357
Y040409
X031648
X037008Y040413
X037795
X038583
X039370
Y042362
X038583Y042382
X037795
X037008
X043976Y042402
X044764
X045551
X046339Y042382
Y040433
X045551
X044764
X043976
X056614Y046956
X057402
X058189
Y049200
X057402
X056614
Y051365
X057402
X058189
Y053530
X057402
X056614
Y055696
X057402
X058189
X018189Y052913
Y052126
Y049567
Y048780
X021024Y069643
X021811
X022598
Y071890
X021811
X021024
X020999Y074134
X021786
X022573
Y076378
X021786
X020999
X025512
X026299
X027087
X027874
Y074134
X027087
X026299
X025512
Y071890
X026299
X027087
X027874
Y069646
X027087
X026299
X025512
T06
X047638Y039488
X059551Y046206
T07
X022573Y042968
X029503Y042988
X036437Y042992
X043406Y043012
X053681Y039567
X054665
X056831
X057815
X059980
X060965
X063130
X064114
X066280
X067264
X069429
X070413
T08
X062551Y061283
X063551
X064551
X065551
X061551
X060551
X059551
X058551
X057551
X056551
X055551
X054551
X057051Y062433
X058051
X061051
X062051
X036409Y062118
X035409
X034409
X033409
X032409
Y068118
X033409
X034409
X035409
X036409
X054551Y067283
X055551
X056551
X057551
X058551
X059551
X060551
X061551
X062551
X063551
X064551
X065551
T09
X053492Y076080
X054492
X055492
X056492
X057492
X058492
X059492
X060492
X061492
X062492
Y077080
X061492
X060492
X059492
X058492
X057492
X056492
X055492
X054492
X053492
X063492
Y076080
X064492
X065492
X066492
X067492
X068492
X069492
X070492
X071492
X072492
Y077080
X071492
X070492
X069492
X068492
X067492
X066492
X065492
X064492
T10
X020965Y042126
X027881Y042087
X034813Y041968
X041722Y042087
X041703Y052933
X034796Y052982
X027864Y052923
X020945Y052795
T11
X018110Y040157
X051575
X074409
Y057283
X051575
X018898Y055118
X018110Y076575
X051575
X074409
M30
