%FSAX24Y24*%
%MOIN*%
G70*
G01*
G75*
G04 Layer_Color=16711935*
%ADD10O,0.0709X0.0138*%
G04:AMPARAMS|DCode=11|XSize=50mil|YSize=50mil|CornerRadius=6.3mil|HoleSize=0mil|Usage=FLASHONLY|Rotation=90.000|XOffset=0mil|YOffset=0mil|HoleType=Round|Shape=RoundedRectangle|*
%AMROUNDEDRECTD11*
21,1,0.0500,0.0375,0,0,90.0*
21,1,0.0375,0.0500,0,0,90.0*
1,1,0.0125,0.0188,0.0188*
1,1,0.0125,0.0188,-0.0188*
1,1,0.0125,-0.0188,-0.0188*
1,1,0.0125,-0.0188,0.0188*
%
%ADD11ROUNDEDRECTD11*%
%ADD12R,0.0354X0.1457*%
G04:AMPARAMS|DCode=13|XSize=55.1mil|YSize=39.4mil|CornerRadius=4.9mil|HoleSize=0mil|Usage=FLASHONLY|Rotation=270.000|XOffset=0mil|YOffset=0mil|HoleType=Round|Shape=RoundedRectangle|*
%AMROUNDEDRECTD13*
21,1,0.0551,0.0295,0,0,270.0*
21,1,0.0453,0.0394,0,0,270.0*
1,1,0.0098,-0.0148,-0.0226*
1,1,0.0098,-0.0148,0.0226*
1,1,0.0098,0.0148,0.0226*
1,1,0.0098,0.0148,-0.0226*
%
%ADD13ROUNDEDRECTD13*%
G04:AMPARAMS|DCode=14|XSize=39.4mil|YSize=35.4mil|CornerRadius=4.4mil|HoleSize=0mil|Usage=FLASHONLY|Rotation=180.000|XOffset=0mil|YOffset=0mil|HoleType=Round|Shape=RoundedRectangle|*
%AMROUNDEDRECTD14*
21,1,0.0394,0.0266,0,0,180.0*
21,1,0.0305,0.0354,0,0,180.0*
1,1,0.0089,-0.0153,0.0133*
1,1,0.0089,0.0153,0.0133*
1,1,0.0089,0.0153,-0.0133*
1,1,0.0089,-0.0153,-0.0133*
%
%ADD14ROUNDEDRECTD14*%
%ADD15R,0.0300X0.0300*%
G04:AMPARAMS|DCode=16|XSize=39.4mil|YSize=35.4mil|CornerRadius=4.4mil|HoleSize=0mil|Usage=FLASHONLY|Rotation=270.000|XOffset=0mil|YOffset=0mil|HoleType=Round|Shape=RoundedRectangle|*
%AMROUNDEDRECTD16*
21,1,0.0394,0.0266,0,0,270.0*
21,1,0.0305,0.0354,0,0,270.0*
1,1,0.0089,-0.0133,-0.0153*
1,1,0.0089,-0.0133,0.0153*
1,1,0.0089,0.0133,0.0153*
1,1,0.0089,0.0133,-0.0153*
%
%ADD16ROUNDEDRECTD16*%
G04:AMPARAMS|DCode=17|XSize=70.9mil|YSize=45.3mil|CornerRadius=5.7mil|HoleSize=0mil|Usage=FLASHONLY|Rotation=90.000|XOffset=0mil|YOffset=0mil|HoleType=Round|Shape=RoundedRectangle|*
%AMROUNDEDRECTD17*
21,1,0.0709,0.0340,0,0,90.0*
21,1,0.0595,0.0453,0,0,90.0*
1,1,0.0113,0.0170,0.0298*
1,1,0.0113,0.0170,-0.0298*
1,1,0.0113,-0.0170,-0.0298*
1,1,0.0113,-0.0170,0.0298*
%
%ADD17ROUNDEDRECTD17*%
G04:AMPARAMS|DCode=18|XSize=106.3mil|YSize=45.3mil|CornerRadius=5.7mil|HoleSize=0mil|Usage=FLASHONLY|Rotation=0.000|XOffset=0mil|YOffset=0mil|HoleType=Round|Shape=RoundedRectangle|*
%AMROUNDEDRECTD18*
21,1,0.1063,0.0340,0,0,0.0*
21,1,0.0950,0.0453,0,0,0.0*
1,1,0.0113,0.0475,-0.0170*
1,1,0.0113,-0.0475,-0.0170*
1,1,0.0113,-0.0475,0.0170*
1,1,0.0113,0.0475,0.0170*
%
%ADD18ROUNDEDRECTD18*%
%ADD19R,0.1457X0.0354*%
G04:AMPARAMS|DCode=20|XSize=55.1mil|YSize=39.4mil|CornerRadius=4.9mil|HoleSize=0mil|Usage=FLASHONLY|Rotation=180.000|XOffset=0mil|YOffset=0mil|HoleType=Round|Shape=RoundedRectangle|*
%AMROUNDEDRECTD20*
21,1,0.0551,0.0295,0,0,180.0*
21,1,0.0453,0.0394,0,0,180.0*
1,1,0.0098,-0.0226,0.0148*
1,1,0.0098,0.0226,0.0148*
1,1,0.0098,0.0226,-0.0148*
1,1,0.0098,-0.0226,-0.0148*
%
%ADD20ROUNDEDRECTD20*%
%ADD21R,0.0860X0.0640*%
%ADD22R,0.0360X0.0360*%
%ADD23R,0.0360X0.0500*%
G04:AMPARAMS|DCode=24|XSize=31.5mil|YSize=31.5mil|CornerRadius=3.9mil|HoleSize=0mil|Usage=FLASHONLY|Rotation=180.000|XOffset=0mil|YOffset=0mil|HoleType=Round|Shape=RoundedRectangle|*
%AMROUNDEDRECTD24*
21,1,0.0315,0.0236,0,0,180.0*
21,1,0.0236,0.0315,0,0,180.0*
1,1,0.0079,-0.0118,0.0118*
1,1,0.0079,0.0118,0.0118*
1,1,0.0079,0.0118,-0.0118*
1,1,0.0079,-0.0118,-0.0118*
%
%ADD24ROUNDEDRECTD24*%
%ADD25R,0.1380X0.1610*%
%ADD26R,0.0500X0.0160*%
%ADD27R,0.0680X0.0880*%
%ADD28R,0.1043X0.0772*%
%ADD29R,0.0157X0.0500*%
G04:AMPARAMS|DCode=30|XSize=23.6mil|YSize=39.4mil|CornerRadius=3mil|HoleSize=0mil|Usage=FLASHONLY|Rotation=90.000|XOffset=0mil|YOffset=0mil|HoleType=Round|Shape=RoundedRectangle|*
%AMROUNDEDRECTD30*
21,1,0.0236,0.0335,0,0,90.0*
21,1,0.0177,0.0394,0,0,90.0*
1,1,0.0059,0.0167,0.0089*
1,1,0.0059,0.0167,-0.0089*
1,1,0.0059,-0.0167,-0.0089*
1,1,0.0059,-0.0167,0.0089*
%
%ADD30ROUNDEDRECTD30*%
%ADD31R,0.1250X0.0800*%
%ADD32R,0.0710X0.0440*%
%ADD33R,0.0551X0.0827*%
%ADD34R,0.0748X0.0787*%
%ADD35R,0.0748X0.0512*%
%ADD36R,0.0965X0.0965*%
%ADD37R,0.0100X0.0591*%
%ADD38R,0.0591X0.0100*%
%ADD39O,0.0157X0.0591*%
%ADD40R,0.0161X0.0540*%
%ADD41R,0.0790X0.0740*%
G04:AMPARAMS|DCode=42|XSize=330mil|YSize=420mil|CornerRadius=41.3mil|HoleSize=0mil|Usage=FLASHONLY|Rotation=270.000|XOffset=0mil|YOffset=0mil|HoleType=Round|Shape=RoundedRectangle|*
%AMROUNDEDRECTD42*
21,1,0.3300,0.3375,0,0,270.0*
21,1,0.2475,0.4200,0,0,270.0*
1,1,0.0825,-0.1688,-0.1238*
1,1,0.0825,-0.1688,0.1238*
1,1,0.0825,0.1688,0.1238*
1,1,0.0825,0.1688,-0.1238*
%
%ADD42ROUNDEDRECTD42*%
G04:AMPARAMS|DCode=43|XSize=120mil|YSize=40mil|CornerRadius=5mil|HoleSize=0mil|Usage=FLASHONLY|Rotation=270.000|XOffset=0mil|YOffset=0mil|HoleType=Round|Shape=RoundedRectangle|*
%AMROUNDEDRECTD43*
21,1,0.1200,0.0300,0,0,270.0*
21,1,0.1100,0.0400,0,0,270.0*
1,1,0.0100,-0.0150,-0.0550*
1,1,0.0100,-0.0150,0.0550*
1,1,0.0100,0.0150,0.0550*
1,1,0.0100,0.0150,-0.0550*
%
%ADD43ROUNDEDRECTD43*%
%ADD44O,0.0591X0.0157*%
%ADD45O,0.0591X0.0157*%
%ADD46C,0.0080*%
%ADD47C,0.0100*%
%ADD48C,0.0150*%
%ADD49C,0.1000*%
%ADD50C,0.0500*%
%ADD51C,0.0350*%
%ADD52C,0.0450*%
%ADD53C,0.0200*%
%ADD54C,0.0600*%
%ADD55C,0.0300*%
%ADD56C,0.0400*%
%ADD57C,0.0250*%
%ADD58C,0.2087*%
%ADD59C,0.0600*%
%ADD60C,0.0900*%
%ADD61O,0.0650X0.0900*%
%ADD62C,0.0800*%
%ADD63O,0.0413X0.0591*%
%ADD64O,0.0591X0.0787*%
G04:AMPARAMS|DCode=65|XSize=78.7mil|YSize=59.1mil|CornerRadius=7.4mil|HoleSize=0mil|Usage=FLASHONLY|Rotation=90.000|XOffset=0mil|YOffset=0mil|HoleType=Round|Shape=RoundedRectangle|*
%AMROUNDEDRECTD65*
21,1,0.0787,0.0443,0,0,90.0*
21,1,0.0640,0.0591,0,0,90.0*
1,1,0.0148,0.0221,0.0320*
1,1,0.0148,0.0221,-0.0320*
1,1,0.0148,-0.0221,-0.0320*
1,1,0.0148,-0.0221,0.0320*
%
%ADD65ROUNDEDRECTD65*%
G04:AMPARAMS|DCode=66|XSize=78.7mil|YSize=78.7mil|CornerRadius=19.7mil|HoleSize=0mil|Usage=FLASHONLY|Rotation=0.000|XOffset=0mil|YOffset=0mil|HoleType=Round|Shape=RoundedRectangle|*
%AMROUNDEDRECTD66*
21,1,0.0787,0.0394,0,0,0.0*
21,1,0.0394,0.0787,0,0,0.0*
1,1,0.0394,0.0197,-0.0197*
1,1,0.0394,-0.0197,-0.0197*
1,1,0.0394,-0.0197,0.0197*
1,1,0.0394,0.0197,0.0197*
%
%ADD66ROUNDEDRECTD66*%
%ADD67C,0.0591*%
G04:AMPARAMS|DCode=68|XSize=59.1mil|YSize=59.1mil|CornerRadius=7.4mil|HoleSize=0mil|Usage=FLASHONLY|Rotation=0.000|XOffset=0mil|YOffset=0mil|HoleType=Round|Shape=RoundedRectangle|*
%AMROUNDEDRECTD68*
21,1,0.0591,0.0443,0,0,0.0*
21,1,0.0443,0.0591,0,0,0.0*
1,1,0.0148,0.0221,-0.0221*
1,1,0.0148,-0.0221,-0.0221*
1,1,0.0148,-0.0221,0.0221*
1,1,0.0148,0.0221,0.0221*
%
%ADD68ROUNDEDRECTD68*%
%ADD69C,0.0394*%
%ADD70O,0.0591X0.0413*%
%ADD71O,0.0600X0.0800*%
%ADD72O,0.0550X0.0800*%
%ADD73C,0.0300*%
%ADD74C,0.0250*%
%ADD75C,0.0290*%
%ADD76C,0.0310*%
%ADD77C,0.0360*%
%ADD78C,0.0350*%
%ADD79C,0.0098*%
%ADD80C,0.0197*%
%ADD81C,0.0060*%
%ADD82C,0.0050*%
%ADD83C,0.0236*%
%ADD84C,0.0070*%
%ADD85C,0.0079*%
%ADD86C,0.0075*%
%ADD87C,0.0090*%
%ADD88C,0.0040*%
%ADD89R,0.0669X0.0738*%
%ADD90R,0.0650X0.0768*%
%ADD91R,0.0738X0.0669*%
%ADD92R,0.0768X0.0650*%
%ADD93R,0.0472X0.0118*%
%ADD94R,0.0523X0.0723*%
%ADD95R,0.0571X0.0571*%
%ADD96O,0.0117X0.0551*%
%ADD97O,0.0551X0.0117*%
G04:AMPARAMS|DCode=98|XSize=118mil|YSize=65mil|CornerRadius=8.1mil|HoleSize=0mil|Usage=FLASHONLY|Rotation=90.000|XOffset=0mil|YOffset=0mil|HoleType=Round|Shape=RoundedRectangle|*
%AMROUNDEDRECTD98*
21,1,0.1180,0.0488,0,0,90.0*
21,1,0.1017,0.0650,0,0,90.0*
1,1,0.0163,0.0244,0.0509*
1,1,0.0163,0.0244,-0.0509*
1,1,0.0163,-0.0244,-0.0509*
1,1,0.0163,-0.0244,0.0509*
%
%ADD98ROUNDEDRECTD98*%
%ADD99R,0.1890X0.0472*%
%ADD100R,0.0472X0.1890*%
%ADD101O,0.0789X0.0218*%
G04:AMPARAMS|DCode=102|XSize=58mil|YSize=58mil|CornerRadius=10.3mil|HoleSize=0mil|Usage=FLASHONLY|Rotation=90.000|XOffset=0mil|YOffset=0mil|HoleType=Round|Shape=RoundedRectangle|*
%AMROUNDEDRECTD102*
21,1,0.0580,0.0375,0,0,90.0*
21,1,0.0375,0.0580,0,0,90.0*
1,1,0.0205,0.0188,0.0188*
1,1,0.0205,0.0188,-0.0188*
1,1,0.0205,-0.0188,-0.0188*
1,1,0.0205,-0.0188,0.0188*
%
%ADD102ROUNDEDRECTD102*%
%ADD103R,0.0434X0.1537*%
G04:AMPARAMS|DCode=104|XSize=63.1mil|YSize=47.4mil|CornerRadius=8.9mil|HoleSize=0mil|Usage=FLASHONLY|Rotation=270.000|XOffset=0mil|YOffset=0mil|HoleType=Round|Shape=RoundedRectangle|*
%AMROUNDEDRECTD104*
21,1,0.0631,0.0295,0,0,270.0*
21,1,0.0453,0.0474,0,0,270.0*
1,1,0.0178,-0.0148,-0.0226*
1,1,0.0178,-0.0148,0.0226*
1,1,0.0178,0.0148,0.0226*
1,1,0.0178,0.0148,-0.0226*
%
%ADD104ROUNDEDRECTD104*%
G04:AMPARAMS|DCode=105|XSize=47.4mil|YSize=43.4mil|CornerRadius=8.4mil|HoleSize=0mil|Usage=FLASHONLY|Rotation=180.000|XOffset=0mil|YOffset=0mil|HoleType=Round|Shape=RoundedRectangle|*
%AMROUNDEDRECTD105*
21,1,0.0474,0.0266,0,0,180.0*
21,1,0.0305,0.0434,0,0,180.0*
1,1,0.0169,-0.0153,0.0133*
1,1,0.0169,0.0153,0.0133*
1,1,0.0169,0.0153,-0.0133*
1,1,0.0169,-0.0153,-0.0133*
%
%ADD105ROUNDEDRECTD105*%
%ADD106R,0.0380X0.0380*%
G04:AMPARAMS|DCode=107|XSize=47.4mil|YSize=43.4mil|CornerRadius=8.4mil|HoleSize=0mil|Usage=FLASHONLY|Rotation=270.000|XOffset=0mil|YOffset=0mil|HoleType=Round|Shape=RoundedRectangle|*
%AMROUNDEDRECTD107*
21,1,0.0474,0.0266,0,0,270.0*
21,1,0.0305,0.0434,0,0,270.0*
1,1,0.0169,-0.0133,-0.0153*
1,1,0.0169,-0.0133,0.0153*
1,1,0.0169,0.0133,0.0153*
1,1,0.0169,0.0133,-0.0153*
%
%ADD107ROUNDEDRECTD107*%
G04:AMPARAMS|DCode=108|XSize=78.9mil|YSize=53.3mil|CornerRadius=9.7mil|HoleSize=0mil|Usage=FLASHONLY|Rotation=90.000|XOffset=0mil|YOffset=0mil|HoleType=Round|Shape=RoundedRectangle|*
%AMROUNDEDRECTD108*
21,1,0.0789,0.0340,0,0,90.0*
21,1,0.0595,0.0533,0,0,90.0*
1,1,0.0193,0.0170,0.0298*
1,1,0.0193,0.0170,-0.0298*
1,1,0.0193,-0.0170,-0.0298*
1,1,0.0193,-0.0170,0.0298*
%
%ADD108ROUNDEDRECTD108*%
G04:AMPARAMS|DCode=109|XSize=114.3mil|YSize=53.3mil|CornerRadius=9.7mil|HoleSize=0mil|Usage=FLASHONLY|Rotation=0.000|XOffset=0mil|YOffset=0mil|HoleType=Round|Shape=RoundedRectangle|*
%AMROUNDEDRECTD109*
21,1,0.1143,0.0340,0,0,0.0*
21,1,0.0950,0.0533,0,0,0.0*
1,1,0.0193,0.0475,-0.0170*
1,1,0.0193,-0.0475,-0.0170*
1,1,0.0193,-0.0475,0.0170*
1,1,0.0193,0.0475,0.0170*
%
%ADD109ROUNDEDRECTD109*%
%ADD110R,0.1537X0.0434*%
G04:AMPARAMS|DCode=111|XSize=63.1mil|YSize=47.4mil|CornerRadius=8.9mil|HoleSize=0mil|Usage=FLASHONLY|Rotation=180.000|XOffset=0mil|YOffset=0mil|HoleType=Round|Shape=RoundedRectangle|*
%AMROUNDEDRECTD111*
21,1,0.0631,0.0295,0,0,180.0*
21,1,0.0453,0.0474,0,0,180.0*
1,1,0.0178,-0.0226,0.0148*
1,1,0.0178,0.0226,0.0148*
1,1,0.0178,0.0226,-0.0148*
1,1,0.0178,-0.0226,-0.0148*
%
%ADD111ROUNDEDRECTD111*%
%ADD112R,0.0940X0.0720*%
%ADD113R,0.0440X0.0440*%
%ADD114R,0.0440X0.0580*%
G04:AMPARAMS|DCode=115|XSize=39.5mil|YSize=39.5mil|CornerRadius=7.9mil|HoleSize=0mil|Usage=FLASHONLY|Rotation=180.000|XOffset=0mil|YOffset=0mil|HoleType=Round|Shape=RoundedRectangle|*
%AMROUNDEDRECTD115*
21,1,0.0395,0.0236,0,0,180.0*
21,1,0.0236,0.0395,0,0,180.0*
1,1,0.0159,-0.0118,0.0118*
1,1,0.0159,0.0118,0.0118*
1,1,0.0159,0.0118,-0.0118*
1,1,0.0159,-0.0118,-0.0118*
%
%ADD115ROUNDEDRECTD115*%
%ADD116R,0.1460X0.1690*%
%ADD117R,0.0580X0.0240*%
%ADD118R,0.0760X0.0960*%
%ADD119R,0.1103X0.0832*%
%ADD120R,0.0217X0.0560*%
G04:AMPARAMS|DCode=121|XSize=31.6mil|YSize=47.4mil|CornerRadius=7mil|HoleSize=0mil|Usage=FLASHONLY|Rotation=90.000|XOffset=0mil|YOffset=0mil|HoleType=Round|Shape=RoundedRectangle|*
%AMROUNDEDRECTD121*
21,1,0.0316,0.0335,0,0,90.0*
21,1,0.0177,0.0474,0,0,90.0*
1,1,0.0139,0.0167,0.0089*
1,1,0.0139,0.0167,-0.0089*
1,1,0.0139,-0.0167,-0.0089*
1,1,0.0139,-0.0167,0.0089*
%
%ADD121ROUNDEDRECTD121*%
%ADD122R,0.1330X0.0880*%
%ADD123R,0.0790X0.0520*%
%ADD124R,0.0631X0.0907*%
%ADD125R,0.0828X0.0867*%
%ADD126R,0.0828X0.0592*%
%ADD127R,0.1045X0.1045*%
%ADD128R,0.0180X0.0671*%
%ADD129R,0.0671X0.0180*%
%ADD130O,0.0237X0.0671*%
%ADD131R,0.0241X0.0620*%
%ADD132R,0.0870X0.0820*%
G04:AMPARAMS|DCode=133|XSize=338mil|YSize=428mil|CornerRadius=45.3mil|HoleSize=0mil|Usage=FLASHONLY|Rotation=270.000|XOffset=0mil|YOffset=0mil|HoleType=Round|Shape=RoundedRectangle|*
%AMROUNDEDRECTD133*
21,1,0.3380,0.3375,0,0,270.0*
21,1,0.2475,0.4280,0,0,270.0*
1,1,0.0905,-0.1688,-0.1238*
1,1,0.0905,-0.1688,0.1238*
1,1,0.0905,0.1688,0.1238*
1,1,0.0905,0.1688,-0.1238*
%
%ADD133ROUNDEDRECTD133*%
G04:AMPARAMS|DCode=134|XSize=128mil|YSize=48mil|CornerRadius=9mil|HoleSize=0mil|Usage=FLASHONLY|Rotation=270.000|XOffset=0mil|YOffset=0mil|HoleType=Round|Shape=RoundedRectangle|*
%AMROUNDEDRECTD134*
21,1,0.1280,0.0300,0,0,270.0*
21,1,0.1100,0.0480,0,0,270.0*
1,1,0.0180,-0.0150,-0.0550*
1,1,0.0180,-0.0150,0.0550*
1,1,0.0180,0.0150,0.0550*
1,1,0.0180,0.0150,-0.0550*
%
%ADD134ROUNDEDRECTD134*%
%ADD135O,0.0691X0.0257*%
%ADD136O,0.0671X0.0237*%
%ADD137C,0.2167*%
%ADD138C,0.0680*%
%ADD139C,0.0980*%
%ADD140O,0.0730X0.0980*%
%ADD141C,0.0880*%
%ADD142O,0.0493X0.0671*%
%ADD143O,0.0671X0.0867*%
G04:AMPARAMS|DCode=144|XSize=86.7mil|YSize=67.1mil|CornerRadius=11.4mil|HoleSize=0mil|Usage=FLASHONLY|Rotation=90.000|XOffset=0mil|YOffset=0mil|HoleType=Round|Shape=RoundedRectangle|*
%AMROUNDEDRECTD144*
21,1,0.0867,0.0443,0,0,90.0*
21,1,0.0640,0.0671,0,0,90.0*
1,1,0.0228,0.0221,0.0320*
1,1,0.0228,0.0221,-0.0320*
1,1,0.0228,-0.0221,-0.0320*
1,1,0.0228,-0.0221,0.0320*
%
%ADD144ROUNDEDRECTD144*%
G04:AMPARAMS|DCode=145|XSize=86.7mil|YSize=86.7mil|CornerRadius=23.7mil|HoleSize=0mil|Usage=FLASHONLY|Rotation=0.000|XOffset=0mil|YOffset=0mil|HoleType=Round|Shape=RoundedRectangle|*
%AMROUNDEDRECTD145*
21,1,0.0867,0.0394,0,0,0.0*
21,1,0.0394,0.0867,0,0,0.0*
1,1,0.0474,0.0197,-0.0197*
1,1,0.0474,-0.0197,-0.0197*
1,1,0.0474,-0.0197,0.0197*
1,1,0.0474,0.0197,0.0197*
%
%ADD145ROUNDEDRECTD145*%
%ADD146C,0.0671*%
G04:AMPARAMS|DCode=147|XSize=67.1mil|YSize=67.1mil|CornerRadius=11.4mil|HoleSize=0mil|Usage=FLASHONLY|Rotation=0.000|XOffset=0mil|YOffset=0mil|HoleType=Round|Shape=RoundedRectangle|*
%AMROUNDEDRECTD147*
21,1,0.0671,0.0443,0,0,0.0*
21,1,0.0443,0.0671,0,0,0.0*
1,1,0.0228,0.0221,-0.0221*
1,1,0.0228,-0.0221,-0.0221*
1,1,0.0228,-0.0221,0.0221*
1,1,0.0228,0.0221,0.0221*
%
%ADD147ROUNDEDRECTD147*%
%ADD148C,0.0474*%
%ADD149O,0.0671X0.0493*%
%ADD150O,0.0680X0.0880*%
%ADD151O,0.0630X0.0880*%
D137*
X018898Y055118D02*
D03*
X018110Y040157D02*
D03*
Y076575D02*
D03*
X051575Y040157D02*
D03*
Y076575D02*
D03*
X074409D02*
D03*
Y057283D02*
D03*
X051575D02*
D03*
X074409Y040157D02*
D03*
D138*
X059551Y046206D02*
D03*
X047638Y039488D02*
D03*
D139*
X027881Y042087D02*
D03*
X034813Y041968D02*
D03*
X041722Y042087D02*
D03*
D140*
X027864Y052923D02*
D03*
X034796Y052982D02*
D03*
X041703Y052933D02*
D03*
X020945Y052795D02*
D03*
D141*
X020965Y042126D02*
D03*
D142*
X021024Y069643D02*
D03*
X022598D02*
D03*
X021811D02*
D03*
X021024Y071890D02*
D03*
X022598D02*
D03*
X021811D02*
D03*
X020999Y074134D02*
D03*
X022573D02*
D03*
X021786D02*
D03*
X020999Y076378D02*
D03*
X022573D02*
D03*
X021786D02*
D03*
X025512Y069646D02*
D03*
X027087D02*
D03*
X027874D02*
D03*
X026299D02*
D03*
X025512Y071890D02*
D03*
X027087D02*
D03*
X027874D02*
D03*
X026299D02*
D03*
X025512Y074134D02*
D03*
X027087D02*
D03*
X027874D02*
D03*
X026299D02*
D03*
X025512Y076378D02*
D03*
X027087D02*
D03*
X027874D02*
D03*
X026299D02*
D03*
X058189Y046956D02*
D03*
X056614D02*
D03*
X057402D02*
D03*
X058189Y049200D02*
D03*
X056614D02*
D03*
X057402D02*
D03*
X058189Y051365D02*
D03*
X056614D02*
D03*
X057402D02*
D03*
X058189Y053530D02*
D03*
X056614D02*
D03*
X057402D02*
D03*
X058189Y055696D02*
D03*
X056614D02*
D03*
X057402D02*
D03*
D143*
X072492Y077080D02*
D03*
X071492D02*
D03*
X070492D02*
D03*
X069492D02*
D03*
X068492D02*
D03*
X067492D02*
D03*
X066492D02*
D03*
X065492D02*
D03*
X064492D02*
D03*
X063492D02*
D03*
X062492D02*
D03*
X061492D02*
D03*
X060492D02*
D03*
X059492D02*
D03*
X058492D02*
D03*
X057492D02*
D03*
X056492D02*
D03*
X055492D02*
D03*
X054492D02*
D03*
X053492D02*
D03*
X072492Y076080D02*
D03*
X071492D02*
D03*
X070492D02*
D03*
X069492D02*
D03*
X068492D02*
D03*
X067492D02*
D03*
X066492D02*
D03*
X065492D02*
D03*
X064492D02*
D03*
X063492D02*
D03*
X062492D02*
D03*
X061492D02*
D03*
X060492D02*
D03*
X059492D02*
D03*
X058492D02*
D03*
X057492D02*
D03*
X056492D02*
D03*
X055492D02*
D03*
X054492D02*
D03*
D144*
X053492D02*
D03*
D145*
X064114Y039567D02*
D03*
X063130D02*
D03*
X060965D02*
D03*
X059980D02*
D03*
X057815D02*
D03*
X056831D02*
D03*
X054665D02*
D03*
X053681D02*
D03*
X067264D02*
D03*
X066280D02*
D03*
X070413D02*
D03*
X069429D02*
D03*
D146*
X024719Y042357D02*
D03*
X023932D02*
D03*
X025506Y042337D02*
D03*
X023144Y040389D02*
D03*
X023932D02*
D03*
X024719D02*
D03*
X025506D02*
D03*
X031648Y042377D02*
D03*
X030861D02*
D03*
X032436Y042357D02*
D03*
X030073Y040409D02*
D03*
X030861D02*
D03*
X031648D02*
D03*
X032436D02*
D03*
X038583Y042382D02*
D03*
X037795D02*
D03*
X039370Y042362D02*
D03*
X037008Y040413D02*
D03*
X037795D02*
D03*
X038583D02*
D03*
X039370D02*
D03*
X045551Y042402D02*
D03*
X044764D02*
D03*
X046339Y042382D02*
D03*
X043976Y040433D02*
D03*
X044764D02*
D03*
X045551D02*
D03*
X046339D02*
D03*
D147*
X023144Y042357D02*
D03*
X030073Y042377D02*
D03*
X037008Y042382D02*
D03*
X043976Y042402D02*
D03*
D148*
X022573Y042968D02*
D03*
X029503Y042988D02*
D03*
X036437Y042992D02*
D03*
X043406Y043012D02*
D03*
D149*
X018189Y052913D02*
D03*
Y052126D02*
D03*
Y049567D02*
D03*
Y048780D02*
D03*
Y046281D02*
D03*
Y045493D02*
D03*
Y042874D02*
D03*
Y042087D02*
D03*
D150*
X057051Y062433D02*
D03*
X058051D02*
D03*
X061051D02*
D03*
X062051D02*
D03*
X054551Y061283D02*
D03*
X055551D02*
D03*
X056551D02*
D03*
X057551D02*
D03*
X058551D02*
D03*
X059551D02*
D03*
X060551D02*
D03*
X061551D02*
D03*
X062551D02*
D03*
X063551D02*
D03*
X064551D02*
D03*
X065551D02*
D03*
X063551Y067283D02*
D03*
X054551D02*
D03*
X055551D02*
D03*
X056551D02*
D03*
X057551D02*
D03*
X058551D02*
D03*
X059551D02*
D03*
X060551D02*
D03*
X061551D02*
D03*
X062551D02*
D03*
X064551D02*
D03*
X065551D02*
D03*
D151*
X032409Y068118D02*
D03*
X033409D02*
D03*
X034409D02*
D03*
X035409D02*
D03*
X036409D02*
D03*
Y062118D02*
D03*
X035409D02*
D03*
X034409D02*
D03*
X033409D02*
D03*
X032409D02*
D03*
M02*
