%FSAX24Y24*%
%MOIN*%
G70*
G01*
G75*
G04 Layer_Color=8388736*
%ADD10O,0.0709X0.0138*%
G04:AMPARAMS|DCode=11|XSize=50mil|YSize=50mil|CornerRadius=6.3mil|HoleSize=0mil|Usage=FLASHONLY|Rotation=90.000|XOffset=0mil|YOffset=0mil|HoleType=Round|Shape=RoundedRectangle|*
%AMROUNDEDRECTD11*
21,1,0.0500,0.0375,0,0,90.0*
21,1,0.0375,0.0500,0,0,90.0*
1,1,0.0125,0.0188,0.0188*
1,1,0.0125,0.0188,-0.0188*
1,1,0.0125,-0.0188,-0.0188*
1,1,0.0125,-0.0188,0.0188*
%
%ADD11ROUNDEDRECTD11*%
%ADD12R,0.0354X0.1457*%
G04:AMPARAMS|DCode=13|XSize=55.1mil|YSize=39.4mil|CornerRadius=4.9mil|HoleSize=0mil|Usage=FLASHONLY|Rotation=270.000|XOffset=0mil|YOffset=0mil|HoleType=Round|Shape=RoundedRectangle|*
%AMROUNDEDRECTD13*
21,1,0.0551,0.0295,0,0,270.0*
21,1,0.0453,0.0394,0,0,270.0*
1,1,0.0098,-0.0148,-0.0226*
1,1,0.0098,-0.0148,0.0226*
1,1,0.0098,0.0148,0.0226*
1,1,0.0098,0.0148,-0.0226*
%
%ADD13ROUNDEDRECTD13*%
G04:AMPARAMS|DCode=14|XSize=39.4mil|YSize=35.4mil|CornerRadius=4.4mil|HoleSize=0mil|Usage=FLASHONLY|Rotation=180.000|XOffset=0mil|YOffset=0mil|HoleType=Round|Shape=RoundedRectangle|*
%AMROUNDEDRECTD14*
21,1,0.0394,0.0266,0,0,180.0*
21,1,0.0305,0.0354,0,0,180.0*
1,1,0.0089,-0.0153,0.0133*
1,1,0.0089,0.0153,0.0133*
1,1,0.0089,0.0153,-0.0133*
1,1,0.0089,-0.0153,-0.0133*
%
%ADD14ROUNDEDRECTD14*%
%ADD15R,0.0300X0.0300*%
G04:AMPARAMS|DCode=16|XSize=39.4mil|YSize=35.4mil|CornerRadius=4.4mil|HoleSize=0mil|Usage=FLASHONLY|Rotation=270.000|XOffset=0mil|YOffset=0mil|HoleType=Round|Shape=RoundedRectangle|*
%AMROUNDEDRECTD16*
21,1,0.0394,0.0266,0,0,270.0*
21,1,0.0305,0.0354,0,0,270.0*
1,1,0.0089,-0.0133,-0.0153*
1,1,0.0089,-0.0133,0.0153*
1,1,0.0089,0.0133,0.0153*
1,1,0.0089,0.0133,-0.0153*
%
%ADD16ROUNDEDRECTD16*%
G04:AMPARAMS|DCode=17|XSize=70.9mil|YSize=45.3mil|CornerRadius=5.7mil|HoleSize=0mil|Usage=FLASHONLY|Rotation=90.000|XOffset=0mil|YOffset=0mil|HoleType=Round|Shape=RoundedRectangle|*
%AMROUNDEDRECTD17*
21,1,0.0709,0.0340,0,0,90.0*
21,1,0.0595,0.0453,0,0,90.0*
1,1,0.0113,0.0170,0.0298*
1,1,0.0113,0.0170,-0.0298*
1,1,0.0113,-0.0170,-0.0298*
1,1,0.0113,-0.0170,0.0298*
%
%ADD17ROUNDEDRECTD17*%
G04:AMPARAMS|DCode=18|XSize=106.3mil|YSize=45.3mil|CornerRadius=5.7mil|HoleSize=0mil|Usage=FLASHONLY|Rotation=0.000|XOffset=0mil|YOffset=0mil|HoleType=Round|Shape=RoundedRectangle|*
%AMROUNDEDRECTD18*
21,1,0.1063,0.0340,0,0,0.0*
21,1,0.0950,0.0453,0,0,0.0*
1,1,0.0113,0.0475,-0.0170*
1,1,0.0113,-0.0475,-0.0170*
1,1,0.0113,-0.0475,0.0170*
1,1,0.0113,0.0475,0.0170*
%
%ADD18ROUNDEDRECTD18*%
%ADD19R,0.1457X0.0354*%
G04:AMPARAMS|DCode=20|XSize=55.1mil|YSize=39.4mil|CornerRadius=4.9mil|HoleSize=0mil|Usage=FLASHONLY|Rotation=180.000|XOffset=0mil|YOffset=0mil|HoleType=Round|Shape=RoundedRectangle|*
%AMROUNDEDRECTD20*
21,1,0.0551,0.0295,0,0,180.0*
21,1,0.0453,0.0394,0,0,180.0*
1,1,0.0098,-0.0226,0.0148*
1,1,0.0098,0.0226,0.0148*
1,1,0.0098,0.0226,-0.0148*
1,1,0.0098,-0.0226,-0.0148*
%
%ADD20ROUNDEDRECTD20*%
%ADD21R,0.0860X0.0640*%
%ADD22R,0.0360X0.0360*%
%ADD23R,0.0360X0.0500*%
G04:AMPARAMS|DCode=24|XSize=31.5mil|YSize=31.5mil|CornerRadius=3.9mil|HoleSize=0mil|Usage=FLASHONLY|Rotation=180.000|XOffset=0mil|YOffset=0mil|HoleType=Round|Shape=RoundedRectangle|*
%AMROUNDEDRECTD24*
21,1,0.0315,0.0236,0,0,180.0*
21,1,0.0236,0.0315,0,0,180.0*
1,1,0.0079,-0.0118,0.0118*
1,1,0.0079,0.0118,0.0118*
1,1,0.0079,0.0118,-0.0118*
1,1,0.0079,-0.0118,-0.0118*
%
%ADD24ROUNDEDRECTD24*%
%ADD25R,0.1380X0.1610*%
%ADD26R,0.0500X0.0160*%
%ADD27R,0.0680X0.0880*%
%ADD28R,0.1043X0.0772*%
%ADD29R,0.0157X0.0500*%
G04:AMPARAMS|DCode=30|XSize=23.6mil|YSize=39.4mil|CornerRadius=3mil|HoleSize=0mil|Usage=FLASHONLY|Rotation=90.000|XOffset=0mil|YOffset=0mil|HoleType=Round|Shape=RoundedRectangle|*
%AMROUNDEDRECTD30*
21,1,0.0236,0.0335,0,0,90.0*
21,1,0.0177,0.0394,0,0,90.0*
1,1,0.0059,0.0167,0.0089*
1,1,0.0059,0.0167,-0.0089*
1,1,0.0059,-0.0167,-0.0089*
1,1,0.0059,-0.0167,0.0089*
%
%ADD30ROUNDEDRECTD30*%
%ADD31R,0.1250X0.0800*%
%ADD32R,0.0710X0.0440*%
%ADD33R,0.0551X0.0827*%
%ADD34R,0.0748X0.0787*%
%ADD35R,0.0748X0.0512*%
%ADD36R,0.0965X0.0965*%
%ADD37R,0.0100X0.0591*%
%ADD38R,0.0591X0.0100*%
%ADD39O,0.0157X0.0591*%
%ADD40R,0.0161X0.0540*%
%ADD41R,0.0790X0.0740*%
G04:AMPARAMS|DCode=42|XSize=330mil|YSize=420mil|CornerRadius=41.3mil|HoleSize=0mil|Usage=FLASHONLY|Rotation=270.000|XOffset=0mil|YOffset=0mil|HoleType=Round|Shape=RoundedRectangle|*
%AMROUNDEDRECTD42*
21,1,0.3300,0.3375,0,0,270.0*
21,1,0.2475,0.4200,0,0,270.0*
1,1,0.0825,-0.1688,-0.1238*
1,1,0.0825,-0.1688,0.1238*
1,1,0.0825,0.1688,0.1238*
1,1,0.0825,0.1688,-0.1238*
%
%ADD42ROUNDEDRECTD42*%
G04:AMPARAMS|DCode=43|XSize=120mil|YSize=40mil|CornerRadius=5mil|HoleSize=0mil|Usage=FLASHONLY|Rotation=270.000|XOffset=0mil|YOffset=0mil|HoleType=Round|Shape=RoundedRectangle|*
%AMROUNDEDRECTD43*
21,1,0.1200,0.0300,0,0,270.0*
21,1,0.1100,0.0400,0,0,270.0*
1,1,0.0100,-0.0150,-0.0550*
1,1,0.0100,-0.0150,0.0550*
1,1,0.0100,0.0150,0.0550*
1,1,0.0100,0.0150,-0.0550*
%
%ADD43ROUNDEDRECTD43*%
%ADD44O,0.0591X0.0157*%
%ADD45O,0.0591X0.0157*%
%ADD46C,0.0080*%
%ADD47C,0.0100*%
%ADD48C,0.0150*%
%ADD49C,0.1000*%
%ADD50C,0.0500*%
%ADD51C,0.0350*%
%ADD52C,0.0450*%
%ADD53C,0.0200*%
%ADD54C,0.0600*%
%ADD55C,0.0300*%
%ADD56C,0.0400*%
%ADD57C,0.0250*%
%ADD58C,0.2087*%
%ADD59C,0.0600*%
%ADD60C,0.0900*%
%ADD61O,0.0650X0.0900*%
%ADD62C,0.0800*%
%ADD63O,0.0413X0.0591*%
%ADD64O,0.0591X0.0787*%
G04:AMPARAMS|DCode=65|XSize=78.7mil|YSize=59.1mil|CornerRadius=7.4mil|HoleSize=0mil|Usage=FLASHONLY|Rotation=90.000|XOffset=0mil|YOffset=0mil|HoleType=Round|Shape=RoundedRectangle|*
%AMROUNDEDRECTD65*
21,1,0.0787,0.0443,0,0,90.0*
21,1,0.0640,0.0591,0,0,90.0*
1,1,0.0148,0.0221,0.0320*
1,1,0.0148,0.0221,-0.0320*
1,1,0.0148,-0.0221,-0.0320*
1,1,0.0148,-0.0221,0.0320*
%
%ADD65ROUNDEDRECTD65*%
G04:AMPARAMS|DCode=66|XSize=78.7mil|YSize=78.7mil|CornerRadius=19.7mil|HoleSize=0mil|Usage=FLASHONLY|Rotation=0.000|XOffset=0mil|YOffset=0mil|HoleType=Round|Shape=RoundedRectangle|*
%AMROUNDEDRECTD66*
21,1,0.0787,0.0394,0,0,0.0*
21,1,0.0394,0.0787,0,0,0.0*
1,1,0.0394,0.0197,-0.0197*
1,1,0.0394,-0.0197,-0.0197*
1,1,0.0394,-0.0197,0.0197*
1,1,0.0394,0.0197,0.0197*
%
%ADD66ROUNDEDRECTD66*%
%ADD67C,0.0591*%
G04:AMPARAMS|DCode=68|XSize=59.1mil|YSize=59.1mil|CornerRadius=7.4mil|HoleSize=0mil|Usage=FLASHONLY|Rotation=0.000|XOffset=0mil|YOffset=0mil|HoleType=Round|Shape=RoundedRectangle|*
%AMROUNDEDRECTD68*
21,1,0.0591,0.0443,0,0,0.0*
21,1,0.0443,0.0591,0,0,0.0*
1,1,0.0148,0.0221,-0.0221*
1,1,0.0148,-0.0221,-0.0221*
1,1,0.0148,-0.0221,0.0221*
1,1,0.0148,0.0221,0.0221*
%
%ADD68ROUNDEDRECTD68*%
%ADD69C,0.0394*%
%ADD70O,0.0591X0.0413*%
%ADD71O,0.0600X0.0800*%
%ADD72O,0.0550X0.0800*%
%ADD73C,0.0300*%
%ADD74C,0.0250*%
%ADD75C,0.0290*%
%ADD76C,0.0310*%
%ADD77C,0.0360*%
%ADD78C,0.0350*%
%ADD79C,0.0098*%
%ADD80C,0.0197*%
%ADD81C,0.0060*%
%ADD82C,0.0050*%
%ADD83C,0.0236*%
%ADD84C,0.0070*%
%ADD85C,0.0079*%
%ADD86C,0.0075*%
%ADD87C,0.0090*%
%ADD88C,0.0040*%
%ADD89R,0.0669X0.0738*%
%ADD90R,0.0650X0.0768*%
%ADD91R,0.0738X0.0669*%
%ADD92R,0.0768X0.0650*%
%ADD93R,0.0472X0.0118*%
%ADD94R,0.0523X0.0723*%
%ADD95R,0.0571X0.0571*%
%ADD96O,0.0117X0.0551*%
%ADD97O,0.0551X0.0117*%
G04:AMPARAMS|DCode=98|XSize=118mil|YSize=65mil|CornerRadius=8.1mil|HoleSize=0mil|Usage=FLASHONLY|Rotation=90.000|XOffset=0mil|YOffset=0mil|HoleType=Round|Shape=RoundedRectangle|*
%AMROUNDEDRECTD98*
21,1,0.1180,0.0488,0,0,90.0*
21,1,0.1017,0.0650,0,0,90.0*
1,1,0.0163,0.0244,0.0509*
1,1,0.0163,0.0244,-0.0509*
1,1,0.0163,-0.0244,-0.0509*
1,1,0.0163,-0.0244,0.0509*
%
%ADD98ROUNDEDRECTD98*%
%ADD99R,0.1890X0.0472*%
%ADD100R,0.0472X0.1890*%
%ADD101O,0.0789X0.0218*%
G04:AMPARAMS|DCode=102|XSize=58mil|YSize=58mil|CornerRadius=10.3mil|HoleSize=0mil|Usage=FLASHONLY|Rotation=90.000|XOffset=0mil|YOffset=0mil|HoleType=Round|Shape=RoundedRectangle|*
%AMROUNDEDRECTD102*
21,1,0.0580,0.0375,0,0,90.0*
21,1,0.0375,0.0580,0,0,90.0*
1,1,0.0205,0.0188,0.0188*
1,1,0.0205,0.0188,-0.0188*
1,1,0.0205,-0.0188,-0.0188*
1,1,0.0205,-0.0188,0.0188*
%
%ADD102ROUNDEDRECTD102*%
%ADD103R,0.0434X0.1537*%
G04:AMPARAMS|DCode=104|XSize=63.1mil|YSize=47.4mil|CornerRadius=8.9mil|HoleSize=0mil|Usage=FLASHONLY|Rotation=270.000|XOffset=0mil|YOffset=0mil|HoleType=Round|Shape=RoundedRectangle|*
%AMROUNDEDRECTD104*
21,1,0.0631,0.0295,0,0,270.0*
21,1,0.0453,0.0474,0,0,270.0*
1,1,0.0178,-0.0148,-0.0226*
1,1,0.0178,-0.0148,0.0226*
1,1,0.0178,0.0148,0.0226*
1,1,0.0178,0.0148,-0.0226*
%
%ADD104ROUNDEDRECTD104*%
G04:AMPARAMS|DCode=105|XSize=47.4mil|YSize=43.4mil|CornerRadius=8.4mil|HoleSize=0mil|Usage=FLASHONLY|Rotation=180.000|XOffset=0mil|YOffset=0mil|HoleType=Round|Shape=RoundedRectangle|*
%AMROUNDEDRECTD105*
21,1,0.0474,0.0266,0,0,180.0*
21,1,0.0305,0.0434,0,0,180.0*
1,1,0.0169,-0.0153,0.0133*
1,1,0.0169,0.0153,0.0133*
1,1,0.0169,0.0153,-0.0133*
1,1,0.0169,-0.0153,-0.0133*
%
%ADD105ROUNDEDRECTD105*%
%ADD106R,0.0380X0.0380*%
G04:AMPARAMS|DCode=107|XSize=47.4mil|YSize=43.4mil|CornerRadius=8.4mil|HoleSize=0mil|Usage=FLASHONLY|Rotation=270.000|XOffset=0mil|YOffset=0mil|HoleType=Round|Shape=RoundedRectangle|*
%AMROUNDEDRECTD107*
21,1,0.0474,0.0266,0,0,270.0*
21,1,0.0305,0.0434,0,0,270.0*
1,1,0.0169,-0.0133,-0.0153*
1,1,0.0169,-0.0133,0.0153*
1,1,0.0169,0.0133,0.0153*
1,1,0.0169,0.0133,-0.0153*
%
%ADD107ROUNDEDRECTD107*%
G04:AMPARAMS|DCode=108|XSize=78.9mil|YSize=53.3mil|CornerRadius=9.7mil|HoleSize=0mil|Usage=FLASHONLY|Rotation=90.000|XOffset=0mil|YOffset=0mil|HoleType=Round|Shape=RoundedRectangle|*
%AMROUNDEDRECTD108*
21,1,0.0789,0.0340,0,0,90.0*
21,1,0.0595,0.0533,0,0,90.0*
1,1,0.0193,0.0170,0.0298*
1,1,0.0193,0.0170,-0.0298*
1,1,0.0193,-0.0170,-0.0298*
1,1,0.0193,-0.0170,0.0298*
%
%ADD108ROUNDEDRECTD108*%
G04:AMPARAMS|DCode=109|XSize=114.3mil|YSize=53.3mil|CornerRadius=9.7mil|HoleSize=0mil|Usage=FLASHONLY|Rotation=0.000|XOffset=0mil|YOffset=0mil|HoleType=Round|Shape=RoundedRectangle|*
%AMROUNDEDRECTD109*
21,1,0.1143,0.0340,0,0,0.0*
21,1,0.0950,0.0533,0,0,0.0*
1,1,0.0193,0.0475,-0.0170*
1,1,0.0193,-0.0475,-0.0170*
1,1,0.0193,-0.0475,0.0170*
1,1,0.0193,0.0475,0.0170*
%
%ADD109ROUNDEDRECTD109*%
%ADD110R,0.1537X0.0434*%
G04:AMPARAMS|DCode=111|XSize=63.1mil|YSize=47.4mil|CornerRadius=8.9mil|HoleSize=0mil|Usage=FLASHONLY|Rotation=180.000|XOffset=0mil|YOffset=0mil|HoleType=Round|Shape=RoundedRectangle|*
%AMROUNDEDRECTD111*
21,1,0.0631,0.0295,0,0,180.0*
21,1,0.0453,0.0474,0,0,180.0*
1,1,0.0178,-0.0226,0.0148*
1,1,0.0178,0.0226,0.0148*
1,1,0.0178,0.0226,-0.0148*
1,1,0.0178,-0.0226,-0.0148*
%
%ADD111ROUNDEDRECTD111*%
%ADD112R,0.0940X0.0720*%
%ADD113R,0.0440X0.0440*%
%ADD114R,0.0440X0.0580*%
G04:AMPARAMS|DCode=115|XSize=39.5mil|YSize=39.5mil|CornerRadius=7.9mil|HoleSize=0mil|Usage=FLASHONLY|Rotation=180.000|XOffset=0mil|YOffset=0mil|HoleType=Round|Shape=RoundedRectangle|*
%AMROUNDEDRECTD115*
21,1,0.0395,0.0236,0,0,180.0*
21,1,0.0236,0.0395,0,0,180.0*
1,1,0.0159,-0.0118,0.0118*
1,1,0.0159,0.0118,0.0118*
1,1,0.0159,0.0118,-0.0118*
1,1,0.0159,-0.0118,-0.0118*
%
%ADD115ROUNDEDRECTD115*%
%ADD116R,0.1460X0.1690*%
%ADD117R,0.0580X0.0240*%
%ADD118R,0.0760X0.0960*%
%ADD119R,0.1103X0.0832*%
%ADD120R,0.0217X0.0560*%
G04:AMPARAMS|DCode=121|XSize=31.6mil|YSize=47.4mil|CornerRadius=7mil|HoleSize=0mil|Usage=FLASHONLY|Rotation=90.000|XOffset=0mil|YOffset=0mil|HoleType=Round|Shape=RoundedRectangle|*
%AMROUNDEDRECTD121*
21,1,0.0316,0.0335,0,0,90.0*
21,1,0.0177,0.0474,0,0,90.0*
1,1,0.0139,0.0167,0.0089*
1,1,0.0139,0.0167,-0.0089*
1,1,0.0139,-0.0167,-0.0089*
1,1,0.0139,-0.0167,0.0089*
%
%ADD121ROUNDEDRECTD121*%
%ADD122R,0.1330X0.0880*%
%ADD123R,0.0790X0.0520*%
%ADD124R,0.0631X0.0907*%
%ADD125R,0.0828X0.0867*%
%ADD126R,0.0828X0.0592*%
%ADD127R,0.1045X0.1045*%
%ADD128R,0.0180X0.0671*%
%ADD129R,0.0671X0.0180*%
%ADD130O,0.0237X0.0671*%
%ADD131R,0.0241X0.0620*%
%ADD132R,0.0870X0.0820*%
G04:AMPARAMS|DCode=133|XSize=338mil|YSize=428mil|CornerRadius=45.3mil|HoleSize=0mil|Usage=FLASHONLY|Rotation=270.000|XOffset=0mil|YOffset=0mil|HoleType=Round|Shape=RoundedRectangle|*
%AMROUNDEDRECTD133*
21,1,0.3380,0.3375,0,0,270.0*
21,1,0.2475,0.4280,0,0,270.0*
1,1,0.0905,-0.1688,-0.1238*
1,1,0.0905,-0.1688,0.1238*
1,1,0.0905,0.1688,0.1238*
1,1,0.0905,0.1688,-0.1238*
%
%ADD133ROUNDEDRECTD133*%
G04:AMPARAMS|DCode=134|XSize=128mil|YSize=48mil|CornerRadius=9mil|HoleSize=0mil|Usage=FLASHONLY|Rotation=270.000|XOffset=0mil|YOffset=0mil|HoleType=Round|Shape=RoundedRectangle|*
%AMROUNDEDRECTD134*
21,1,0.1280,0.0300,0,0,270.0*
21,1,0.1100,0.0480,0,0,270.0*
1,1,0.0180,-0.0150,-0.0550*
1,1,0.0180,-0.0150,0.0550*
1,1,0.0180,0.0150,0.0550*
1,1,0.0180,0.0150,-0.0550*
%
%ADD134ROUNDEDRECTD134*%
%ADD135O,0.0691X0.0257*%
%ADD136O,0.0671X0.0237*%
%ADD137C,0.2167*%
%ADD138C,0.0680*%
%ADD139C,0.0980*%
%ADD140O,0.0730X0.0980*%
%ADD141C,0.0880*%
%ADD142O,0.0493X0.0671*%
%ADD143O,0.0671X0.0867*%
G04:AMPARAMS|DCode=144|XSize=86.7mil|YSize=67.1mil|CornerRadius=11.4mil|HoleSize=0mil|Usage=FLASHONLY|Rotation=90.000|XOffset=0mil|YOffset=0mil|HoleType=Round|Shape=RoundedRectangle|*
%AMROUNDEDRECTD144*
21,1,0.0867,0.0443,0,0,90.0*
21,1,0.0640,0.0671,0,0,90.0*
1,1,0.0228,0.0221,0.0320*
1,1,0.0228,0.0221,-0.0320*
1,1,0.0228,-0.0221,-0.0320*
1,1,0.0228,-0.0221,0.0320*
%
%ADD144ROUNDEDRECTD144*%
G04:AMPARAMS|DCode=145|XSize=86.7mil|YSize=86.7mil|CornerRadius=23.7mil|HoleSize=0mil|Usage=FLASHONLY|Rotation=0.000|XOffset=0mil|YOffset=0mil|HoleType=Round|Shape=RoundedRectangle|*
%AMROUNDEDRECTD145*
21,1,0.0867,0.0394,0,0,0.0*
21,1,0.0394,0.0867,0,0,0.0*
1,1,0.0474,0.0197,-0.0197*
1,1,0.0474,-0.0197,-0.0197*
1,1,0.0474,-0.0197,0.0197*
1,1,0.0474,0.0197,0.0197*
%
%ADD145ROUNDEDRECTD145*%
%ADD146C,0.0671*%
G04:AMPARAMS|DCode=147|XSize=67.1mil|YSize=67.1mil|CornerRadius=11.4mil|HoleSize=0mil|Usage=FLASHONLY|Rotation=0.000|XOffset=0mil|YOffset=0mil|HoleType=Round|Shape=RoundedRectangle|*
%AMROUNDEDRECTD147*
21,1,0.0671,0.0443,0,0,0.0*
21,1,0.0443,0.0671,0,0,0.0*
1,1,0.0228,0.0221,-0.0221*
1,1,0.0228,-0.0221,-0.0221*
1,1,0.0228,-0.0221,0.0221*
1,1,0.0228,0.0221,0.0221*
%
%ADD147ROUNDEDRECTD147*%
%ADD148C,0.0474*%
%ADD149O,0.0671X0.0493*%
%ADD150O,0.0680X0.0880*%
%ADD151O,0.0630X0.0880*%
D98*
X025431Y066639D02*
D03*
X032283Y067047D02*
D03*
X040945Y061575D02*
D03*
X026159Y066644D02*
D03*
X030906Y067047D02*
D03*
X042163Y061575D02*
D03*
X029528Y067047D02*
D03*
X043406Y061575D02*
D03*
X044646D02*
D03*
X045827D02*
D03*
X047047D02*
D03*
X069449Y055276D02*
D03*
X046388Y067057D02*
D03*
X018898Y061142D02*
D03*
X021063Y059771D02*
D03*
X027992D02*
D03*
X034921D02*
D03*
X041850D02*
D03*
X039764Y061614D02*
D03*
X061309Y065532D02*
D03*
X062657Y065512D02*
D03*
D99*
X029833Y062333D02*
D03*
X029833Y064616D02*
D03*
D100*
X021624Y067037D02*
D03*
X023907D02*
D03*
D101*
X049761Y058898D02*
D03*
Y059154D02*
D03*
Y059410D02*
D03*
Y059666D02*
D03*
Y059922D02*
D03*
Y060178D02*
D03*
Y060433D02*
D03*
Y060689D02*
D03*
Y060945D02*
D03*
Y061201D02*
D03*
Y061457D02*
D03*
Y061713D02*
D03*
Y061969D02*
D03*
Y062225D02*
D03*
X052517D02*
D03*
Y061969D02*
D03*
Y061713D02*
D03*
Y061457D02*
D03*
Y061201D02*
D03*
Y060945D02*
D03*
Y060689D02*
D03*
Y060433D02*
D03*
Y060178D02*
D03*
Y059922D02*
D03*
Y059666D02*
D03*
Y059410D02*
D03*
Y059154D02*
D03*
Y058898D02*
D03*
D102*
X025431Y066939D02*
D03*
Y066339D02*
D03*
X032283Y067347D02*
D03*
Y066747D02*
D03*
X040945Y061275D02*
D03*
Y061875D02*
D03*
X026159Y066944D02*
D03*
Y066344D02*
D03*
X030906Y067347D02*
D03*
Y066747D02*
D03*
X042163Y061275D02*
D03*
Y061875D02*
D03*
X029528Y067347D02*
D03*
Y066747D02*
D03*
X043406Y061275D02*
D03*
Y061875D02*
D03*
X044646Y061275D02*
D03*
Y061875D02*
D03*
X045827Y061275D02*
D03*
Y061875D02*
D03*
X047047Y061275D02*
D03*
Y061875D02*
D03*
X069449Y054976D02*
D03*
Y055576D02*
D03*
X046388Y067357D02*
D03*
Y066757D02*
D03*
X018898Y060842D02*
D03*
Y061442D02*
D03*
X021063Y060071D02*
D03*
Y059471D02*
D03*
X027992Y060071D02*
D03*
Y059471D02*
D03*
X034921Y060071D02*
D03*
Y059471D02*
D03*
X041850Y060071D02*
D03*
Y059471D02*
D03*
X039764Y061314D02*
D03*
Y061914D02*
D03*
X061309Y065831D02*
D03*
Y065231D02*
D03*
X062657Y065812D02*
D03*
Y065212D02*
D03*
D103*
X026061Y054895D02*
D03*
Y057021D02*
D03*
X032975Y054855D02*
D03*
Y056981D02*
D03*
X039904Y054855D02*
D03*
Y056981D02*
D03*
X046833Y054855D02*
D03*
Y056981D02*
D03*
X063346Y054055D02*
D03*
Y051929D02*
D03*
X066378Y054055D02*
D03*
Y051929D02*
D03*
X066142Y042047D02*
D03*
Y044173D02*
D03*
X054409Y042047D02*
D03*
Y044173D02*
D03*
X060236Y042047D02*
D03*
Y044173D02*
D03*
X063189Y042047D02*
D03*
Y044173D02*
D03*
X057283Y042047D02*
D03*
Y044173D02*
D03*
D104*
X026742Y052776D02*
D03*
X026033D02*
D03*
X033652D02*
D03*
X032943D02*
D03*
X040630Y052815D02*
D03*
X039921D02*
D03*
X047520Y052835D02*
D03*
X046811D02*
D03*
X067205Y049252D02*
D03*
X067913D02*
D03*
D105*
X026378Y052224D02*
D03*
Y051555D02*
D03*
X033179Y052237D02*
D03*
Y051568D02*
D03*
X040098Y052274D02*
D03*
Y051604D02*
D03*
X047126Y052254D02*
D03*
Y051585D02*
D03*
X026211Y050492D02*
D03*
Y049823D02*
D03*
X033150Y050472D02*
D03*
Y049803D02*
D03*
X040069Y050561D02*
D03*
Y049892D02*
D03*
X047018Y050482D02*
D03*
Y049813D02*
D03*
X056201Y073681D02*
D03*
Y074350D02*
D03*
X028081Y063898D02*
D03*
Y063228D02*
D03*
X027441Y063878D02*
D03*
Y063209D02*
D03*
X058563Y073681D02*
D03*
Y074350D02*
D03*
X060945Y073681D02*
D03*
Y074350D02*
D03*
X055984Y059468D02*
D03*
Y058799D02*
D03*
X056614Y059468D02*
D03*
Y058799D02*
D03*
X063307Y073681D02*
D03*
Y074350D02*
D03*
X065650Y073681D02*
D03*
Y074350D02*
D03*
X067992Y073681D02*
D03*
Y074350D02*
D03*
X070354Y073681D02*
D03*
Y074350D02*
D03*
X064055Y055571D02*
D03*
Y056240D02*
D03*
X064921Y055571D02*
D03*
Y056240D02*
D03*
X065866Y055571D02*
D03*
Y056240D02*
D03*
X072717Y073681D02*
D03*
Y074350D02*
D03*
X060276Y055256D02*
D03*
Y054587D02*
D03*
X060984Y055263D02*
D03*
Y054594D02*
D03*
X061693Y055263D02*
D03*
Y054594D02*
D03*
X054508Y065728D02*
D03*
Y066398D02*
D03*
X053819Y066014D02*
D03*
Y066683D02*
D03*
X053194Y066004D02*
D03*
Y066673D02*
D03*
X047500Y067333D02*
D03*
Y066663D02*
D03*
X048720Y067333D02*
D03*
Y066663D02*
D03*
X048110Y067333D02*
D03*
Y066663D02*
D03*
X027549Y065650D02*
D03*
Y066319D02*
D03*
X028169Y065650D02*
D03*
Y066319D02*
D03*
X017638Y074961D02*
D03*
Y074291D02*
D03*
X018661Y074961D02*
D03*
Y074291D02*
D03*
X018661Y072579D02*
D03*
Y071909D02*
D03*
X018661Y070197D02*
D03*
Y069527D02*
D03*
X027793Y047434D02*
D03*
Y048103D02*
D03*
X034722Y047434D02*
D03*
Y048103D02*
D03*
X041651Y047434D02*
D03*
Y048103D02*
D03*
X048580Y047434D02*
D03*
Y048103D02*
D03*
X020982Y042867D02*
D03*
Y043537D02*
D03*
X027911Y042867D02*
D03*
Y043537D02*
D03*
X034840Y042867D02*
D03*
Y043537D02*
D03*
X041769Y042867D02*
D03*
Y043537D02*
D03*
X027795Y046838D02*
D03*
Y046169D02*
D03*
X034724Y046838D02*
D03*
Y046169D02*
D03*
X041654Y046838D02*
D03*
Y046169D02*
D03*
X048583Y046838D02*
D03*
Y046169D02*
D03*
X045689Y067382D02*
D03*
Y066713D02*
D03*
X021496Y054468D02*
D03*
Y055138D02*
D03*
X027913Y054437D02*
D03*
Y055106D02*
D03*
X034843Y054437D02*
D03*
Y055106D02*
D03*
X041772Y054437D02*
D03*
Y055106D02*
D03*
X021024Y058531D02*
D03*
Y057862D02*
D03*
X027953Y058531D02*
D03*
Y057862D02*
D03*
X034882Y058531D02*
D03*
Y057862D02*
D03*
X041811Y058531D02*
D03*
Y057862D02*
D03*
X056201Y072303D02*
D03*
Y072972D02*
D03*
X055413Y072972D02*
D03*
Y072303D02*
D03*
Y074350D02*
D03*
Y073681D02*
D03*
X029567Y065374D02*
D03*
Y066043D02*
D03*
X058563Y072303D02*
D03*
Y072972D02*
D03*
X068081Y045098D02*
D03*
Y044429D02*
D03*
X030906Y065374D02*
D03*
Y066043D02*
D03*
X057776Y072972D02*
D03*
Y072303D02*
D03*
Y074350D02*
D03*
Y073681D02*
D03*
X032283Y065374D02*
D03*
Y066043D02*
D03*
X060925Y072303D02*
D03*
Y072972D02*
D03*
X060118Y072972D02*
D03*
Y072303D02*
D03*
Y074350D02*
D03*
Y073681D02*
D03*
X040945Y063169D02*
D03*
Y062500D02*
D03*
X063287Y072303D02*
D03*
Y072972D02*
D03*
X042165Y063169D02*
D03*
Y062500D02*
D03*
X062480Y072972D02*
D03*
Y072303D02*
D03*
Y074350D02*
D03*
Y073681D02*
D03*
X043406Y063169D02*
D03*
Y062500D02*
D03*
X044652Y063169D02*
D03*
Y062500D02*
D03*
X047066Y063169D02*
D03*
Y062500D02*
D03*
X045827Y063169D02*
D03*
Y062500D02*
D03*
X065650Y072303D02*
D03*
Y072972D02*
D03*
X064882Y072972D02*
D03*
Y072303D02*
D03*
X064862Y074350D02*
D03*
Y073681D02*
D03*
X039764Y063209D02*
D03*
Y062539D02*
D03*
X068012Y072303D02*
D03*
Y072972D02*
D03*
X067224Y072972D02*
D03*
Y072303D02*
D03*
Y074350D02*
D03*
Y073681D02*
D03*
X070354Y072303D02*
D03*
Y072972D02*
D03*
X069587Y072953D02*
D03*
Y072283D02*
D03*
X069606Y074350D02*
D03*
Y073681D02*
D03*
X070413Y054941D02*
D03*
Y055610D02*
D03*
X072717Y072303D02*
D03*
Y072972D02*
D03*
X071949Y072953D02*
D03*
Y072283D02*
D03*
Y074331D02*
D03*
Y073661D02*
D03*
X018957Y062726D02*
D03*
Y062057D02*
D03*
X018307Y062047D02*
D03*
Y062717D02*
D03*
X017677Y062047D02*
D03*
Y062717D02*
D03*
X018661Y069016D02*
D03*
Y068346D02*
D03*
Y071398D02*
D03*
Y070728D02*
D03*
Y073780D02*
D03*
Y073110D02*
D03*
X017638Y073780D02*
D03*
Y073110D02*
D03*
X018937Y065020D02*
D03*
Y064350D02*
D03*
X018976Y059626D02*
D03*
Y058957D02*
D03*
Y058406D02*
D03*
Y057736D02*
D03*
Y057185D02*
D03*
Y056516D02*
D03*
D106*
X022126Y054568D02*
D03*
Y055118D02*
D03*
X028502Y054581D02*
D03*
Y055131D02*
D03*
X035431Y054581D02*
D03*
Y055131D02*
D03*
X042360Y054581D02*
D03*
Y055131D02*
D03*
X023150Y055117D02*
D03*
Y054567D02*
D03*
X029722Y055130D02*
D03*
Y054580D02*
D03*
X036651Y055130D02*
D03*
Y054580D02*
D03*
X043580Y055130D02*
D03*
Y054580D02*
D03*
X022638Y054568D02*
D03*
Y055118D02*
D03*
X029092Y054581D02*
D03*
Y055131D02*
D03*
X036021Y054581D02*
D03*
Y055131D02*
D03*
X042950Y054581D02*
D03*
Y055131D02*
D03*
D107*
X065374Y046693D02*
D03*
X066043D02*
D03*
X066043Y047953D02*
D03*
X065374D02*
D03*
X060846Y064016D02*
D03*
X061516D02*
D03*
X063211Y064016D02*
D03*
X063880D02*
D03*
X056177Y064055D02*
D03*
X056847D02*
D03*
X058445Y064035D02*
D03*
X059114D02*
D03*
X021604Y061230D02*
D03*
X022274D02*
D03*
X023533Y061220D02*
D03*
X024203D02*
D03*
X021890Y064951D02*
D03*
X022559D02*
D03*
X023848D02*
D03*
X023179D02*
D03*
X021890Y065561D02*
D03*
X022559D02*
D03*
X023848D02*
D03*
X023179D02*
D03*
X023206Y049501D02*
D03*
X023876D02*
D03*
X030135D02*
D03*
X030805D02*
D03*
X037065D02*
D03*
X037734D02*
D03*
X043994D02*
D03*
X044663D02*
D03*
X021713Y060086D02*
D03*
X022382D02*
D03*
X028642D02*
D03*
X029311D02*
D03*
X035571D02*
D03*
X036240D02*
D03*
X042500D02*
D03*
X043169D02*
D03*
X058445Y063406D02*
D03*
X059114D02*
D03*
X056177Y063425D02*
D03*
X056847D02*
D03*
X065374Y046063D02*
D03*
X066043D02*
D03*
X066043Y047323D02*
D03*
X065374D02*
D03*
X065374Y048583D02*
D03*
X066043D02*
D03*
X025837Y053573D02*
D03*
X025167D02*
D03*
X032667Y053406D02*
D03*
X031998D02*
D03*
X039616Y053386D02*
D03*
X038947D02*
D03*
X046457Y053543D02*
D03*
X045787D02*
D03*
X049193Y070866D02*
D03*
X048524D02*
D03*
X046594D02*
D03*
X045925D02*
D03*
X044035Y070906D02*
D03*
X043366D02*
D03*
X041476Y070866D02*
D03*
X040807D02*
D03*
X038917D02*
D03*
X038248D02*
D03*
X035650Y070906D02*
D03*
X036319D02*
D03*
X033839Y070866D02*
D03*
X033169D02*
D03*
X063211Y063386D02*
D03*
X063880D02*
D03*
X060846Y063406D02*
D03*
X061516D02*
D03*
X031358Y070906D02*
D03*
X030689D02*
D03*
X063848Y058937D02*
D03*
X064518D02*
D03*
X063848Y059587D02*
D03*
X064518D02*
D03*
D108*
X072441Y043110D02*
D03*
X073622D02*
D03*
X072441Y042165D02*
D03*
X073622D02*
D03*
X072441Y044055D02*
D03*
X073622D02*
D03*
D109*
X069213Y053425D02*
D03*
Y052244D02*
D03*
D110*
X070433Y067559D02*
D03*
X072559D02*
D03*
X060512Y050039D02*
D03*
X062638D02*
D03*
X060488Y047165D02*
D03*
X062614D02*
D03*
X053819Y070551D02*
D03*
X051693D02*
D03*
X053819Y073465D02*
D03*
X051693D02*
D03*
D111*
X026742Y063195D02*
D03*
Y063903D02*
D03*
X055276Y058740D02*
D03*
Y059449D02*
D03*
X026850Y066299D02*
D03*
Y065591D02*
D03*
X034537Y064085D02*
D03*
Y063376D02*
D03*
D112*
X074116Y047992D02*
D03*
X072656D02*
D03*
D113*
X056163Y070669D02*
D03*
X055413Y070669D02*
D03*
X058526Y070669D02*
D03*
X057776Y070669D02*
D03*
X060888Y070669D02*
D03*
X060138Y070669D02*
D03*
X063250Y070669D02*
D03*
X062500Y070669D02*
D03*
X065612Y070669D02*
D03*
X064862Y070669D02*
D03*
X067974Y070669D02*
D03*
X067224Y070669D02*
D03*
X070337Y070748D02*
D03*
X069587Y070748D02*
D03*
X072699Y070748D02*
D03*
X071949Y070748D02*
D03*
D114*
X055793Y071469D02*
D03*
X058156D02*
D03*
X060518Y071469D02*
D03*
X062880Y071469D02*
D03*
X065242D02*
D03*
X067604D02*
D03*
X069967Y071548D02*
D03*
X072329D02*
D03*
D115*
X022421Y058945D02*
D03*
X023091D02*
D03*
X029350D02*
D03*
X030020D02*
D03*
X036280D02*
D03*
X036949D02*
D03*
X043209D02*
D03*
X043878D02*
D03*
X048484Y072146D02*
D03*
X049154D02*
D03*
X045925Y072146D02*
D03*
X046594D02*
D03*
X043366Y072146D02*
D03*
X044035D02*
D03*
X040807D02*
D03*
X041476D02*
D03*
X038248D02*
D03*
X038917D02*
D03*
X035689D02*
D03*
X036358D02*
D03*
X033051Y072126D02*
D03*
X033720D02*
D03*
X030728D02*
D03*
X031398D02*
D03*
X026398Y053465D02*
D03*
X027067D02*
D03*
X033287Y053406D02*
D03*
X033957D02*
D03*
X040197Y053386D02*
D03*
X040866D02*
D03*
X047067Y053455D02*
D03*
X047736D02*
D03*
X022382Y057803D02*
D03*
X023051D02*
D03*
X029311D02*
D03*
X029980D02*
D03*
X036240D02*
D03*
X036909D02*
D03*
X043169D02*
D03*
X043839D02*
D03*
D116*
X072441Y053563D02*
D03*
Y049823D02*
D03*
D117*
X023295Y046434D02*
D03*
Y046694D02*
D03*
Y046954D02*
D03*
Y047214D02*
D03*
X022055Y046434D02*
D03*
Y046694D02*
D03*
Y046954D02*
D03*
Y047214D02*
D03*
X030224Y046434D02*
D03*
Y046694D02*
D03*
Y046954D02*
D03*
Y047214D02*
D03*
X028984Y046434D02*
D03*
Y046694D02*
D03*
Y046954D02*
D03*
Y047214D02*
D03*
X037153Y046434D02*
D03*
Y046694D02*
D03*
Y046954D02*
D03*
Y047214D02*
D03*
X035913Y046434D02*
D03*
Y046694D02*
D03*
Y046954D02*
D03*
Y047214D02*
D03*
X044082Y046434D02*
D03*
Y046694D02*
D03*
Y046954D02*
D03*
Y047214D02*
D03*
X042842Y046434D02*
D03*
Y046694D02*
D03*
Y046954D02*
D03*
Y047214D02*
D03*
X025441D02*
D03*
Y046954D02*
D03*
Y046694D02*
D03*
Y046434D02*
D03*
X026681Y047214D02*
D03*
Y046954D02*
D03*
Y046694D02*
D03*
Y046434D02*
D03*
X032370Y047214D02*
D03*
Y046954D02*
D03*
Y046694D02*
D03*
Y046434D02*
D03*
X033610Y047214D02*
D03*
Y046954D02*
D03*
Y046694D02*
D03*
Y046434D02*
D03*
X039299Y047214D02*
D03*
Y046954D02*
D03*
Y046694D02*
D03*
Y046434D02*
D03*
X040539Y047214D02*
D03*
Y046954D02*
D03*
Y046694D02*
D03*
Y046434D02*
D03*
X046228Y047214D02*
D03*
Y046954D02*
D03*
Y046694D02*
D03*
Y046434D02*
D03*
X047468Y047214D02*
D03*
Y046954D02*
D03*
Y046694D02*
D03*
Y046434D02*
D03*
X022055Y045088D02*
D03*
Y044828D02*
D03*
Y044568D02*
D03*
Y044308D02*
D03*
X023295Y045088D02*
D03*
Y044828D02*
D03*
Y044568D02*
D03*
Y044308D02*
D03*
X028984Y045088D02*
D03*
Y044828D02*
D03*
Y044568D02*
D03*
Y044308D02*
D03*
X030224Y045088D02*
D03*
Y044828D02*
D03*
Y044568D02*
D03*
Y044308D02*
D03*
X035913Y045088D02*
D03*
Y044828D02*
D03*
Y044568D02*
D03*
Y044308D02*
D03*
X037153Y045088D02*
D03*
Y044828D02*
D03*
Y044568D02*
D03*
Y044308D02*
D03*
X042842Y045088D02*
D03*
Y044828D02*
D03*
Y044568D02*
D03*
Y044308D02*
D03*
X044082Y045088D02*
D03*
Y044828D02*
D03*
Y044568D02*
D03*
Y044308D02*
D03*
X026641D02*
D03*
Y044568D02*
D03*
Y044828D02*
D03*
Y045088D02*
D03*
X025401Y044308D02*
D03*
Y044568D02*
D03*
Y044828D02*
D03*
Y045088D02*
D03*
X033570Y044308D02*
D03*
Y044568D02*
D03*
Y044828D02*
D03*
Y045088D02*
D03*
X032330Y044308D02*
D03*
Y044568D02*
D03*
Y044828D02*
D03*
Y045088D02*
D03*
X040500Y044308D02*
D03*
Y044568D02*
D03*
Y044828D02*
D03*
Y045088D02*
D03*
X039260Y044308D02*
D03*
Y044568D02*
D03*
Y044828D02*
D03*
Y045088D02*
D03*
X047429Y044308D02*
D03*
Y044568D02*
D03*
Y044828D02*
D03*
Y045088D02*
D03*
X046189Y044308D02*
D03*
Y044568D02*
D03*
Y044828D02*
D03*
Y045088D02*
D03*
D118*
X022455Y046824D02*
D03*
X029384D02*
D03*
X036313D02*
D03*
X043242D02*
D03*
X026281D02*
D03*
X033210D02*
D03*
X040139D02*
D03*
X047068D02*
D03*
X022895Y044698D02*
D03*
X029824D02*
D03*
X036753D02*
D03*
X043682D02*
D03*
X025801D02*
D03*
X032730D02*
D03*
X039660D02*
D03*
X046589D02*
D03*
D119*
X070079Y045707D02*
D03*
D120*
X070463Y045122D02*
D03*
X070207D02*
D03*
X069951D02*
D03*
X069695D02*
D03*
Y046547D02*
D03*
X069951D02*
D03*
X070207D02*
D03*
X070463D02*
D03*
D121*
X018366Y056398D02*
D03*
Y057146D02*
D03*
X017461Y056772D02*
D03*
X018366Y057657D02*
D03*
Y058406D02*
D03*
X017461Y058032D02*
D03*
X018366Y058996D02*
D03*
Y059744D02*
D03*
X017461Y059370D02*
D03*
X018327Y064311D02*
D03*
Y065059D02*
D03*
X017421Y064685D02*
D03*
D122*
X022172Y050187D02*
D03*
Y052687D02*
D03*
X029101Y050187D02*
D03*
Y052687D02*
D03*
X036030Y050187D02*
D03*
Y052687D02*
D03*
X042959Y050187D02*
D03*
Y052687D02*
D03*
D123*
X069951Y043228D02*
D03*
Y042048D02*
D03*
D124*
X049705Y073780D02*
D03*
X047933D02*
D03*
Y077008D02*
D03*
X049705D02*
D03*
X047146Y073780D02*
D03*
X045374D02*
D03*
Y077008D02*
D03*
X047146D02*
D03*
X044587Y073780D02*
D03*
X042815D02*
D03*
Y077008D02*
D03*
X044587D02*
D03*
X042028Y073780D02*
D03*
X040256D02*
D03*
Y077008D02*
D03*
X042028D02*
D03*
X039469Y073780D02*
D03*
X037697D02*
D03*
Y077008D02*
D03*
X039469D02*
D03*
X036909Y073780D02*
D03*
X035138D02*
D03*
Y077008D02*
D03*
X036909D02*
D03*
X034350Y073780D02*
D03*
X032579D02*
D03*
Y077008D02*
D03*
X034350D02*
D03*
X031831Y073780D02*
D03*
X030059D02*
D03*
Y077008D02*
D03*
X031831D02*
D03*
D125*
X025008Y059090D02*
D03*
X031937D02*
D03*
X038866D02*
D03*
X045795D02*
D03*
D126*
X027008Y059590D02*
D03*
Y058590D02*
D03*
X033937Y059590D02*
D03*
Y058590D02*
D03*
X040866Y059590D02*
D03*
Y058590D02*
D03*
X047795Y059590D02*
D03*
Y058590D02*
D03*
D127*
X024446Y052100D02*
D03*
X031376D02*
D03*
X038305D02*
D03*
X045234D02*
D03*
D128*
X024053Y052989D02*
D03*
X024250D02*
D03*
X024446D02*
D03*
X024643D02*
D03*
X024840D02*
D03*
Y051210D02*
D03*
X024643D02*
D03*
X024446D02*
D03*
X024250D02*
D03*
X024053D02*
D03*
X030982Y052989D02*
D03*
X031179D02*
D03*
X031376D02*
D03*
X031572D02*
D03*
X031769D02*
D03*
Y051210D02*
D03*
X031572D02*
D03*
X031376D02*
D03*
X031179D02*
D03*
X030982D02*
D03*
X037911Y052989D02*
D03*
X038108D02*
D03*
X038305D02*
D03*
X038502D02*
D03*
X038698D02*
D03*
Y051210D02*
D03*
X038502D02*
D03*
X038305D02*
D03*
X038108D02*
D03*
X037911D02*
D03*
X044840Y052989D02*
D03*
X045037D02*
D03*
X045234D02*
D03*
X045431D02*
D03*
X045628D02*
D03*
Y051210D02*
D03*
X045431D02*
D03*
X045234D02*
D03*
X045037D02*
D03*
X044840D02*
D03*
D129*
X025336Y052493D02*
D03*
Y052296D02*
D03*
Y052100D02*
D03*
Y051903D02*
D03*
Y051706D02*
D03*
X023557D02*
D03*
Y051903D02*
D03*
Y052100D02*
D03*
Y052296D02*
D03*
Y052493D02*
D03*
X032265D02*
D03*
Y052296D02*
D03*
Y052100D02*
D03*
Y051903D02*
D03*
Y051706D02*
D03*
X030486D02*
D03*
Y051903D02*
D03*
Y052100D02*
D03*
Y052296D02*
D03*
Y052493D02*
D03*
X039194D02*
D03*
Y052296D02*
D03*
Y052100D02*
D03*
Y051903D02*
D03*
Y051706D02*
D03*
X037415D02*
D03*
Y051903D02*
D03*
Y052100D02*
D03*
Y052296D02*
D03*
Y052493D02*
D03*
X046124D02*
D03*
Y052296D02*
D03*
Y052100D02*
D03*
Y051903D02*
D03*
Y051706D02*
D03*
X044344D02*
D03*
Y051903D02*
D03*
Y052100D02*
D03*
Y052296D02*
D03*
Y052493D02*
D03*
D130*
X029961Y062333D02*
D03*
X028937Y064616D02*
D03*
Y062333D02*
D03*
X029193D02*
D03*
X029449D02*
D03*
X029705D02*
D03*
X029193Y064616D02*
D03*
X029449D02*
D03*
X029705D02*
D03*
X029961D02*
D03*
X030728D02*
D03*
X030472D02*
D03*
X030217D02*
D03*
X030472Y062333D02*
D03*
X030217D02*
D03*
X030728D02*
D03*
D131*
X067825Y046576D02*
D03*
X068081D02*
D03*
X068337D02*
D03*
X068593D02*
D03*
Y048306D02*
D03*
X068337D02*
D03*
X068081D02*
D03*
X067825D02*
D03*
D132*
X068209Y047441D02*
D03*
D133*
X071798Y064233D02*
D03*
D134*
X072798Y059783D02*
D03*
X070798D02*
D03*
D135*
X062835Y056014D02*
D03*
Y056270D02*
D03*
Y056526D02*
D03*
Y056782D02*
D03*
Y057037D02*
D03*
Y057293D02*
D03*
Y057549D02*
D03*
X060551Y056014D02*
D03*
Y056270D02*
D03*
Y056526D02*
D03*
Y056782D02*
D03*
Y057037D02*
D03*
Y057293D02*
D03*
Y057549D02*
D03*
Y058317D02*
D03*
Y058061D02*
D03*
Y057805D02*
D03*
X062835Y058317D02*
D03*
Y058061D02*
D03*
Y057805D02*
D03*
X052362Y066407D02*
D03*
Y066663D02*
D03*
Y066919D02*
D03*
Y067175D02*
D03*
Y067431D02*
D03*
Y067687D02*
D03*
Y067943D02*
D03*
X050079Y066407D02*
D03*
Y066663D02*
D03*
Y066919D02*
D03*
Y067175D02*
D03*
Y067431D02*
D03*
Y067687D02*
D03*
Y067943D02*
D03*
Y068711D02*
D03*
Y068455D02*
D03*
Y068199D02*
D03*
X052362Y068711D02*
D03*
Y068455D02*
D03*
Y068199D02*
D03*
X024055Y062057D02*
D03*
Y062313D02*
D03*
Y062569D02*
D03*
Y062825D02*
D03*
Y063081D02*
D03*
Y063337D02*
D03*
Y063593D02*
D03*
X021772Y062057D02*
D03*
Y062313D02*
D03*
Y062569D02*
D03*
Y062825D02*
D03*
Y063081D02*
D03*
Y063337D02*
D03*
Y063593D02*
D03*
Y064360D02*
D03*
Y064104D02*
D03*
Y063848D02*
D03*
X024055Y064360D02*
D03*
Y064104D02*
D03*
Y063848D02*
D03*
D136*
X021624Y066909D02*
D03*
X023907Y067933D02*
D03*
X021624D02*
D03*
Y067677D02*
D03*
Y067421D02*
D03*
Y067165D02*
D03*
X023907Y067677D02*
D03*
Y067421D02*
D03*
Y067165D02*
D03*
Y066909D02*
D03*
Y066142D02*
D03*
Y066398D02*
D03*
Y066654D02*
D03*
X021624Y066398D02*
D03*
Y066654D02*
D03*
Y066142D02*
D03*
D137*
X018898Y055118D02*
D03*
X018110Y040157D02*
D03*
Y076575D02*
D03*
X051575Y040157D02*
D03*
Y076575D02*
D03*
X074409D02*
D03*
Y057283D02*
D03*
X051575D02*
D03*
X074409Y040157D02*
D03*
D138*
X059551Y046206D02*
D03*
X047638Y039488D02*
D03*
D139*
X027881Y042087D02*
D03*
X034813Y041968D02*
D03*
X041722Y042087D02*
D03*
D140*
X027864Y052923D02*
D03*
X034796Y052982D02*
D03*
X041703Y052933D02*
D03*
X020945Y052795D02*
D03*
D141*
X020965Y042126D02*
D03*
D142*
X021024Y069643D02*
D03*
X022598D02*
D03*
X021811D02*
D03*
X021024Y071890D02*
D03*
X022598D02*
D03*
X021811D02*
D03*
X020999Y074134D02*
D03*
X022573D02*
D03*
X021786D02*
D03*
X020999Y076378D02*
D03*
X022573D02*
D03*
X021786D02*
D03*
X025512Y069646D02*
D03*
X027087D02*
D03*
X027874D02*
D03*
X026299D02*
D03*
X025512Y071890D02*
D03*
X027087D02*
D03*
X027874D02*
D03*
X026299D02*
D03*
X025512Y074134D02*
D03*
X027087D02*
D03*
X027874D02*
D03*
X026299D02*
D03*
X025512Y076378D02*
D03*
X027087D02*
D03*
X027874D02*
D03*
X026299D02*
D03*
X058189Y046956D02*
D03*
X056614D02*
D03*
X057402D02*
D03*
X058189Y049200D02*
D03*
X056614D02*
D03*
X057402D02*
D03*
X058189Y051365D02*
D03*
X056614D02*
D03*
X057402D02*
D03*
X058189Y053530D02*
D03*
X056614D02*
D03*
X057402D02*
D03*
X058189Y055696D02*
D03*
X056614D02*
D03*
X057402D02*
D03*
D143*
X072492Y077080D02*
D03*
X071492D02*
D03*
X070492D02*
D03*
X069492D02*
D03*
X068492D02*
D03*
X067492D02*
D03*
X066492D02*
D03*
X065492D02*
D03*
X064492D02*
D03*
X063492D02*
D03*
X062492D02*
D03*
X061492D02*
D03*
X060492D02*
D03*
X059492D02*
D03*
X058492D02*
D03*
X057492D02*
D03*
X056492D02*
D03*
X055492D02*
D03*
X054492D02*
D03*
X053492D02*
D03*
X072492Y076080D02*
D03*
X071492D02*
D03*
X070492D02*
D03*
X069492D02*
D03*
X068492D02*
D03*
X067492D02*
D03*
X066492D02*
D03*
X065492D02*
D03*
X064492D02*
D03*
X063492D02*
D03*
X062492D02*
D03*
X061492D02*
D03*
X060492D02*
D03*
X059492D02*
D03*
X058492D02*
D03*
X057492D02*
D03*
X056492D02*
D03*
X055492D02*
D03*
X054492D02*
D03*
D144*
X053492D02*
D03*
D145*
X064114Y039567D02*
D03*
X063130D02*
D03*
X060965D02*
D03*
X059980D02*
D03*
X057815D02*
D03*
X056831D02*
D03*
X054665D02*
D03*
X053681D02*
D03*
X067264D02*
D03*
X066280D02*
D03*
X070413D02*
D03*
X069429D02*
D03*
D146*
X024719Y042357D02*
D03*
X023932D02*
D03*
X025506Y042337D02*
D03*
X023144Y040389D02*
D03*
X023932D02*
D03*
X024719D02*
D03*
X025506D02*
D03*
X031648Y042377D02*
D03*
X030861D02*
D03*
X032436Y042357D02*
D03*
X030073Y040409D02*
D03*
X030861D02*
D03*
X031648D02*
D03*
X032436D02*
D03*
X038583Y042382D02*
D03*
X037795D02*
D03*
X039370Y042362D02*
D03*
X037008Y040413D02*
D03*
X037795D02*
D03*
X038583D02*
D03*
X039370D02*
D03*
X045551Y042402D02*
D03*
X044764D02*
D03*
X046339Y042382D02*
D03*
X043976Y040433D02*
D03*
X044764D02*
D03*
X045551D02*
D03*
X046339D02*
D03*
D147*
X023144Y042357D02*
D03*
X030073Y042377D02*
D03*
X037008Y042382D02*
D03*
X043976Y042402D02*
D03*
D148*
X022573Y042968D02*
D03*
X029503Y042988D02*
D03*
X036437Y042992D02*
D03*
X043406Y043012D02*
D03*
D149*
X018189Y052913D02*
D03*
Y052126D02*
D03*
Y049567D02*
D03*
Y048780D02*
D03*
Y046281D02*
D03*
Y045493D02*
D03*
Y042874D02*
D03*
Y042087D02*
D03*
D150*
X057051Y062433D02*
D03*
X058051D02*
D03*
X061051D02*
D03*
X062051D02*
D03*
X054551Y061283D02*
D03*
X055551D02*
D03*
X056551D02*
D03*
X057551D02*
D03*
X058551D02*
D03*
X059551D02*
D03*
X060551D02*
D03*
X061551D02*
D03*
X062551D02*
D03*
X063551D02*
D03*
X064551D02*
D03*
X065551D02*
D03*
X063551Y067283D02*
D03*
X054551D02*
D03*
X055551D02*
D03*
X056551D02*
D03*
X057551D02*
D03*
X058551D02*
D03*
X059551D02*
D03*
X060551D02*
D03*
X061551D02*
D03*
X062551D02*
D03*
X064551D02*
D03*
X065551D02*
D03*
D151*
X032409Y068118D02*
D03*
X033409D02*
D03*
X034409D02*
D03*
X035409D02*
D03*
X036409D02*
D03*
Y062118D02*
D03*
X035409D02*
D03*
X034409D02*
D03*
X033409D02*
D03*
X032409D02*
D03*
M02*
