M48
;Layer_Color=9474304
;FILE_FORMAT=2:5
INCH
;TYPE=PLATED
T1F00S00C0.01299
T2F00S00C0.01300
T3F00S00C0.01500
T4F00S00C0.01968
T5F00S00C0.02000
T6F00S00C0.02756
T7F00S00C0.03500
T8F00S00C0.03937
T9F00S00C0.04000
T10F00S00C0.04200
T11F00S00C0.05000
T12F00S00C0.10827
%
T01
X0273796Y0464276
X0343087
X0412379Y0464276
X0480953Y0463559
X0631102Y0554232
X0635728Y0557382
X0645177Y0555709
X0653740Y0555905
X0633465Y0595669
X0610512Y0608268
X0600394
X0603150Y0622047
X0595669Y0589763
X0594095Y0583465
X0602756Y0556791
X0609744Y0556693
X0616535Y0556595
X0547539Y0575272
X0545472Y0579035
X0503150Y0589764
X0503937Y0594095
Y0603562
X0503936Y0607873
Y0611810
Y0615747
X0503937Y0619685
X0488189Y0603937
X0487008Y0594685
X0485236Y0585312
X0464961Y0589495
X0444882Y0586614
X0442913Y0602334
X0409249Y0590902
X0398031Y0591240
X0381791Y0595895
X0381908Y0624932
X0390303Y0620350
X0393326Y0622963
X0359252Y0606398
X0330725Y0593828
X0333071Y0586614
X0314075Y0605905
X0312008Y0595079
X0307185Y0617126
X0302475Y0616959
X0293026Y0616073
X0285039Y0616534
X0282283Y0619291
X0278346Y0622047
X0248031Y0621850
X0245571Y0616339
X0245374Y0608760
X0233858Y0605905
X0234646Y0600394
X0229134Y0597244
X0240945Y0596063
X0242717Y0589446
X0262992Y0590551
X0262217Y0598651
X0227264Y0612598
X0217913Y0616732
X0213133Y0617028
X0206201Y0617717
X0208661Y0624409
X0195669Y0623227
X0193907Y0619814
X0194095Y0610236
X0192126Y0603543
X0192519Y0599605
X0186614Y0600394
X0184252Y0593307
X0185827Y0586221
X0192596Y0585666
Y0572280
X0185826Y0572833
X0183858Y0566929
X0183071Y0580315
X0180315Y0616732
X0176772Y0615354
X0311811Y0622539
X0310531Y0636263
X0307480Y0640156
X0301772Y0640748
X0297638Y0640551
X0292518Y0640550
X0292126Y0633465
X0302755Y0636613
X0299999Y0651574
X0304724Y0655709
X0291929Y0655315
X0290945Y0661417
X0284744Y0652559
X0277559Y0651279
X0270374Y0651083
X0270965Y0644488
X0277362Y0643701
X0284252Y0643307
X0277952Y0625983
X0264173
X0261417Y0628740
X0259607Y0632304
X0255807Y0633366
X0254745Y0637166
X0251083Y0638878
X0247847Y0641075
X0245374Y0644488
X0244193Y0652461
Y0658661
X0247736Y0660630
X0246666Y0667257
X0231889Y0667321
X0232972Y0671457
X0207677Y0658366
X0211614Y0646063
X0211847Y0635003
X0212205Y0631102
X0209055Y0628346
X0198425Y0631102
X0196850Y0627164
X0192576Y0630955
X0186417Y0633169
X0186221Y0637402
X0199213Y0639370
X0204626Y0639764
X0222539Y0640748
X0222244Y0635827
X0192913Y0653150
X0169685Y0640158
X0272047Y0667571
X0271653Y0673227
X0306496Y0683957
X0308957Y0742126
X0308366Y0748327
X0300197Y0744587
X0300689Y0763287
X0244587Y0731595
X0317693Y0705610
X0342323Y0706299
X0351083Y0710138
X0350787Y0745374
X0351772Y0762598
X0378346Y0762205
X0376476Y0745276
X0401949Y0744882
X0402953Y0763091
X0428937
X0428445Y0754331
X0450098Y0753346
X0454035Y0761122
X0444465Y0708661
X0418820Y0706334
X0394390Y0708563
X0394094Y0630807
X0392913Y0626772
X0402362Y0631890
X0405905Y0629920
X0413779Y0631890
X0417323Y0630315
X0426575Y0631496
X0430020Y0628445
X0438583Y0631496
X0442519Y0631101
X0450786Y0631495
X0454554Y0629696
X0463779Y0631890
X0466928Y0629526
X0452165Y0676673
X0373130Y0629528
X0373148Y0625326
X0316732Y0636350
X0318110Y0655513
X0325705Y0751119
X0325886Y0763976
X0479921Y0760800
X0484350Y0754035
X0496579Y0708401
X0470571Y0708661
X0477658Y0678346
X0483957Y0676182
X0491340Y0670768
X0519291Y0658957
X0521259Y0651180
X0526378Y0649941
Y0646123
X0531019Y0646063
X0530314Y0649999
X0535067Y0645250
X0532991Y0639764
X0520202Y0640878
X0519193Y0627264
X0557480Y0630838
X0556523Y0637826
X0580215Y0637402
X0581496Y0632283
X0583465Y0653861
X0579526Y0653937
X0575591
X0570471Y0653936
X0566536Y0653937
X0587404Y0653740
X0591339Y0653937
X0596062Y0654146
Y0662991
X0604232Y0637402
X0605117Y0631101
X0610236Y0687007
X0615353
X0620079Y0687008
X0624015Y0687007
X0615512Y0705595
X0592481Y0705143
X0580967Y0706693
X0572047Y0712598
X0566535Y0710138
X0553740Y0710728
X0566535Y0690158
X0572047
X0559054Y0679526
X0548818Y0680707
X0537794Y0679133
X0564595Y0734189
X0589173Y0733661
X0613091Y0733563
X0619193Y0746752
X0605905Y0747638
X0481101Y0637794
X0477287Y0636350
X0477165Y0630315
X0481101Y0631495
X0628563Y0630315
X0628476Y0637039
X0637795Y0708268
X0643307Y0712598
X0651998Y0706110
X0661024Y0711417
X0667717Y0713386
X0672244Y0710532
X0685433Y0713779
X0690945
X0695866Y0711417
X0709450Y0706693
X0713779Y0715354
X0719488Y0711713
X0733169Y0705610
X0739173Y0704823
X0730709Y0733268
X0730315Y0751673
X0735236Y0750984
X0691732Y0749606
X0685433Y0749213
X0668110
X0662795
X0659678Y0733992
X0682612Y0733894
X0706432Y0733599
X0689764Y0687007
X0682907Y0681037
X0673228Y0679232
X0635366Y0733894
X0637795Y0749723
X0629921Y0750394
T02
X0211811Y0390945
X0209055Y0393701
X0213976Y0428150
X0215551Y0445942
Y0448895
Y0451847
X0214567Y0460312
X0218110
X0221654
X0228287Y0460376
X0241142Y0460630
Y0457677
Y0454724
Y0463583
X0238189
Y0466535
X0241142
X0245079
Y0463583
Y0460630
X0249016
Y0463583
Y0466535
X0262787Y0460576
X0266987Y0460176
X0272638Y0455784
Y0452832
Y0449879
Y0446926
Y0443973
Y0441020
X0274705Y0428434
X0284842Y0445942
Y0448895
Y0451847
X0283858Y0460312
X0287402
X0290945
X0297578Y0460376
X0310311Y0460937
Y0457984
Y0463890
Y0466842
X0307358
Y0463890
X0314370Y0463583
Y0466535
X0318307
Y0463583
Y0460630
X0314370
X0332078Y0460576
X0336278Y0460176
X0341929Y0455784
Y0452832
Y0449879
Y0446926
Y0443973
Y0441020
X0343239Y0428740
X0354134Y0445942
Y0448895
Y0451847
X0353150Y0460312
X0356693
X0360236
X0366869Y0460376
X0379208Y0460937
Y0457984
Y0463890
Y0466842
X0376256
Y0463890
X0383858Y0463583
Y0466535
X0387598
Y0463583
Y0460630
X0383858
X0401369Y0460576
X0405569Y0460176
X0411221Y0455784
Y0452832
Y0449879
Y0446926
Y0443973
Y0441020
X0412205Y0428839
X0423425Y0445942
Y0448895
Y0451847
X0423819Y0460335
X0426673
X0429528Y0460312
X0436161Y0460376
X0449090Y0460937
Y0457984
Y0463890
Y0466842
X0446138
Y0463890
X0452953Y0463583
Y0466535
X0456890
Y0463583
Y0460630
X0452953
X0470661Y0460576
X0474861Y0460176
X0480512Y0455784
Y0452832
Y0449879
Y0446926
Y0443973
Y0441020
X0539764Y0442126
Y0438976
Y0435827
X0548425
Y0438976
Y0442126
Y0445315
Y0448279
Y0451181
X0544095
X0539764
Y0448279
Y0445315
X0568504
Y0448279
Y0451181
X0572835
X0577165
Y0448279
Y0445315
Y0442126
Y0438976
Y0435827
X0568504
Y0438976
Y0442126
X0598032
Y0438976
Y0435827
X0606693
Y0438976
Y0442126
Y0445315
Y0448279
Y0451181
X0602362
X0598032
Y0448279
Y0445315
X0620236Y0467323
X0623386
X0626535
X0629725
X0632689
X0635591
X0636221Y0451181
Y0448279
Y0445315
Y0442126
Y0438976
Y0435827
X0627559
Y0438976
Y0442126
Y0445315
Y0448279
Y0451181
X0631890
X0657087Y0451181
Y0448279
Y0445315
Y0442126
Y0438976
Y0435827
X0665748
Y0438976
Y0442126
Y0445315
Y0448279
Y0451181
X0661417
X0666738Y0463340
Y0466535
X0670067Y0463386
X0675197Y0460236
X0683858
X0710630Y0459449
X0713386
X0716142
X0718898
X0721654
X0724409
X0727165
X0729853
Y0456299
X0727165
X0724409
X0721654
X0718898
X0716142
X0713386
X0710630
Y0453150
X0713386
X0716142
X0718898
X0721654
X0724409
X0727165
X0729853
Y0450000
X0727165
X0724409
X0721654
X0718898
X0716142
X0713386
X0710630
Y0446850
X0713386
X0716142
X0718898
X0721654
X0724409Y0446926
X0727165Y0446850
X0729853
X0735039Y0446850
X0738189
X0741158
Y0442933
Y0438976
Y0435039
Y0431102
Y0427165
Y0423228
Y0419291
Y0415354
X0738189
X0735039
X0716142Y0433858
X0713386
X0710564
X0707480
Y0437008
X0710564
X0713386
X0716142
Y0443701
X0713386
X0710630
Y0464567
Y0468504
X0714567
X0718504
Y0464567
X0714567
Y0472441
Y0476378
Y0480315
Y0484252
Y0488189
Y0492126
X0710630
Y0488189
X0706693
X0702756
Y0492126
X0706693
Y0484252
X0702756
Y0480315
X0706693
Y0476378
X0702756
Y0472441
X0706693
X0710630
Y0476378
Y0480315
Y0484252
X0718504Y0486221
Y0472441
X0739370Y0474409
X0742126
X0744882
X0747638
Y0477165
Y0479921
Y0482677
Y0485433
X0744882
X0742126
X0739370
X0738189Y0492126
X0742126
X0734252
X0732283Y0488189
X0734252Y0500000
X0738189
X0742126
Y0503937
X0738189
X0734252
X0714567
X0710630
X0706693
Y0500000
X0710630
X0714567
X0714272Y0523425
X0710335
X0706398
Y0527362
X0710335
Y0531299
X0706398
Y0535236
X0710335
Y0539173
X0706398
Y0543110
X0710335
X0714272
Y0539173
Y0535236
Y0531299
Y0527362
X0734547Y0527461
X0738484
X0742421
Y0523524
X0738484
X0734547
Y0531398
X0738484
X0742421
Y0535335
Y0539272
Y0543209
X0738484
X0734547
Y0539272
X0738484
Y0535335
X0734547
X0699666Y0550787
X0703496Y0588177
Y0591079
Y0594043
Y0597232
Y0600382
Y0603532
X0712157
Y0600382
Y0597232
Y0594043
Y0591079
Y0588177
X0707827
X0668110Y0525197
Y0522047
Y0518898
Y0515708
Y0512744
Y0509842
X0663779
X0659449
Y0512744
Y0515708
Y0518898
Y0522047
Y0525197
X0637795
Y0522047
Y0518898
Y0515708
Y0512744
Y0509842
X0633465
X0629134
Y0512744
Y0515708
Y0518898
Y0522047
Y0525197
X0629961Y0504724
X0632925
X0635827
Y0500394
Y0496063
X0632925
X0629961
X0626772
Y0504724
X0626535Y0475984
X0629725
X0632689
X0635591
Y0471654
X0643307Y0490551
X0650000Y0492913
X0655905Y0490945
X0660104Y0490862
X0666738Y0486919
Y0483464
Y0480217
Y0476735
X0670067Y0476772
Y0479921
X0673327
Y0476735
Y0473032
X0670067Y0473228
X0666738Y0473228
Y0469819
X0670067Y0469539
X0673539Y0469722
X0673327Y0483405
X0670067Y0483464
X0623386Y0475984
X0620236
X0620472Y0496063
X0623622
Y0504724
X0620472
X0587795Y0560746
X0582283Y0564862
Y0571654
X0576378Y0569291
X0572835Y0567717
X0570079Y0574016
X0577952Y0560139
X0477953Y0555981
X0475197
X0472441
X0472835Y0563855
Y0567005
Y0570154
Y0572910
Y0576060
Y0579997
X0479921Y0554013
X0480315Y0550863
Y0547713
Y0544564
X0477953Y0542595
X0474803
X0474606Y0486296
X0477559
X0480512Y0485312
Y0482359
Y0479406
Y0476453
Y0473501
X0471654Y0486296
X0468701
X0465748
X0462795
X0454724Y0492519
X0452339Y0496980
X0448795Y0500523
X0448402Y0489499
X0442890Y0489893
X0434646Y0490233
X0431890
X0429134
X0426378
X0423425
X0423435Y0492815
X0423459Y0495374
X0435827Y0496139
Y0492989
X0437771Y0508002
X0444587Y0508790
X0449114Y0517913
Y0524016
X0455315
Y0518012
X0456693Y0546139
Y0549288
X0458268Y0552044
X0460236Y0554013
X0462598Y0555981
X0463779Y0563855
Y0567005
Y0570154
Y0572910
Y0576060
Y0579997
X0468504
X0461811Y0542595
X0459055Y0544170
X0436221Y0537477
Y0534524
X0434252Y0539446
X0431299
X0427953Y0539370
X0425197
X0422441Y0537402
Y0534524
X0411024Y0544564
Y0547713
Y0550863
X0410630Y0554013
X0408661Y0555981
X0405905
X0403150
X0403543Y0563855
Y0567005
Y0570154
Y0572910
Y0576060
Y0579997
X0399213
X0394488
Y0576060
Y0572910
Y0570154
Y0567005
Y0563855
X0393307Y0555981
X0390945Y0554013
X0388976Y0552044
X0387402Y0549288
Y0546139
X0389764Y0544170
X0392520Y0542595
X0405512
X0408661
X0386024Y0524016
Y0518012
X0379823Y0517913
Y0524016
X0375295Y0508790
X0368480Y0508002
X0366535Y0496139
Y0492989
X0365354Y0490233
X0362598
X0359842
X0357087
X0354134
X0353150Y0493186
Y0496139
X0341929Y0485312
Y0482359
Y0479406
Y0476453
Y0473501
X0338976Y0486296
X0336024
X0333071
X0330118
X0327165
X0324213
X0315986Y0493043
X0313756Y0496980
X0316732Y0518012
Y0524016
X0318110Y0546139
Y0549288
X0319685Y0552044
X0321654Y0554013
X0324016Y0555981
X0325197Y0563855
Y0567005
Y0570154
Y0572910
Y0576060
Y0579997
X0329921
X0334252
Y0576060
Y0572910
Y0570154
Y0567005
Y0563855
X0333858Y0555981
X0336614
X0339370
X0341339Y0554013
X0341732Y0550863
Y0547713
Y0544564
X0339370Y0542595
X0336221
X0323228
X0320472Y0544170
X0353150Y0537303
Y0534524
X0355512Y0539272
X0358661
X0361811
X0364764
X0366929Y0537477
Y0534524
X0379504Y0500523
X0383047Y0496980
X0385432Y0492519
X0379110Y0489499
X0373598Y0489893
X0376050Y0473032
X0379898Y0471389
X0384909Y0471063
X0393504Y0486296
X0396457
X0399410
X0402362
X0405315
X0408268
X0411221Y0485312
Y0482359
Y0479406
Y0476453
Y0473501
X0445342Y0473032
X0449189Y0471389
X0454200Y0471063
X0424016Y0574485
X0425197Y0585902
X0418109Y0589763
X0427165Y0596926
X0396752Y0607677
X0362222Y0609085
X0358661Y0595895
X0355906Y0585902
X0348819Y0589839
X0354724Y0574485
X0315617Y0471063
X0310606Y0471389
X0306759Y0473032
X0304307Y0489893
X0309819Y0489499
X0310213Y0500523
X0306004Y0508790
X0299189Y0508002
X0297244Y0496139
Y0492989
X0296063Y0490233
X0293307
X0290551
X0287795
X0284842
X0283858Y0493186
Y0496139
X0272638Y0485312
Y0482359
Y0479406
Y0476453
Y0473501
X0269685Y0486296
X0266732
X0263779
X0260827
X0257874
X0254921
X0246850Y0492519
X0244465Y0496980
X0240921Y0500523
X0240528Y0489499
X0235016Y0489893
X0226772Y0490233
X0224016
X0221260
X0218504
X0215551
X0214567Y0493186
Y0496139
X0227953
Y0492989
X0229897Y0508002
X0236713Y0508790
X0241240Y0517913
Y0524016
X0247441
Y0518012
X0248819Y0546139
Y0549288
X0250394Y0552044
X0252362Y0554013
X0254724Y0555981
X0255906Y0563855
Y0567005
Y0570154
Y0572910
Y0576060
Y0579997
X0260630
X0264961
Y0576060
Y0572910
Y0570154
Y0567005
Y0563855
X0264567Y0555981
X0267323
X0270079
X0272047Y0554013
X0272441Y0550863
Y0547713
Y0544564
X0269488Y0544193
X0266142Y0544291
X0254724Y0544095
X0251181Y0544170
X0228346Y0537477
Y0534524
X0225984Y0539272
X0223228
X0220079
X0217323
X0214567Y0537303
Y0534524
X0216142Y0574485
X0217323Y0585902
X0210236Y0586219
X0219291Y0596926
X0173622Y0607480
Y0611811
X0279528Y0589839
X0286614Y0585902
X0285433Y0574485
X0288583Y0596926
X0289764Y0539272
X0292520
X0295276
X0297638Y0537303
Y0534524
X0283858
Y0537303
X0287008Y0539272
X0310531Y0524016
Y0517913
X0246326Y0471063
X0241315Y0471389
X0237468Y0473032
X0173228Y0472441
Y0476378
X0204331Y0668504
X0208661
X0224803Y0669291
Y0672835
X0223622Y0685039
Y0688189
X0245669Y0687008
X0246850Y0683071
X0358189Y0656378
X0362205
X0365748
X0369685Y0656299
X0350394Y0633225
X0349580Y0628899
X0345458
X0341672
X0339961Y0632620
X0335138Y0734189
X0363779Y0735432
X0387598Y0739272
X0411614Y0739255
X0423130Y0744882
X0465059Y0744095
X0480512Y0745965
X0500689Y0743799
X0507579Y0748917
X0511122Y0748819
X0509449Y0752362
X0507185Y0755315
X0514173Y0751181
X0517913
X0521949Y0751279
X0523327Y0754724
X0525000Y0713878
X0528248Y0713681
X0528346Y0709350
X0525000Y0709547
X0527362Y0705610
X0527067Y0702461
X0525986Y0698622
X0517618Y0716732
X0510433Y0717323
X0506890
Y0721063
X0506988Y0713287
X0510236Y0713091
X0506988Y0708957
X0558267Y0733857
X0581890Y0733069
X0605511
X0628800Y0733071
X0652755Y0733465
X0676181Y0733069
X0700000Y0733465
X0723622Y0733071
X0722835Y0679921
X0725984
X0729174
X0732138
X0735039
Y0675591
Y0671260
X0732138
X0729174
X0725984
X0722835
X0719685
Y0679921
X0688583Y0659055
X0685039
X0681496
T03
X0547638Y0583071
Y0587402
X0552362Y0583071
X0556693
X0562992
X0570079
X0570212Y0587402
X0590551Y0594488
X0604613Y0605006
X0553936Y0680707
X0709252Y0713582
X0712157Y0750787
X0706298Y0750786
T04
X0486221Y0540158
Y0544861
Y0549510
Y0554235
Y0558959
X0493178
Y0554235
Y0549510
Y0544861
Y0540158
X0500136
Y0544861
Y0549510
Y0554235
Y0558959
X0507093
Y0554235
Y0549510
Y0544861
Y0540158
X0514050
Y0544861
Y0549510
Y0554235
Y0558959
X0521008
Y0554235
Y0549510
Y0544861
Y0540158
X0527965
Y0544861
Y0549510
Y0554235
Y0558959
X0534923
Y0554235
Y0549510
Y0544861
Y0540158
X0677165Y0659055
T05
X0683858Y0518110
Y0522835
X0687795Y0516142
X0692126
X0696457
X0700394Y0518504
Y0522835
X0255118Y0726772
Y0732283
X0544488Y0700000
T06
X0181890Y0420866
Y0428740
Y0454935
Y0462809
X0231442Y0423573
X0239317
X0247190
X0255065Y0423374
Y0403889
X0247190
X0239317
X0231442
X0300734Y0404088
X0308608
Y0423773
X0300734
X0316482
X0324356Y0423573
Y0404088
X0316482
X0370079Y0404131
X0377953
X0385827
X0393701
Y0423616
X0385827Y0423816
X0377953
X0370079
X0439764Y0424016
X0447638
X0455512
X0463386Y0423816
Y0404331
X0455512
X0447638
X0439764
X0566142Y0469556
X0574016
X0581890
Y0491997
X0574016
X0566142
Y0513650
X0574016
X0581890
Y0535304
X0574016
X0566142
Y0556957
X0574016
X0581890
X0181890Y0529134
Y0521260
Y0495669
Y0487795
X0210236Y0696431
X0218110
X0225984
Y0718898
X0218110
X0210236
X0209986Y0741339
X0217860
X0225734
Y0763779
X0217860
X0209986
X0255118
X0262992
X0270866
X0278740
Y0741339
X0270866
X0262992
X0255118
Y0718898
X0262992
X0270866
X0278740
Y0696457
X0270866
X0262992
X0255118
T07
X0476378Y0394882
X0595512Y0462060
T08
X0225734Y0429676
X0295025Y0429876
X0364370Y0429918
X0434055Y0430118
X0536811Y0395669
X0546654
X0568307
X0578150
X0599803
X0609646
X0631299
X0641142
X0662795
X0672638
X0694291
X0704134
T09
X0625512Y0612835
X0635512
X0645512
X0655512
X0615512
X0605512
X0595512
X0585512
X0575512
X0565512
X0555512
X0545512
X0570512Y0624335
X0580512
X0610512
X0620512
X0364094Y0621181
X0354095
X0344094
X0334095
X0324095
Y0681181
X0334095
X0344094
X0354095
X0364094
X0545512Y0672835
X0555512
X0565512
X0575512
X0585512
X0595512
X0605512
X0615512
X0625512
X0635512
X0645512
X0655512
T10
X0534923Y0760800
Y0770800
X0544923
X0554923
X0564923
X0574923
X0584923
X0594923
X0604923
X0614923
X0624923
Y0760800
X0614923
X0604923
X0594923
X0584923
X0574923
X0564923
X0554923
X0544923
X0634923
Y0770800
X0644923
X0654923
X0664923
X0674923
X0684923
X0694923
X0704923
X0714923
X0724923
Y0760800
X0714923
X0704923
X0694923
X0684923
X0674923
X0664923
X0654923
X0644923
T11
X0209646Y0421260
X0278815Y0420866
X0348130Y0419685
X0417224Y0420866
X0417028Y0529331
X0347964Y0529823
X0278642Y0529232
X0209449Y0527953
T12
X0181102Y0401575
X0515748
X0744095
Y0572835
X0515748
X0188976Y0551181
X0181102Y0765748
X0515748
X0744095
M30
