M48
;Layer_Color=9474304
;FILE_FORMAT=2:4
INCH
T12F00S00C0.2000
%
G90
G05
T12
G00X074410Y037583
M15
G01X074410Y037586
G01X074488Y037582
G01X074673Y037597
G01X074828Y037621
G01X075009Y037665
G01X075158Y037713
G01X075330Y037784
G01X075470Y037856
G01X075628Y037953
G01X075755Y038045
G01X075897Y038166
G01X076008Y038277
G01X076128Y038418
G01X076221Y038545
G01X076318Y038703
G01X076389Y038843
G01X076460Y039015
G01X076509Y039164
G01X076552Y039345
G01X076577Y039500
G01X076594Y039764
G01X076591Y076772
G01X076588Y076772
G01X076591Y076850
G01X076577Y077035
G01X076552Y077190
G01X076509Y077371
G01X076460Y077520
G01X076389Y077692
G01X076318Y077832
G01X076221Y077991
G01X076128Y078117
G01X076008Y078259
G01X075897Y078370
G01X075755Y078491
G01X075628Y078583
G01X075470Y078680
G01X075330Y078751
G01X075158Y078822
G01X075009Y078871
G01X074828Y078914
G01X074673Y078939
G01X074488Y078953
G01X074409Y078952
G01X074409Y078953
G01X017717Y078953
G01X017717Y078950
G01X017638Y078953
G01X017453Y078939
G01X017298Y078914
G01X017117Y078871
G01X016968Y078822
G01X016796Y078751
G01X016656Y078680
G01X016498Y078583
G01X016371Y078491
G01X016229Y078370
G01X016118Y078259
G01X015998Y078117
G01X015905Y077991
G01X015808Y077832
G01X015737Y077692
G01X015666Y077520
G01X015617Y077371
G01X015574Y077190
G01X015549Y077035
G01X015532Y076772
G01X015535Y039764
G01X015538Y039764
G01X015535Y039685
G01X015549Y039500
G01X015574Y039345
G01X015617Y039164
G01X015666Y039015
G01X015737Y038843
G01X015808Y038703
G01X015905Y038545
G01X015998Y038418
G01X016118Y038277
G01X016229Y038166
G01X016371Y038045
G01X016498Y037953
G01X016656Y037856
G01X016796Y037784
G01X016968Y037713
G01X017117Y037665
G01X017298Y037621
G01X017453Y037597
G01X017717Y037579
G01X074410Y037583
M16
M17
M30
