G75*
%MOIN*%
%OFA0B0*%
%FSLAX24Y24*%
%IPPOS*%
%LPD*%
%AMOC8*
5,1,8,0,0,1.08239X$1,22.5*
%
%ADD10R,0.0394X0.0433*%
%ADD11C,0.0740*%
%ADD12R,0.0250X0.0500*%
%ADD13R,0.0394X0.0394*%
%ADD14R,0.0098X0.0266*%
%ADD15R,0.0266X0.0098*%
%ADD16C,0.0100*%
%ADD17C,0.0270*%
D10*
X003972Y000775D03*
X004772Y000775D03*
X005572Y000775D03*
X005572Y001445D03*
X004772Y001445D03*
X003972Y001445D03*
X002942Y003665D03*
X002132Y003665D03*
X002132Y004335D03*
X002942Y004335D03*
X003742Y004405D03*
X003742Y005075D03*
X006792Y005035D03*
X006792Y004365D03*
D11*
X001487Y000925D03*
X001487Y001925D03*
X001487Y002925D03*
X001487Y003925D03*
X001487Y004925D03*
X004487Y004925D03*
X005487Y004925D03*
X007487Y004925D03*
X007487Y003925D03*
X007487Y002925D03*
X007487Y001925D03*
X007487Y000925D03*
D12*
X002902Y005013D03*
X002552Y005013D03*
X002202Y005013D03*
D13*
X002568Y001594D03*
X003355Y001594D03*
X003355Y000806D03*
X002568Y000806D03*
D14*
X003981Y002395D03*
X004178Y002395D03*
X004375Y002395D03*
X004571Y002395D03*
X004768Y002395D03*
X004965Y002395D03*
X005162Y002395D03*
X005359Y002395D03*
X005556Y002395D03*
X005752Y002395D03*
X005752Y003705D03*
X005556Y003705D03*
X005359Y003705D03*
X005162Y003705D03*
X004965Y003705D03*
X004768Y003705D03*
X004571Y003705D03*
X004375Y003705D03*
X004178Y003705D03*
X003981Y003705D03*
D15*
X003937Y003345D03*
X003937Y003148D03*
X003937Y002952D03*
X003937Y002755D03*
X005797Y002755D03*
X005797Y002952D03*
X005797Y003148D03*
X005797Y003345D03*
D16*
X006222Y003340D01*
X006252Y003620D01*
X006252Y003670D01*
X006537Y003651D02*
X007038Y003651D01*
X007046Y003630D02*
X007192Y003484D01*
X007335Y003425D01*
X007192Y003366D01*
X007046Y003220D01*
X006967Y003028D01*
X006967Y002822D01*
X007046Y002630D01*
X007192Y002484D01*
X007335Y002425D01*
X007192Y002366D01*
X007046Y002220D01*
X006980Y002060D01*
X006922Y002060D01*
X006922Y002217D01*
X006963Y002259D01*
X007007Y002363D01*
X007007Y002477D01*
X006963Y002581D01*
X006883Y002662D01*
X006778Y002705D01*
X006702Y002705D01*
X006702Y003187D01*
X006713Y003199D01*
X006757Y003303D01*
X006757Y003417D01*
X006713Y003521D01*
X006633Y003602D01*
X006537Y003642D01*
X006537Y003727D01*
X006493Y003831D01*
X006413Y003912D01*
X006308Y003955D01*
X006195Y003955D01*
X006090Y003912D01*
X006010Y003831D01*
X005967Y003727D01*
X005967Y003613D01*
X005996Y003543D01*
X005993Y003543D01*
X005992Y003544D01*
X005952Y003544D01*
X005952Y003621D01*
X005952Y003622D01*
X005952Y004174D01*
X006007Y004212D01*
X006010Y004208D01*
X006115Y004165D01*
X006228Y004165D01*
X006333Y004208D01*
X006413Y004289D01*
X006457Y004393D01*
X006457Y004414D01*
X006743Y004414D01*
X006743Y004317D01*
X006445Y004317D01*
X006445Y004129D01*
X006455Y004091D01*
X006475Y004057D01*
X006503Y004029D01*
X006537Y004009D01*
X006575Y003999D01*
X006743Y003999D01*
X006743Y004317D01*
X006840Y004317D01*
X006840Y003999D01*
X006967Y003999D01*
X006967Y003822D01*
X007046Y003630D01*
X007124Y003552D02*
X006683Y003552D01*
X006741Y003454D02*
X007266Y003454D01*
X007212Y003430D02*
X006892Y003820D01*
X006892Y004210D01*
X006792Y004365D01*
X006802Y004700D01*
X006412Y004700D01*
X006082Y004700D01*
X005657Y004435D01*
X005556Y004435D01*
X005359Y004435D01*
X004926Y004661D01*
X004862Y004557D01*
X004862Y004200D01*
X004965Y004057D01*
X004965Y003705D01*
X004768Y003705D02*
X004772Y003975D01*
X004652Y004030D01*
X004472Y004253D02*
X004453Y004272D01*
X004348Y004315D01*
X004235Y004315D01*
X004130Y004272D01*
X004089Y004230D01*
X004089Y004588D01*
X004090Y004586D01*
X004148Y004528D01*
X004214Y004480D01*
X004287Y004443D01*
X004365Y004418D01*
X004437Y004406D01*
X004437Y004875D01*
X004537Y004875D01*
X004967Y004875D01*
X004967Y004975D01*
X004537Y004975D01*
X004537Y004875D01*
X004537Y004406D01*
X004608Y004418D01*
X004686Y004443D01*
X004759Y004480D01*
X004825Y004528D01*
X004883Y004586D01*
X004931Y004652D01*
X004969Y004725D01*
X004985Y004777D01*
X005046Y004630D01*
X005111Y004565D01*
X005055Y004565D01*
X004950Y004522D01*
X004870Y004441D01*
X004827Y004337D01*
X004827Y004258D01*
X004813Y004272D01*
X004708Y004315D01*
X004595Y004315D01*
X004490Y004272D01*
X004472Y004253D01*
X004437Y004439D02*
X004537Y004439D01*
X004537Y004537D02*
X004437Y004537D01*
X004482Y004590D02*
X004482Y004920D01*
X004487Y004925D01*
X004377Y005075D01*
X003742Y005075D01*
X003717Y005060D01*
X003512Y005050D01*
X003257Y004805D01*
X003257Y003640D01*
X003297Y003630D01*
X003452Y003630D01*
X003712Y003340D01*
X003931Y003340D01*
X003937Y003345D01*
X003746Y003534D02*
X003712Y003515D01*
X003684Y003487D01*
X003664Y003452D01*
X003661Y003440D01*
X003558Y003482D01*
X003445Y003482D01*
X003340Y003439D01*
X003289Y003387D01*
X003289Y003881D01*
X003310Y003829D01*
X003390Y003748D01*
X003495Y003705D01*
X003608Y003705D01*
X003713Y003748D01*
X003782Y003817D01*
X003782Y003705D01*
X003978Y003705D01*
X003978Y003705D01*
X003782Y003705D01*
X003782Y003552D01*
X003289Y003552D01*
X003257Y003640D02*
X003257Y003000D01*
X003307Y002950D01*
X003937Y002950D01*
X003937Y002952D01*
X003937Y003148D02*
X003937Y003150D01*
X003514Y003150D01*
X003502Y003198D01*
X003250Y003060D02*
X002827Y003060D01*
X002827Y003013D02*
X002827Y003127D01*
X002783Y003231D01*
X002779Y003235D01*
X002864Y003299D01*
X003201Y003299D01*
X003260Y003358D01*
X003217Y003254D01*
X003217Y003141D01*
X003260Y003036D01*
X003340Y002956D01*
X003445Y002913D01*
X003471Y002913D01*
X003466Y002908D01*
X003415Y002876D01*
X003410Y002851D01*
X003392Y002833D01*
X003392Y002773D01*
X003283Y002300D01*
X002370Y002300D01*
X002465Y002401D01*
X002522Y002457D01*
X002522Y002460D01*
X002524Y002463D01*
X002522Y002543D01*
X002522Y002785D01*
X002598Y002785D01*
X002703Y002828D01*
X002783Y002909D01*
X002827Y003013D01*
X002805Y002961D02*
X003335Y002961D01*
X003257Y003000D02*
X003257Y002810D01*
X003314Y002800D01*
X003390Y002764D02*
X002522Y002764D01*
X002522Y002666D02*
X003367Y002666D01*
X003344Y002567D02*
X002522Y002567D01*
X002524Y002469D02*
X003321Y002469D01*
X003299Y002370D02*
X002436Y002370D01*
X002322Y002540D02*
X002152Y002360D01*
X002152Y002100D01*
X003442Y002100D01*
X003592Y002750D01*
X003932Y002750D01*
X003937Y002755D01*
X003981Y002395D02*
X003981Y002389D01*
X003987Y001935D01*
X002572Y001935D01*
X001972Y001935D01*
X001968Y001754D01*
X001965Y001754D01*
X001487Y000925D01*
X002022Y001360D02*
X002362Y000800D01*
X002562Y000800D01*
X002568Y000806D01*
X003355Y000806D02*
X003903Y000806D01*
X003972Y000775D01*
X003977Y000865D01*
X004372Y000860D01*
X004687Y000860D01*
X004772Y000775D01*
X005572Y000775D01*
X005620Y000794D02*
X006978Y000794D01*
X006967Y000822D02*
X007046Y000630D01*
X007076Y000600D01*
X005919Y000600D01*
X005919Y000727D01*
X005620Y000727D01*
X005620Y000824D01*
X005919Y000824D01*
X005919Y001012D01*
X005908Y001050D01*
X005889Y001084D01*
X005863Y001110D01*
X005919Y001166D01*
X005919Y001389D01*
X006027Y001365D01*
X006061Y001357D01*
X006091Y001348D01*
X006184Y001194D01*
X006177Y001177D01*
X006177Y001063D01*
X006220Y000959D01*
X006300Y000878D01*
X006405Y000835D01*
X006518Y000835D01*
X006623Y000878D01*
X006703Y000959D01*
X006747Y001063D01*
X006747Y001177D01*
X006703Y001281D01*
X006623Y001362D01*
X006526Y001402D01*
X006494Y001455D01*
X006932Y001455D01*
X007111Y001285D01*
X007046Y001220D01*
X006967Y001028D01*
X006967Y000822D01*
X006967Y000893D02*
X006637Y000893D01*
X006717Y000991D02*
X006967Y000991D01*
X006992Y001090D02*
X006747Y001090D01*
X006742Y001188D02*
X007033Y001188D01*
X007110Y001287D02*
X006698Y001287D01*
X006567Y001385D02*
X007006Y001385D01*
X007012Y001655D02*
X006392Y001655D01*
X005852Y001780D01*
X005472Y001780D01*
X005302Y002030D01*
X005557Y001940D02*
X005912Y001940D01*
X006352Y001840D01*
X006462Y001900D01*
X006462Y002425D01*
X006502Y002630D01*
X006502Y002952D01*
X005797Y002952D01*
X005797Y003148D02*
X006480Y003148D01*
X006502Y003170D01*
X006502Y002952D01*
X006702Y002961D02*
X006967Y002961D01*
X006980Y003060D02*
X006702Y003060D01*
X006702Y003158D02*
X007020Y003158D01*
X007083Y003257D02*
X006737Y003257D01*
X006757Y003355D02*
X007181Y003355D01*
X006997Y003749D02*
X006527Y003749D01*
X006477Y003848D02*
X006967Y003848D01*
X006967Y003946D02*
X006330Y003946D01*
X006173Y003946D02*
X005952Y003946D01*
X005952Y003848D02*
X006026Y003848D01*
X005976Y003749D02*
X005952Y003749D01*
X005952Y003651D02*
X005967Y003651D01*
X005952Y003552D02*
X005992Y003552D01*
X005752Y003705D02*
X005752Y004280D01*
X006002Y004450D01*
X006172Y004450D01*
X006435Y004340D02*
X006743Y004340D01*
X006743Y004242D02*
X006840Y004242D01*
X006840Y004143D02*
X006743Y004143D01*
X006743Y004045D02*
X006840Y004045D01*
X006487Y004045D02*
X005952Y004045D01*
X005952Y004143D02*
X006445Y004143D01*
X006445Y004242D02*
X006366Y004242D01*
X006445Y004535D02*
X006413Y004611D01*
X006333Y004692D01*
X006228Y004735D01*
X006115Y004735D01*
X006010Y004692D01*
X005977Y004658D01*
X005957Y004662D01*
X005940Y004650D01*
X005936Y004650D01*
X006007Y004822D01*
X006007Y004963D01*
X006079Y005000D01*
X006445Y005000D01*
X006445Y004756D01*
X006501Y004700D01*
X006475Y004674D01*
X006455Y004640D01*
X006445Y004602D01*
X006445Y004535D01*
X006444Y004537D02*
X006445Y004537D01*
X006454Y004636D02*
X006389Y004636D01*
X006467Y004734D02*
X006231Y004734D01*
X006113Y004734D02*
X005970Y004734D01*
X006007Y004833D02*
X006445Y004833D01*
X006445Y004931D02*
X006007Y004931D01*
X006032Y005200D02*
X005487Y004925D01*
X004967Y004931D02*
X004537Y004931D01*
X004487Y004925D02*
X004555Y004883D01*
X004755Y004755D01*
X004926Y004661D01*
X004919Y004636D02*
X005044Y004636D01*
X005003Y004734D02*
X004971Y004734D01*
X004987Y004537D02*
X004834Y004537D01*
X004869Y004439D02*
X004672Y004439D01*
X004828Y004340D02*
X004089Y004340D01*
X004089Y004242D02*
X004100Y004242D01*
X004089Y004439D02*
X004301Y004439D01*
X004139Y004537D02*
X004089Y004537D01*
X004437Y004636D02*
X004537Y004636D01*
X004482Y004590D02*
X003981Y004069D01*
X003981Y003705D01*
X004178Y003705D02*
X004178Y003896D01*
X004292Y004030D01*
X003782Y003749D02*
X003714Y003749D01*
X003782Y003651D02*
X003289Y003651D01*
X003289Y003749D02*
X003390Y003749D01*
X003302Y003848D02*
X003289Y003848D01*
X003289Y004099D02*
X003289Y004613D01*
X003201Y004701D01*
X003177Y004701D01*
X003177Y005250D01*
X003395Y005250D01*
X003395Y005123D01*
X003693Y005123D01*
X003693Y005026D01*
X003395Y005026D01*
X003395Y004838D01*
X003405Y004800D01*
X003425Y004766D01*
X003451Y004740D01*
X003395Y004684D01*
X003395Y004234D01*
X003390Y004232D01*
X003310Y004151D01*
X003289Y004099D01*
X003289Y004143D02*
X003307Y004143D01*
X003289Y004242D02*
X003395Y004242D01*
X003395Y004340D02*
X003289Y004340D01*
X003289Y004439D02*
X003395Y004439D01*
X003395Y004537D02*
X003289Y004537D01*
X003266Y004636D02*
X003395Y004636D01*
X003445Y004734D02*
X003177Y004734D01*
X003177Y004833D02*
X003396Y004833D01*
X003395Y004931D02*
X003177Y004931D01*
X003177Y005030D02*
X003693Y005030D01*
X003395Y005128D02*
X003177Y005128D01*
X003177Y005227D02*
X003395Y005227D01*
X002902Y005013D02*
X002942Y004755D01*
X002942Y004335D01*
X002542Y004565D02*
X002542Y005003D01*
X002552Y005013D01*
X002202Y005013D02*
X002132Y004785D01*
X002132Y004335D01*
X002132Y003665D02*
X002521Y003660D01*
X002542Y003640D01*
X002572Y003330D02*
X002847Y003535D01*
X002942Y003665D01*
X003289Y003454D02*
X003375Y003454D01*
X003258Y003355D02*
X003257Y003355D01*
X003218Y003257D02*
X002808Y003257D01*
X002814Y003158D02*
X003217Y003158D01*
X003628Y003454D02*
X003665Y003454D01*
X003746Y003534D02*
X003784Y003544D01*
X003782Y003552D01*
X003552Y003990D02*
X003742Y004180D01*
X003742Y004405D01*
X004437Y004734D02*
X004537Y004734D01*
X004537Y004833D02*
X004437Y004833D01*
X005359Y004435D02*
X005359Y003705D01*
X005362Y003705D02*
X005552Y003705D01*
X005552Y003705D01*
X005362Y003705D01*
X005362Y003705D01*
X005162Y003705D02*
X005162Y004230D01*
X005112Y004280D01*
X005556Y004435D02*
X005556Y003705D01*
X006472Y003360D02*
X006502Y003410D01*
X006502Y003170D01*
X006702Y002863D02*
X006967Y002863D01*
X006991Y002764D02*
X006702Y002764D01*
X006874Y002666D02*
X007031Y002666D01*
X006969Y002567D02*
X007109Y002567D01*
X007007Y002469D02*
X007230Y002469D01*
X007202Y002370D02*
X007007Y002370D01*
X006969Y002272D02*
X007098Y002272D01*
X007027Y002173D02*
X006922Y002173D01*
X006922Y002075D02*
X006986Y002075D01*
X006722Y001860D02*
X007312Y001860D01*
X007482Y001930D01*
X007487Y001925D01*
X007012Y001655D02*
X007487Y001205D01*
X007487Y000925D01*
X007019Y000696D02*
X005919Y000696D01*
X005919Y000893D02*
X006286Y000893D01*
X006207Y000991D02*
X005919Y000991D01*
X005883Y001090D02*
X006177Y001090D01*
X006181Y001188D02*
X005919Y001188D01*
X005919Y001287D02*
X006128Y001287D01*
X005935Y001385D02*
X005919Y001385D01*
X006111Y001550D02*
X006221Y001520D01*
X006462Y001120D01*
X006111Y001550D02*
X006072Y001560D01*
X005842Y001610D01*
X005727Y001610D01*
X005572Y001445D01*
X005387Y001280D01*
X004942Y001280D01*
X004772Y001430D01*
X004772Y001445D01*
X004612Y001605D01*
X004382Y001605D01*
X004132Y001605D01*
X003972Y001445D01*
X003903Y001594D01*
X003355Y001594D01*
X004146Y001811D02*
X004187Y001852D01*
X004187Y001854D01*
X004188Y001855D01*
X004187Y001936D01*
X004187Y002018D01*
X004186Y002019D01*
X004184Y002113D01*
X004880Y002113D01*
X004883Y002116D01*
X004896Y002113D01*
X004965Y002113D01*
X004965Y002198D01*
X004965Y002198D01*
X004965Y002113D01*
X005027Y002113D01*
X005017Y002087D01*
X005017Y001973D01*
X005060Y001869D01*
X005140Y001788D01*
X005245Y001745D01*
X005247Y001745D01*
X005225Y001723D01*
X005225Y001480D01*
X005119Y001480D01*
X005119Y001723D01*
X005031Y001811D01*
X004564Y001811D01*
X004533Y001842D01*
X004428Y001885D01*
X004315Y001885D01*
X004210Y001842D01*
X004180Y001811D01*
X004146Y001811D01*
X004187Y001878D02*
X004297Y001878D01*
X004187Y001976D02*
X005017Y001976D01*
X004965Y001923D02*
X005172Y001530D01*
X005119Y001484D02*
X005225Y001484D01*
X005225Y001582D02*
X005119Y001582D01*
X005119Y001681D02*
X005225Y001681D01*
X005163Y001779D02*
X005063Y001779D01*
X005056Y001878D02*
X004446Y001878D01*
X004185Y002075D02*
X005017Y002075D01*
X004965Y002173D02*
X004965Y002173D01*
X004965Y002198D02*
X004965Y002198D01*
X004965Y002395D02*
X004965Y001923D01*
X005557Y001940D02*
X005557Y002194D01*
X005556Y002395D01*
X005952Y002370D02*
X006258Y002370D01*
X006262Y002364D02*
X006262Y002103D01*
X006231Y002072D01*
X006012Y002122D01*
X005995Y002140D01*
X005934Y002140D01*
X005899Y002148D01*
X005952Y002200D01*
X005952Y002556D01*
X005988Y002566D01*
X006022Y002585D01*
X006050Y002613D01*
X006069Y002648D01*
X006080Y002686D01*
X006080Y002752D01*
X006302Y002752D01*
X006302Y002649D01*
X006277Y002523D01*
X006262Y002508D01*
X006262Y002444D01*
X006250Y002382D01*
X006262Y002364D01*
X006262Y002272D02*
X005952Y002272D01*
X006018Y002266D02*
X006092Y002230D01*
X006018Y002266D02*
X006018Y002755D01*
X006175Y002755D01*
X006232Y002750D01*
X006252Y002700D01*
X006302Y002666D02*
X006074Y002666D01*
X006018Y002755D02*
X005797Y002755D01*
X005990Y002567D02*
X006286Y002567D01*
X006262Y002469D02*
X005952Y002469D01*
X005924Y002173D02*
X006262Y002173D01*
X006233Y002075D02*
X006222Y002075D01*
X006722Y001860D02*
X006722Y002420D01*
X005252Y001080D02*
X005091Y001080D01*
X005108Y001050D01*
X005119Y001012D01*
X005119Y000824D01*
X004820Y000824D01*
X004820Y000727D01*
X005119Y000727D01*
X005119Y000600D01*
X005225Y000600D01*
X005225Y000727D01*
X005523Y000727D01*
X005523Y000824D01*
X005225Y000824D01*
X005225Y001012D01*
X005235Y001050D01*
X005252Y001080D01*
X005225Y000991D02*
X005119Y000991D01*
X005119Y000893D02*
X005225Y000893D01*
X005225Y000696D02*
X005119Y000696D01*
X004820Y000794D02*
X005523Y000794D01*
X004723Y000794D02*
X004020Y000794D01*
X004020Y000824D02*
X004319Y000824D01*
X004319Y001012D01*
X004308Y001050D01*
X004289Y001084D01*
X004263Y001110D01*
X004319Y001166D01*
X004319Y001315D01*
X004425Y001315D01*
X004425Y001166D01*
X004481Y001110D01*
X004455Y001084D01*
X004435Y001050D01*
X004425Y001012D01*
X004425Y000824D01*
X004723Y000824D01*
X004723Y000727D01*
X004425Y000727D01*
X004425Y000600D01*
X004319Y000600D01*
X004319Y000727D01*
X004020Y000727D01*
X004020Y000824D01*
X004020Y001078D01*
X003923Y001078D01*
X003923Y000824D01*
X004020Y000824D01*
X004020Y000893D02*
X003923Y000893D01*
X003923Y000824D02*
X003923Y000727D01*
X003702Y000727D01*
X003702Y000758D01*
X003632Y000758D01*
X003632Y000824D01*
X003923Y000824D01*
X003923Y000794D02*
X003632Y000794D01*
X003923Y000991D02*
X004020Y000991D01*
X004283Y001090D02*
X004460Y001090D01*
X004425Y001188D02*
X004319Y001188D01*
X004319Y001287D02*
X004425Y001287D01*
X004372Y001600D02*
X004382Y001605D01*
X004425Y000991D02*
X004319Y000991D01*
X004319Y000893D02*
X004425Y000893D01*
X004425Y000696D02*
X004319Y000696D01*
X002568Y001594D02*
X002548Y001594D01*
X002568Y001594D02*
X002568Y001634D01*
X002572Y001935D01*
X001972Y001935D02*
X001972Y002420D01*
X002152Y002610D01*
X002152Y003330D01*
X002572Y003330D01*
X002542Y003070D02*
X002322Y003070D01*
X002322Y002540D01*
X001987Y002675D02*
X001987Y003480D01*
X002132Y003665D01*
X002737Y002863D02*
X003412Y002863D01*
X001987Y002675D02*
X001487Y002175D01*
X001487Y001925D01*
X006672Y005200D02*
X006792Y005035D01*
X006937Y004915D01*
X007212Y004425D01*
X006672Y005200D02*
X006032Y005200D01*
D17*
X006412Y004700D03*
X006172Y004450D03*
X007212Y004425D03*
X006252Y003670D03*
X006472Y003360D03*
X007212Y003430D03*
X006252Y002700D03*
X006722Y002420D03*
X006092Y002230D03*
X006462Y001900D03*
X005302Y002030D03*
X005172Y001530D03*
X004372Y001600D03*
X004372Y000860D03*
X006462Y001120D03*
X003314Y002800D03*
X003502Y003198D03*
X002542Y003070D03*
X002542Y003640D03*
X003552Y003990D03*
X004292Y004030D03*
X004652Y004030D03*
X005112Y004280D03*
X002542Y004565D03*
X002022Y001360D03*
M02*
