G75*
%MOIN*%
%OFA0B0*%
%FSLAX24Y24*%
%IPPOS*%
%LPD*%
%AMOC8*
5,1,8,0,0,1.08239X$1,22.5*
%
%ADD10R,0.0394X0.0433*%
%ADD11R,0.0394X0.0394*%
%ADD12R,0.0098X0.0266*%
%ADD13R,0.0266X0.0098*%
D10*
X003972Y000775D03*
X004772Y000775D03*
X005572Y000775D03*
X005572Y001445D03*
X004772Y001445D03*
X003972Y001445D03*
X002942Y003665D03*
X002132Y003665D03*
X002132Y004335D03*
X002942Y004335D03*
X003742Y004405D03*
X003742Y005075D03*
X006792Y005035D03*
X006792Y004365D03*
D11*
X002568Y000806D03*
X003355Y000806D03*
X003355Y001594D03*
X002568Y001594D03*
D12*
X003981Y002395D03*
X004178Y002395D03*
X004375Y002395D03*
X004571Y002395D03*
X004768Y002395D03*
X004965Y002395D03*
X005162Y002395D03*
X005359Y002395D03*
X005556Y002395D03*
X005752Y002395D03*
X005752Y003705D03*
X005556Y003705D03*
X005359Y003705D03*
X005162Y003705D03*
X004965Y003705D03*
X004768Y003705D03*
X004571Y003705D03*
X004375Y003705D03*
X004178Y003705D03*
X003981Y003705D03*
D13*
X003937Y003345D03*
X003937Y003148D03*
X003937Y002952D03*
X003937Y002755D03*
X005797Y002755D03*
X005797Y002952D03*
X005797Y003148D03*
X005797Y003345D03*
M02*
