%
M48
M72
T01C0.0130
T02C0.0400
%
T01
X2022Y1360
X3314Y2800
X3502Y3198
X2542Y3070
X2542Y3640
X3552Y3990
X4292Y4030
X4652Y4030
X5112Y4280
X6172Y4450
X6412Y4700
X7212Y4425
X6252Y3670
X6472Y3360
X7212Y3430
X6252Y2700
X6722Y2420
X6092Y2230
X6462Y1900
X5302Y2030
X5172Y1530
X4372Y1600
X4372Y860
X6462Y1120
X2542Y4565
T02
X1487Y925
X1487Y1925
X1487Y2925
X1487Y3925
X1487Y4925
X4487Y4925
X5487Y4925
X7487Y4925
X7487Y3925
X7487Y2925
X7487Y1925
X7487Y925
M30
