  0
SECTION
  2
HEADER
  9
$ACADVER
  1
AC1009
  9
$EXTMIN
 10
0.0
 20
0.0
 30
0.0
  9
$EXTMAX
 10
1000.0
 20
1000.0
 30
0.0
  9
$FILLMODE
 70
 0
  9
$SPLFRAME
 70
 1
  0
ENDSEC
  0
SECTION
  2
TABLES
  0
TABLE
  2
LAYER
 70
1
  0
LAYER
  2
0
 70
     0
 62
     7
  6
CONTINUOUS
  0
ENDTAB
  0
ENDSEC
  0
SECTION
  2
ENTITIES
  0
POLYLINE
  8
0
 62
     7
 66
     1
 10
0
 20
0
 30
0.0
 70
     1
 40
0
 41
0
  0
VERTEX
  8
0
 10
2.79531
 20
7.18506
 30
0.0
 40
0
 41
0
  0
VERTEX
  8
0
 10
5.47244
 20
7.18506
 30
0.0
 40
0
 41
0
  0
VERTEX
  8
0
 10
5.47244
 20
4.50786
 30
0.0
 40
0
 41
0
  0
VERTEX
  8
0
 10
2.79531
 20
4.50786
 30
0.0
 40
0
 41
0
  0
VERTEX
  8
0
 10
2.79531
 20
7.18506
 30
0.0
 40
0
 41
0
  0
SEQEND
 8
0
  0
POLYLINE
  8
0
 62
     150
 66
     1
 10
0
 20
0
 30
0.0
 70
     1
 40
0
 41
0
  0
VERTEX
  8
0
 10
3.70117
 20
6.125
 30
0.0
 40
0
 41
0
  0
VERTEX
  8
0
 10
3.86014
 20
6.125
 30
0.0
 40
0
 41
0
  0
VERTEX
  8
0
 10
3.86014
 20
5.55117
 30
0.0
 40
0
 41
0
  0
VERTEX
  8
0
 10
3.70117
 20
5.55117
 30
0.0
 40
0
 41
0
  0
VERTEX
  8
0
 10
3.70117
 20
6.125
 30
0.0
 40
0
 41
0
  0
SEQEND
 8
0
  0
POLYLINE
  8
0
 62
     150
 66
     1
 10
0
 20
0
 30
0.0
 70
     1
 40
0
 41
0
  0
VERTEX
  8
0
 10
3.94358
 20
5.55117
 30
0.0
 40
0
 41
0
  0
VERTEX
  8
0
 10
3.94358
 20
6.125
 30
0.0
 40
0
 41
0
  0
VERTEX
  8
0
 10
4.38075
 20
6.125
 30
0.0
 40
0
 41
0
  0
VERTEX
  8
0
 10
4.38075
 20
6.01372
 30
0.0
 40
0
 41
0
  0
VERTEX
  8
0
 10
4.10254
 20
6.01372
 30
0.0
 40
0
 41
0
  0
VERTEX
  8
0
 10
4.10254
 20
5.89529
 30
0.0
 40
0
 41
0
  0
VERTEX
  8
0
 10
4.35846
 20
5.89529
 30
0.0
 40
0
 41
0
  0
VERTEX
  8
0
 10
4.35846
 20
5.78401
 30
0.0
 40
0
 41
0
  0
VERTEX
  8
0
 10
4.10254
 20
5.78401
 30
0.0
 40
0
 41
0
  0
VERTEX
  8
0
 10
4.10254
 20
5.66243
 30
0.0
 40
0
 41
0
  0
VERTEX
  8
0
 10
4.38075
 20
5.66243
 30
0.0
 40
0
 41
0
  0
VERTEX
  8
0
 10
4.38075
 20
5.55117
 30
0.0
 40
0
 41
0
  0
VERTEX
  8
0
 10
3.94358
 20
5.55117
 30
0.0
 40
0
 41
0
  0
SEQEND
 8
0
  0
POLYLINE
  8
0
 62
     150
 66
     1
 10
0
 20
0
 30
0.0
 70
     1
 40
0
 41
0
  0
VERTEX
  8
0
 10
4.46972
 20
5.55117
 30
0.0
 40
0
 41
0
  0
VERTEX
  8
0
 10
4.46972
 20
6.125
 30
0.0
 40
0
 41
0
  0
VERTEX
  8
0
 10
4.9069
 20
6.125
 30
0.0
 40
0
 41
0
  0
VERTEX
  8
0
 10
4.9069
 20
6.01372
 30
0.0
 40
0
 41
0
  0
VERTEX
  8
0
 10
4.62869
 20
6.01372
 30
0.0
 40
0
 41
0
  0
VERTEX
  8
0
 10
4.62869
 20
5.89529
 30
0.0
 40
0
 41
0
  0
VERTEX
  8
0
 10
4.88465
 20
5.89529
 30
0.0
 40
0
 41
0
  0
VERTEX
  8
0
 10
4.88465
 20
5.78401
 30
0.0
 40
0
 41
0
  0
VERTEX
  8
0
 10
4.62869
 20
5.78401
 30
0.0
 40
0
 41
0
  0
VERTEX
  8
0
 10
4.62869
 20
5.66243
 30
0.0
 40
0
 41
0
  0
VERTEX
  8
0
 10
4.9069
 20
5.66243
 30
0.0
 40
0
 41
0
  0
VERTEX
  8
0
 10
4.9069
 20
5.55117
 30
0.0
 40
0
 41
0
  0
VERTEX
  8
0
 10
4.46972
 20
5.55117
 30
0.0
 40
0
 41
0
  0
SEQEND
 8
0
  0
POLYLINE
  8
0
 62
     150
 66
     1
 10
0
 20
0
 30
0.0
 70
     1
 40
0
 41
0
  0
VERTEX
  8
0
 10
4.99593
 20
5.55117
 30
0.0
 40
0
 41
0
  0
VERTEX
  8
0
 10
4.99593
 20
6.125
 30
0.0
 40
0
 41
0
  0
VERTEX
  8
0
 10
5.43306
 20
6.125
 30
0.0
 40
0
 41
0
  0
VERTEX
  8
0
 10
5.43306
 20
6.01372
 30
0.0
 40
0
 41
0
  0
VERTEX
  8
0
 10
5.15489
 20
6.01372
 30
0.0
 40
0
 41
0
  0
VERTEX
  8
0
 10
5.15489
 20
5.89529
 30
0.0
 40
0
 41
0
  0
VERTEX
  8
0
 10
5.41081
 20
5.89529
 30
0.0
 40
0
 41
0
  0
VERTEX
  8
0
 10
5.41081
 20
5.78401
 30
0.0
 40
0
 41
0
  0
VERTEX
  8
0
 10
5.15489
 20
5.78401
 30
0.0
 40
0
 41
0
  0
VERTEX
  8
0
 10
5.15489
 20
5.66243
 30
0.0
 40
0
 41
0
  0
VERTEX
  8
0
 10
5.43306
 20
5.66243
 30
0.0
 40
0
 41
0
  0
VERTEX
  8
0
 10
5.43306
 20
5.55117
 30
0.0
 40
0
 41
0
  0
VERTEX
  8
0
 10
4.99593
 20
5.55117
 30
0.0
 40
0
 41
0
  0
SEQEND
 8
0
  0
POLYLINE
  8
0
 62
     150
 66
     1
 10
0
 20
0
 30
0.0
 70
     1
 40
0
 41
0
  0
VERTEX
  8
0
 10
3.26563
 20
6.17649
 30
0.0
 40
0
 41
0
  0
VERTEX
  8
0
 10
3.33957
 20
6.08686
 30
0.0
 40
0
 41
0
  0
VERTEX
  8
0
 10
3.40261
 20
6.021
 30
0.0
 40
0
 41
0
  0
VERTEX
  8
0
 10
3.49089
 20
5.94086
 30
0.0
 40
0
 41
0
  0
VERTEX
  8
0
 10
3.58524
 20
5.87007
 30
0.0
 40
0
 41
0
  0
VERTEX
  8
0
 10
3.58735
 20
5.86974
 30
0.0
 40
0
 41
0
  0
VERTEX
  8
0
 10
3.60211
 20
5.84526
 30
0.0
 40
0
 41
0
  0
VERTEX
  8
0
 10
3.59793
 20
5.83236
 30
0.0
 40
0
 41
0
  0
VERTEX
  8
0
 10
3.58817
 20
5.82346
 30
0.0
 40
0
 41
0
  0
VERTEX
  8
0
 10
3.57607
 20
5.81635
 30
0.0
 40
0
 41
0
  0
VERTEX
  8
0
 10
3.565
 20
5.80881
 30
0.0
 40
0
 41
0
  0
VERTEX
  8
0
 10
3.38683
 20
5.65625
 30
0.0
 40
0
 41
0
  0
VERTEX
  8
0
 10
3.23654
 20
5.4776
 30
0.0
 40
0
 41
0
  0
VERTEX
  8
0
 10
3.22939
 20
5.47038
 30
0.0
 40
0
 41
0
  0
VERTEX
  8
0
 10
3.20524
 20
5.47038
 30
0.0
 40
0
 41
0
  0
VERTEX
  8
0
 10
3.19542
 20
5.47928
 30
0.0
 40
0
 41
0
  0
VERTEX
  8
0
 10
3.18832
 20
5.49067
 30
0.0
 40
0
 41
0
  0
VERTEX
  8
0
 10
3.12196
 20
5.5785
 30
0.0
 40
0
 41
0
  0
VERTEX
  8
0
 10
3.08567
 20
5.61865
 30
0.0
 40
0
 41
0
  0
VERTEX
  8
0
 10
2.96957
 20
5.73156
 30
0.0
 40
0
 41
0
  0
VERTEX
  8
0
 10
2.84392
 20
5.82872
 30
0.0
 40
0
 41
0
  0
VERTEX
  8
0
 10
2.83626
 20
5.83942
 30
0.0
 40
0
 41
0
  0
VERTEX
  8
0
 10
2.83544
 20
5.85286
 30
0.0
 40
0
 41
0
  0
VERTEX
  8
0
 10
2.84511
 20
5.86654
 30
0.0
 40
0
 41
0
  0
VERTEX
  8
0
 10
2.85921
 20
5.87696
 30
0.0
 40
0
 41
0
  0
VERTEX
  8
0
 10
3.01307
 20
6.00261
 30
0.0
 40
0
 41
0
  0
VERTEX
  8
0
 10
3.14871
 20
6.15028
 30
0.0
 40
0
 41
0
  0
VERTEX
  8
0
 10
3.20068
 20
6.21789
 30
0.0
 40
0
 41
0
  0
VERTEX
  8
0
 10
3.21229
 20
6.22424
 30
0.0
 40
0
 41
0
  0
VERTEX
  8
0
 10
3.2251
 20
6.22385
 30
0.0
 40
0
 41
0
  0
VERTEX
  8
0
 10
3.23693
 20
6.21718
 30
0.0
 40
0
 41
0
  0
VERTEX
  8
0
 10
3.26563
 20
6.17649
 30
0.0
 40
0
 41
0
  0
SEQEND
 8
0
  0
POLYLINE
  8
0
 62
     7
 66
     1
 10
0
 20
0
 30
0.0
 70
     1
 40
0
 41
0
  0
VERTEX
  8
0
 10
3.19129
 20
6.11854
 30
0.0
 40
0
 41
0
  0
VERTEX
  8
0
 10
3.12071
 20
6.06326
 30
0.0
 40
0
 41
0
  0
VERTEX
  8
0
 10
3.11524
 20
6.05817
 30
0.0
 40
0
 41
0
  0
VERTEX
  8
0
 10
3.03569
 20
5.98258
 30
0.0
 40
0
 41
0
  0
VERTEX
  8
0
 10
2.96397
 20
5.90142
 30
0.0
 40
0
 41
0
  0
VERTEX
  8
0
 10
2.94607
 20
5.87722
 30
0.0
 40
0
 41
0
  0
VERTEX
  8
0
 10
2.93386
 20
5.85075
 30
0.0
 40
0
 41
0
  0
VERTEX
  8
0
 10
2.94075
 20
5.82329
 30
0.0
 40
0
 41
0
  0
VERTEX
  8
0
 10
3.00364
 20
5.74311
 30
0.0
 40
0
 41
0
  0
VERTEX
  8
0
 10
3.07547
 20
5.67025
 30
0.0
 40
0
 41
0
  0
VERTEX
  8
0
 10
3.13851
 20
5.61372
 30
0.0
 40
0
 41
0
  0
VERTEX
  8
0
 10
3.20611
 20
5.56635
 30
0.0
 40
0
 41
0
  0
VERTEX
  8
0
 10
3.23047
 20
5.56538
 30
0.0
 40
0
 41
0
  0
VERTEX
  8
0
 10
3.25293
 20
5.57693
 30
0.0
 40
0
 41
0
  0
VERTEX
  8
0
 10
3.34614
 20
5.65338
 30
0.0
 40
0
 41
0
  0
VERTEX
  8
0
 10
3.43186
 20
5.73996
 30
0.0
 40
0
 41
0
  0
VERTEX
  8
0
 10
3.4706
 20
5.78624
 30
0.0
 40
0
 41
0
  0
VERTEX
  8
0
 10
3.50103
 20
5.83594
 30
0.0
 40
0
 41
0
  0
VERTEX
  8
0
 10
3.50043
 20
5.85585
 30
0.0
 40
0
 41
0
  0
VERTEX
  8
0
 10
3.49169
 20
5.8731
 30
0.0
 40
0
 41
0
  0
VERTEX
  8
0
 10
3.42063
 20
5.96272
 30
0.0
 40
0
 41
0
  0
VERTEX
  8
0
 10
3.33957
 20
6.04551
 30
0.0
 40
0
 41
0
  0
VERTEX
  8
0
 10
3.33589
 20
6.04758
 30
0.0
 40
0
 41
0
  0
VERTEX
  8
0
 10
3.26986
 20
6.10379
 30
0.0
 40
0
 41
0
  0
VERTEX
  8
0
 10
3.25211
 20
6.11654
 30
0.0
 40
0
 41
0
  0
VERTEX
  8
0
 10
3.2321
 20
6.12538
 30
0.0
 40
0
 41
0
  0
VERTEX
  8
0
 10
3.21126
 20
6.12717
 30
0.0
 40
0
 41
0
  0
VERTEX
  8
0
 10
3.19129
 20
6.11854
 30
0.0
 40
0
 41
0
  0
SEQEND
 8
0
  0
POLYLINE
  8
0
 62
     150
 66
     1
 10
0
 20
0
 30
0.0
 70
     1
 40
0
 41
0
  0
VERTEX
  8
0
 10
3.20068
 20
6.10308
 30
0.0
 40
0
 41
0
  0
VERTEX
  8
0
 10
3.08365
 20
6.00711
 30
0.0
 40
0
 41
0
  0
VERTEX
  8
0
 10
2.98036
 20
5.89513
 30
0.0
 40
0
 41
0
  0
VERTEX
  8
0
 10
2.96967
 20
5.88118
 30
0.0
 40
0
 41
0
  0
VERTEX
  8
0
 10
2.95942
 20
5.86681
 30
0.0
 40
0
 41
0
  0
VERTEX
  8
0
 10
2.9534
 20
5.85129
 30
0.0
 40
0
 41
0
  0
VERTEX
  8
0
 10
2.95557
 20
5.83382
 30
0.0
 40
0
 41
0
  0
VERTEX
  8
0
 10
2.97125
 20
5.80919
 30
0.0
 40
0
 41
0
  0
VERTEX
  8
0
 10
2.98936
 20
5.78614
 30
0.0
 40
0
 41
0
  0
VERTEX
  8
0
 10
3.08832
 20
5.68078
 30
0.0
 40
0
 41
0
  0
VERTEX
  8
0
 10
3.19803
 20
5.58908
 30
0.0
 40
0
 41
0
  0
VERTEX
  8
0
 10
3.22125
 20
5.58247
 30
0.0
 40
0
 41
0
  0
VERTEX
  8
0
 10
3.24197
 20
5.58963
 30
0.0
 40
0
 41
0
  0
VERTEX
  8
0
 10
3.26133
 20
5.60374
 30
0.0
 40
0
 41
0
  0
VERTEX
  8
0
 10
3.28043
 20
5.61778
 30
0.0
 40
0
 41
0
  0
VERTEX
  8
0
 10
3.35661
 20
5.68554
 30
0.0
 40
0
 41
0
  0
VERTEX
  8
0
 10
3.428
 20
5.759
 30
0.0
 40
0
 41
0
  0
VERTEX
  8
0
 10
3.428
 20
5.76019
 30
0.0
 40
0
 41
0
  0
VERTEX
  8
0
 10
3.48047
 20
5.82872
 30
0.0
 40
0
 41
0
  0
VERTEX
  8
0
 10
3.4835
 20
5.84847
 30
0.0
 40
0
 41
0
  0
VERTEX
  8
0
 10
3.47656
 20
5.86714
 30
0.0
 40
0
 41
0
  0
VERTEX
  8
0
 10
3.38135
 20
5.98144
 30
0.0
 40
0
 41
0
  0
VERTEX
  8
0
 10
3.26986
 20
6.08192
 30
0.0
 40
0
 41
0
  0
VERTEX
  8
0
 10
3.25418
 20
6.09369
 30
0.0
 40
0
 41
0
  0
VERTEX
  8
0
 10
3.23742
 20
6.10439
 30
0.0
 40
0
 41
0
  0
VERTEX
  8
0
 10
3.21957
 20
6.10921
 30
0.0
 40
0
 41
0
  0
VERTEX
  8
0
 10
3.20068
 20
6.10308
 30
0.0
 40
0
 41
0
  0
SEQEND
 8
0
  0
POLYLINE
  8
0
 62
     7
 66
     1
 10
0
 20
0
 30
0.0
 70
     1
 40
0
 41
0
  0
VERTEX
  8
0
 10
3.21701
 20
6.05236
 30
0.0
 40
0
 41
0
  0
VERTEX
  8
0
 10
3.21001
 20
6.02979
 30
0.0
 40
0
 41
0
  0
VERTEX
  8
0
 10
3.17475
 20
5.92888
 30
0.0
 40
0
 41
0
  0
VERTEX
  8
0
 10
3.20313
 20
5.92806
 30
0.0
 40
0
 41
0
  0
VERTEX
  8
0
 10
3.20313
 20
5.92714
 30
0.0
 40
0
 41
0
  0
VERTEX
  8
0
 10
3.19803
 20
5.81304
 30
0.0
 40
0
 41
0
  0
VERTEX
  8
0
 10
3.19889
 20
5.81179
 30
0.0
 40
0
 41
0
  0
VERTEX
  8
0
 10
3.23568
 20
5.81218
 30
0.0
 40
0
 41
0
  0
VERTEX
  8
0
 10
3.23568
 20
5.81392
 30
0.0
 40
0
 41
0
  0
VERTEX
  8
0
 10
3.23113
 20
5.92469
 30
0.0
 40
0
 41
0
  0
VERTEX
  8
0
 10
3.23182
 20
5.92839
 30
0.0
 40
0
 41
0
  0
VERTEX
  8
0
 10
3.26281
 20
5.92888
 30
0.0
 40
0
 41
0
  0
VERTEX
  8
0
 10
3.21793
 20
6.05236
 30
0.0
 40
0
 41
0
  0
VERTEX
  8
0
 10
3.21701
 20
6.05236
 30
0.0
 40
0
 41
0
  0
SEQEND
 8
0
  0
POLYLINE
  8
0
 62
     7
 66
     1
 10
0
 20
0
 30
0.0
 70
     1
 40
0
 41
0
  0
VERTEX
  8
0
 10
3.09711
 20
5.89421
 30
0.0
 40
0
 41
0
  0
VERTEX
  8
0
 10
3.08117
 20
5.88574
 30
0.0
 40
0
 41
0
  0
VERTEX
  8
0
 10
3.06569
 20
5.87472
 30
0.0
 40
0
 41
0
  0
VERTEX
  8
0
 10
3.05447
 20
5.86046
 30
0.0
 40
0
 41
0
  0
VERTEX
  8
0
 10
3.05149
 20
5.84229
 30
0.0
 40
0
 41
0
  0
VERTEX
  8
0
 10
3.06478
 20
5.82383
 30
0.0
 40
0
 41
0
  0
VERTEX
  8
0
 10
3.08442
 20
5.81179
 30
0.0
 40
0
 41
0
  0
VERTEX
  8
0
 10
3.20144
 20
5.78722
 30
0.0
 40
0
 41
0
  0
VERTEX
  8
0
 10
3.32146
 20
5.803
 30
0.0
 40
0
 41
0
  0
VERTEX
  8
0
 10
3.3501
 20
5.81711
 30
0.0
 40
0
 41
0
  0
VERTEX
  8
0
 10
3.36757
 20
5.84261
 30
0.0
 40
0
 41
0
  0
VERTEX
  8
0
 10
3.35585
 20
5.8655
 30
0.0
 40
0
 41
0
  0
VERTEX
  8
0
 10
3.33376
 20
5.87978
 30
0.0
 40
0
 41
0
  0
VERTEX
  8
0
 10
3.33376
 20
5.88064
 30
0.0
 40
0
 41
0
  0
VERTEX
  8
0
 10
3.34944
 20
5.88493
 30
0.0
 40
0
 41
0
  0
VERTEX
  8
0
 10
3.34944
 20
5.88542
 30
0.0
 40
0
 41
0
  0
VERTEX
  8
0
 10
3.27675
 20
5.90267
 30
0.0
 40
0
 41
0
  0
VERTEX
  8
0
 10
3.28851
 20
5.87007
 30
0.0
 40
0
 41
0
  0
VERTEX
  8
0
 10
3.31087
 20
5.87522
 30
0.0
 40
0
 41
0
  0
VERTEX
  8
0
 10
3.33122
 20
5.8654
 30
0.0
 40
0
 41
0
  0
VERTEX
  8
0
 10
3.34347
 20
5.84739
 30
0.0
 40
0
 41
0
  0
VERTEX
  8
0
 10
3.33529
 20
5.83014
 30
0.0
 40
0
 41
0
  0
VERTEX
  8
0
 10
3.31847
 20
5.81939
 30
0.0
 40
0
 41
0
  0
VERTEX
  8
0
 10
3.23335
 20
5.80306
 30
0.0
 40
0
 41
0
  0
VERTEX
  8
0
 10
3.1466
 20
5.81272
 30
0.0
 40
0
 41
0
  0
VERTEX
  8
0
 10
3.12136
 20
5.82269
 30
0.0
 40
0
 41
0
  0
VERTEX
  8
0
 10
3.10644
 20
5.84386
 30
0.0
 40
0
 41
0
  0
VERTEX
  8
0
 10
3.11774
 20
5.85997
 30
0.0
 40
0
 41
0
  0
VERTEX
  8
0
 10
3.13351
 20
5.87033
 30
0.0
 40
0
 41
0
  0
VERTEX
  8
0
 10
3.15169
 20
5.87701
 30
0.0
 40
0
 41
0
  0
VERTEX
  8
0
 10
3.17019
 20
5.88189
 30
0.0
 40
0
 41
0
  0
VERTEX
  8
0
 10
3.1334
 20
5.90565
 30
0.0
 40
0
 41
0
  0
VERTEX
  8
0
 10
3.09711
 20
5.89421
 30
0.0
 40
0
 41
0
  0
SEQEND
 8
0
  0
POLYLINE
  8
0
 62
     7
 66
     1
 10
0
 20
0
 30
0.0
 70
     1
 40
0
 41
0
  0
VERTEX
  8
0
 10
3.19732
 20
5.78049
 30
0.0
 40
0
 41
0
  0
VERTEX
  8
0
 10
3.19168
 20
5.66178
 30
0.0
 40
0
 41
0
  0
VERTEX
  8
0
 10
3.24289
 20
5.66146
 30
0.0
 40
0
 41
0
  0
VERTEX
  8
0
 10
3.23779
 20
5.77468
 30
0.0
 40
0
 41
0
  0
VERTEX
  8
0
 10
3.23693
 20
5.78011
 30
0.0
 40
0
 41
0
  0
VERTEX
  8
0
 10
3.19732
 20
5.78049
 30
0.0
 40
0
 41
0
  0
SEQEND
 8
0
  0
POLYLINE
  8
0
 62
     150
 66
     1
 10
0
 20
0
 30
0.0
 70
     1
 40
0
 41
0
  0
VERTEX
  8
0
 10
3.34457
 20
5.52696
 30
0.0
 40
0
 41
0
  0
VERTEX
  8
0
 10
3.34457
 20
5.5339
 30
0.0
 40
0
 41
0
  0
VERTEX
  8
0
 10
3.3489
 20
5.5339
 30
0.0
 40
0
 41
0
  0
VERTEX
  8
0
 10
3.35439
 20
5.53076
 30
0.0
 40
0
 41
0
  0
VERTEX
  8
0
 10
3.35004
 20
5.52696
 30
0.0
 40
0
 41
0
  0
VERTEX
  8
0
 10
3.34457
 20
5.52696
 30
0.0
 40
0
 41
0
  0
SEQEND
 8
0
  0
POLYLINE
  8
0
 62
     150
 66
     1
 10
0
 20
0
 30
0.0
 70
     1
 40
0
 41
0
  0
VERTEX
  8
0
 10
3.34457
 20
5.52214
 30
0.0
 40
0
 41
0
  0
VERTEX
  8
0
 10
3.3475
 20
5.52214
 30
0.0
 40
0
 41
0
  0
VERTEX
  8
0
 10
3.35411
 20
5.5101
 30
0.0
 40
0
 41
0
  0
VERTEX
  8
0
 10
3.36139
 20
5.5101
 30
0.0
 40
0
 41
0
  0
VERTEX
  8
0
 10
3.35406
 20
5.52263
 30
0.0
 40
0
 41
0
  0
VERTEX
  8
0
 10
3.36094
 20
5.53011
 30
0.0
 40
0
 41
0
  0
VERTEX
  8
0
 10
3.34918
 20
5.53874
 30
0.0
 40
0
 41
0
  0
VERTEX
  8
0
 10
3.33849
 20
5.53874
 30
0.0
 40
0
 41
0
  0
VERTEX
  8
0
 10
3.33849
 20
5.5101
 30
0.0
 40
0
 41
0
  0
VERTEX
  8
0
 10
3.34457
 20
5.5101
 30
0.0
 40
0
 41
0
  0
VERTEX
  8
0
 10
3.34457
 20
5.52214
 30
0.0
 40
0
 41
0
  0
SEQEND
 8
0
  0
POLYLINE
  8
0
 62
     150
 66
     1
 10
0
 20
0
 30
0.0
 70
     1
 40
0
 41
0
  0
VERTEX
  8
0
 10
3.37576
 20
5.52436
 30
0.0
 40
0
 41
0
  0
VERTEX
  8
0
 10
3.36768
 20
5.54406
 30
0.0
 40
0
 41
0
  0
VERTEX
  8
0
 10
3.34901
 20
5.55106
 30
0.0
 40
0
 41
0
  0
VERTEX
  8
0
 10
3.33029
 20
5.54406
 30
0.0
 40
0
 41
0
  0
VERTEX
  8
0
 10
3.32226
 20
5.52436
 30
0.0
 40
0
 41
0
  0
VERTEX
  8
0
 10
3.33029
 20
5.50478
 30
0.0
 40
0
 41
0
  0
VERTEX
  8
0
 10
3.34901
 20
5.49772
 30
0.0
 40
0
 41
0
  0
VERTEX
  8
0
 10
3.36768
 20
5.50478
 30
0.0
 40
0
 41
0
  0
VERTEX
  8
0
 10
3.37576
 20
5.52436
 30
0.0
 40
0
 41
0
  0
SEQEND
 8
0
  0
POLYLINE
  8
0
 62
     150
 66
     1
 10
0
 20
0
 30
0.0
 70
     1
 40
0
 41
0
  0
VERTEX
  8
0
 10
3.36806
 20
5.52436
 30
0.0
 40
0
 41
0
  0
VERTEX
  8
0
 10
3.36236
 20
5.50956
 30
0.0
 40
0
 41
0
  0
VERTEX
  8
0
 10
3.34901
 20
5.50385
 30
0.0
 40
0
 41
0
  0
VERTEX
  8
0
 10
3.34901
 20
5.50396
 30
0.0
 40
0
 41
0
  0
VERTEX
  8
0
 10
3.3355
 20
5.50956
 30
0.0
 40
0
 41
0
  0
VERTEX
  8
0
 10
3.32997
 20
5.52436
 30
0.0
 40
0
 41
0
  0
VERTEX
  8
0
 10
3.3355
 20
5.53922
 30
0.0
 40
0
 41
0
  0
VERTEX
  8
0
 10
3.34901
 20
5.54482
 30
0.0
 40
0
 41
0
  0
VERTEX
  8
0
 10
3.36236
 20
5.53922
 30
0.0
 40
0
 41
0
  0
VERTEX
  8
0
 10
3.36806
 20
5.52436
 30
0.0
 40
0
 41
0
  0
SEQEND
 8
0
  0
ENDSEC
  0
EOF
